%TF.GenerationSoftware,KiCad,Pcbnew,10.0.3*%
%TF.CreationDate,2026-06-10T16:31:11+09:00*%
%TF.ProjectId,UWB_ESP32S3_MainBoard_v2,5557425f-4553-4503-9332-53335f4d6169,rev?*%
%TF.SameCoordinates,Original*%
%TF.FileFunction,Legend,Top*%
%TF.FilePolarity,Positive*%
%FSLAX46Y46*%
G04 Gerber Fmt 4.6, Leading zero omitted, Abs format (unit mm)*
G04 Created by KiCad (PCBNEW 10.0.3) date 2026-06-10 16:31:11*
%MOMM*%
%LPD*%
G01*
G04 APERTURE LIST*
%ADD10C,0.100000*%
%ADD11C,0.200000*%
%ADD12C,0.150000*%
%ADD13C,0.000000*%
%ADD14C,0.120000*%
G04 APERTURE END LIST*
D10*
X169500000Y-61250000D02*
X169000000Y-60500000D01*
X168500000Y-61250000D01*
X169500000Y-61250000D01*
G36*
X169500000Y-61250000D02*
G01*
X168500000Y-61250000D01*
X169000000Y-60500000D01*
X169500000Y-61250000D01*
G37*
X171750000Y-134500000D02*
X172250000Y-135250000D01*
X172750000Y-134500000D01*
X171750000Y-134500000D01*
G36*
X172250000Y-135250000D02*
G01*
X171750000Y-134500000D01*
X172750000Y-134500000D01*
X172250000Y-135250000D01*
G37*
X187250000Y-90350000D02*
X186500000Y-90850000D01*
X187250000Y-91350000D01*
X187250000Y-90350000D01*
G36*
X187250000Y-91350000D02*
G01*
X186500000Y-90850000D01*
X187250000Y-90350000D01*
X187250000Y-91350000D01*
G37*
X133500000Y-112500000D02*
X133000000Y-112500000D01*
X132999043Y-115750256D01*
X132249873Y-115749874D01*
X133258401Y-116749965D01*
X134250000Y-115750000D01*
X133500000Y-115750000D01*
X133500000Y-112500000D01*
G36*
X133500000Y-115750000D02*
G01*
X134250000Y-115750000D01*
X133258401Y-116749965D01*
X132249873Y-115749874D01*
X132999043Y-115750256D01*
X133000000Y-112500000D01*
X133500000Y-112500000D01*
X133500000Y-115750000D01*
G37*
X135250000Y-78250000D02*
X135750000Y-78250000D01*
X135750957Y-75749744D01*
X136500127Y-75750126D01*
X135491599Y-74750035D01*
X134500000Y-75750000D01*
X135250000Y-75750000D01*
X135250000Y-78250000D01*
G36*
X136500127Y-75750126D02*
G01*
X135750957Y-75749744D01*
X135750000Y-78250000D01*
X135250000Y-78250000D01*
X135250000Y-75750000D01*
X134500000Y-75750000D01*
X135491599Y-74750035D01*
X136500127Y-75750126D01*
G37*
X104920000Y-117260000D02*
X104920000Y-131170000D01*
X104970000Y-67080000D02*
X104970000Y-79660000D01*
X120280000Y-118590000D02*
X120280000Y-131170000D01*
X120330000Y-67080000D02*
X120330000Y-80990000D01*
X125220000Y-106580000D02*
X125220000Y-124240000D01*
X130360000Y-82910000D02*
X130360000Y-69000000D01*
X131250000Y-109750000D02*
X137750000Y-109750000D01*
X137750000Y-119750000D01*
X131250000Y-119750000D01*
X131250000Y-109750000D01*
X140580000Y-106580000D02*
X140580000Y-125570000D01*
X140640000Y-70330000D02*
X140640000Y-82910000D01*
X148680000Y-71670000D02*
X172750000Y-71670000D01*
X171420000Y-127670000D02*
X148680000Y-127670000D01*
X167992857Y-61672371D02*
X168364285Y-61672371D01*
X168364285Y-61672371D02*
X168164285Y-61900942D01*
X168164285Y-61900942D02*
X168250000Y-61900942D01*
X168250000Y-61900942D02*
X168307143Y-61929514D01*
X168307143Y-61929514D02*
X168335714Y-61958085D01*
X168335714Y-61958085D02*
X168364285Y-62015228D01*
X168364285Y-62015228D02*
X168364285Y-62158085D01*
X168364285Y-62158085D02*
X168335714Y-62215228D01*
X168335714Y-62215228D02*
X168307143Y-62243800D01*
X168307143Y-62243800D02*
X168250000Y-62272371D01*
X168250000Y-62272371D02*
X168078571Y-62272371D01*
X168078571Y-62272371D02*
X168021428Y-62243800D01*
X168021428Y-62243800D02*
X167992857Y-62215228D01*
X168621429Y-62215228D02*
X168650000Y-62243800D01*
X168650000Y-62243800D02*
X168621429Y-62272371D01*
X168621429Y-62272371D02*
X168592857Y-62243800D01*
X168592857Y-62243800D02*
X168621429Y-62215228D01*
X168621429Y-62215228D02*
X168621429Y-62272371D01*
X168850000Y-61672371D02*
X169221428Y-61672371D01*
X169221428Y-61672371D02*
X169021428Y-61900942D01*
X169021428Y-61900942D02*
X169107143Y-61900942D01*
X169107143Y-61900942D02*
X169164286Y-61929514D01*
X169164286Y-61929514D02*
X169192857Y-61958085D01*
X169192857Y-61958085D02*
X169221428Y-62015228D01*
X169221428Y-62015228D02*
X169221428Y-62158085D01*
X169221428Y-62158085D02*
X169192857Y-62215228D01*
X169192857Y-62215228D02*
X169164286Y-62243800D01*
X169164286Y-62243800D02*
X169107143Y-62272371D01*
X169107143Y-62272371D02*
X168935714Y-62272371D01*
X168935714Y-62272371D02*
X168878571Y-62243800D01*
X168878571Y-62243800D02*
X168850000Y-62215228D01*
X169392857Y-61672371D02*
X169592857Y-62272371D01*
X169592857Y-62272371D02*
X169792857Y-61672371D01*
X169992858Y-62043800D02*
X170450001Y-62043800D01*
X170221429Y-62272371D02*
X170221429Y-61815228D01*
X103640476Y-87852990D02*
X103564286Y-87814895D01*
X103564286Y-87814895D02*
X103450000Y-87814895D01*
X103450000Y-87814895D02*
X103335714Y-87852990D01*
X103335714Y-87852990D02*
X103259524Y-87929180D01*
X103259524Y-87929180D02*
X103221429Y-88005371D01*
X103221429Y-88005371D02*
X103183333Y-88157752D01*
X103183333Y-88157752D02*
X103183333Y-88272038D01*
X103183333Y-88272038D02*
X103221429Y-88424419D01*
X103221429Y-88424419D02*
X103259524Y-88500609D01*
X103259524Y-88500609D02*
X103335714Y-88576800D01*
X103335714Y-88576800D02*
X103450000Y-88614895D01*
X103450000Y-88614895D02*
X103526191Y-88614895D01*
X103526191Y-88614895D02*
X103640476Y-88576800D01*
X103640476Y-88576800D02*
X103678572Y-88538704D01*
X103678572Y-88538704D02*
X103678572Y-88272038D01*
X103678572Y-88272038D02*
X103526191Y-88272038D01*
X104021429Y-88614895D02*
X104021429Y-87814895D01*
X104021429Y-87814895D02*
X104478572Y-88614895D01*
X104478572Y-88614895D02*
X104478572Y-87814895D01*
X104859524Y-88614895D02*
X104859524Y-87814895D01*
X104859524Y-87814895D02*
X105050000Y-87814895D01*
X105050000Y-87814895D02*
X105164286Y-87852990D01*
X105164286Y-87852990D02*
X105240476Y-87929180D01*
X105240476Y-87929180D02*
X105278571Y-88005371D01*
X105278571Y-88005371D02*
X105316667Y-88157752D01*
X105316667Y-88157752D02*
X105316667Y-88272038D01*
X105316667Y-88272038D02*
X105278571Y-88424419D01*
X105278571Y-88424419D02*
X105240476Y-88500609D01*
X105240476Y-88500609D02*
X105164286Y-88576800D01*
X105164286Y-88576800D02*
X105050000Y-88614895D01*
X105050000Y-88614895D02*
X104859524Y-88614895D01*
X101850000Y-92564895D02*
X102116667Y-93364895D01*
X102116667Y-93364895D02*
X102383333Y-92564895D01*
X102916666Y-92945847D02*
X103030952Y-92983942D01*
X103030952Y-92983942D02*
X103069047Y-93022038D01*
X103069047Y-93022038D02*
X103107143Y-93098228D01*
X103107143Y-93098228D02*
X103107143Y-93212514D01*
X103107143Y-93212514D02*
X103069047Y-93288704D01*
X103069047Y-93288704D02*
X103030952Y-93326800D01*
X103030952Y-93326800D02*
X102954762Y-93364895D01*
X102954762Y-93364895D02*
X102650000Y-93364895D01*
X102650000Y-93364895D02*
X102650000Y-92564895D01*
X102650000Y-92564895D02*
X102916666Y-92564895D01*
X102916666Y-92564895D02*
X102992857Y-92602990D01*
X102992857Y-92602990D02*
X103030952Y-92641085D01*
X103030952Y-92641085D02*
X103069047Y-92717276D01*
X103069047Y-92717276D02*
X103069047Y-92793466D01*
X103069047Y-92793466D02*
X103030952Y-92869657D01*
X103030952Y-92869657D02*
X102992857Y-92907752D01*
X102992857Y-92907752D02*
X102916666Y-92945847D01*
X102916666Y-92945847D02*
X102650000Y-92945847D01*
X103411904Y-93136323D02*
X103792857Y-93136323D01*
X103335714Y-93364895D02*
X103602381Y-92564895D01*
X103602381Y-92564895D02*
X103869047Y-93364895D01*
X104021428Y-92564895D02*
X104478571Y-92564895D01*
X104249999Y-93364895D02*
X104249999Y-92564895D01*
X104554762Y-93441085D02*
X105164285Y-93441085D01*
X105316666Y-93326800D02*
X105430952Y-93364895D01*
X105430952Y-93364895D02*
X105621428Y-93364895D01*
X105621428Y-93364895D02*
X105697619Y-93326800D01*
X105697619Y-93326800D02*
X105735714Y-93288704D01*
X105735714Y-93288704D02*
X105773809Y-93212514D01*
X105773809Y-93212514D02*
X105773809Y-93136323D01*
X105773809Y-93136323D02*
X105735714Y-93060133D01*
X105735714Y-93060133D02*
X105697619Y-93022038D01*
X105697619Y-93022038D02*
X105621428Y-92983942D01*
X105621428Y-92983942D02*
X105469047Y-92945847D01*
X105469047Y-92945847D02*
X105392857Y-92907752D01*
X105392857Y-92907752D02*
X105354762Y-92869657D01*
X105354762Y-92869657D02*
X105316666Y-92793466D01*
X105316666Y-92793466D02*
X105316666Y-92717276D01*
X105316666Y-92717276D02*
X105354762Y-92641085D01*
X105354762Y-92641085D02*
X105392857Y-92602990D01*
X105392857Y-92602990D02*
X105469047Y-92564895D01*
X105469047Y-92564895D02*
X105659524Y-92564895D01*
X105659524Y-92564895D02*
X105773809Y-92602990D01*
X106116667Y-93364895D02*
X106116667Y-92564895D01*
X106573810Y-93364895D02*
X106230952Y-92907752D01*
X106573810Y-92564895D02*
X106116667Y-93022038D01*
X134466666Y-142564895D02*
X134085714Y-142564895D01*
X134085714Y-142564895D02*
X134047618Y-142945847D01*
X134047618Y-142945847D02*
X134085714Y-142907752D01*
X134085714Y-142907752D02*
X134161904Y-142869657D01*
X134161904Y-142869657D02*
X134352380Y-142869657D01*
X134352380Y-142869657D02*
X134428571Y-142907752D01*
X134428571Y-142907752D02*
X134466666Y-142945847D01*
X134466666Y-142945847D02*
X134504761Y-143022038D01*
X134504761Y-143022038D02*
X134504761Y-143212514D01*
X134504761Y-143212514D02*
X134466666Y-143288704D01*
X134466666Y-143288704D02*
X134428571Y-143326800D01*
X134428571Y-143326800D02*
X134352380Y-143364895D01*
X134352380Y-143364895D02*
X134161904Y-143364895D01*
X134161904Y-143364895D02*
X134085714Y-143326800D01*
X134085714Y-143326800D02*
X134047618Y-143288704D01*
X134733333Y-142564895D02*
X135000000Y-143364895D01*
X135000000Y-143364895D02*
X135266666Y-142564895D01*
X135685714Y-142564895D02*
X135761904Y-142564895D01*
X135761904Y-142564895D02*
X135838095Y-142602990D01*
X135838095Y-142602990D02*
X135876190Y-142641085D01*
X135876190Y-142641085D02*
X135914285Y-142717276D01*
X135914285Y-142717276D02*
X135952380Y-142869657D01*
X135952380Y-142869657D02*
X135952380Y-143060133D01*
X135952380Y-143060133D02*
X135914285Y-143212514D01*
X135914285Y-143212514D02*
X135876190Y-143288704D01*
X135876190Y-143288704D02*
X135838095Y-143326800D01*
X135838095Y-143326800D02*
X135761904Y-143364895D01*
X135761904Y-143364895D02*
X135685714Y-143364895D01*
X135685714Y-143364895D02*
X135609523Y-143326800D01*
X135609523Y-143326800D02*
X135571428Y-143288704D01*
X135571428Y-143288704D02*
X135533333Y-143212514D01*
X135533333Y-143212514D02*
X135495237Y-143060133D01*
X135495237Y-143060133D02*
X135495237Y-142869657D01*
X135495237Y-142869657D02*
X135533333Y-142717276D01*
X135533333Y-142717276D02*
X135571428Y-142641085D01*
X135571428Y-142641085D02*
X135609523Y-142602990D01*
X135609523Y-142602990D02*
X135685714Y-142564895D01*
X187814895Y-92176190D02*
X187814895Y-91680952D01*
X187814895Y-91680952D02*
X188119657Y-91947618D01*
X188119657Y-91947618D02*
X188119657Y-91833333D01*
X188119657Y-91833333D02*
X188157752Y-91757142D01*
X188157752Y-91757142D02*
X188195847Y-91719047D01*
X188195847Y-91719047D02*
X188272038Y-91680952D01*
X188272038Y-91680952D02*
X188462514Y-91680952D01*
X188462514Y-91680952D02*
X188538704Y-91719047D01*
X188538704Y-91719047D02*
X188576800Y-91757142D01*
X188576800Y-91757142D02*
X188614895Y-91833333D01*
X188614895Y-91833333D02*
X188614895Y-92061904D01*
X188614895Y-92061904D02*
X188576800Y-92138095D01*
X188576800Y-92138095D02*
X188538704Y-92176190D01*
X188538704Y-91338094D02*
X188576800Y-91299999D01*
X188576800Y-91299999D02*
X188614895Y-91338094D01*
X188614895Y-91338094D02*
X188576800Y-91376190D01*
X188576800Y-91376190D02*
X188538704Y-91338094D01*
X188538704Y-91338094D02*
X188614895Y-91338094D01*
X187814895Y-91033333D02*
X187814895Y-90538095D01*
X187814895Y-90538095D02*
X188119657Y-90804761D01*
X188119657Y-90804761D02*
X188119657Y-90690476D01*
X188119657Y-90690476D02*
X188157752Y-90614285D01*
X188157752Y-90614285D02*
X188195847Y-90576190D01*
X188195847Y-90576190D02*
X188272038Y-90538095D01*
X188272038Y-90538095D02*
X188462514Y-90538095D01*
X188462514Y-90538095D02*
X188538704Y-90576190D01*
X188538704Y-90576190D02*
X188576800Y-90614285D01*
X188576800Y-90614285D02*
X188614895Y-90690476D01*
X188614895Y-90690476D02*
X188614895Y-90919047D01*
X188614895Y-90919047D02*
X188576800Y-90995238D01*
X188576800Y-90995238D02*
X188538704Y-91033333D01*
X187814895Y-90309523D02*
X188614895Y-90042856D01*
X188614895Y-90042856D02*
X187814895Y-89776190D01*
X188310133Y-89509523D02*
X188310133Y-88900000D01*
X188614895Y-89204761D02*
X188005371Y-89204761D01*
X173028571Y-133935104D02*
X173409523Y-133935104D01*
X173409523Y-133935104D02*
X173447619Y-133554152D01*
X173447619Y-133554152D02*
X173409523Y-133592247D01*
X173409523Y-133592247D02*
X173333333Y-133630342D01*
X173333333Y-133630342D02*
X173142857Y-133630342D01*
X173142857Y-133630342D02*
X173066666Y-133592247D01*
X173066666Y-133592247D02*
X173028571Y-133554152D01*
X173028571Y-133554152D02*
X172990476Y-133477961D01*
X172990476Y-133477961D02*
X172990476Y-133287485D01*
X172990476Y-133287485D02*
X173028571Y-133211295D01*
X173028571Y-133211295D02*
X173066666Y-133173200D01*
X173066666Y-133173200D02*
X173142857Y-133135104D01*
X173142857Y-133135104D02*
X173333333Y-133135104D01*
X173333333Y-133135104D02*
X173409523Y-133173200D01*
X173409523Y-133173200D02*
X173447619Y-133211295D01*
X172761904Y-133935104D02*
X172495237Y-133135104D01*
X172495237Y-133135104D02*
X172228571Y-133935104D01*
X171809523Y-133935104D02*
X171733333Y-133935104D01*
X171733333Y-133935104D02*
X171657142Y-133897009D01*
X171657142Y-133897009D02*
X171619047Y-133858914D01*
X171619047Y-133858914D02*
X171580952Y-133782723D01*
X171580952Y-133782723D02*
X171542857Y-133630342D01*
X171542857Y-133630342D02*
X171542857Y-133439866D01*
X171542857Y-133439866D02*
X171580952Y-133287485D01*
X171580952Y-133287485D02*
X171619047Y-133211295D01*
X171619047Y-133211295D02*
X171657142Y-133173200D01*
X171657142Y-133173200D02*
X171733333Y-133135104D01*
X171733333Y-133135104D02*
X171809523Y-133135104D01*
X171809523Y-133135104D02*
X171885714Y-133173200D01*
X171885714Y-133173200D02*
X171923809Y-133211295D01*
X171923809Y-133211295D02*
X171961904Y-133287485D01*
X171961904Y-133287485D02*
X172000000Y-133439866D01*
X172000000Y-133439866D02*
X172000000Y-133630342D01*
X172000000Y-133630342D02*
X171961904Y-133782723D01*
X171961904Y-133782723D02*
X171923809Y-133858914D01*
X171923809Y-133858914D02*
X171885714Y-133897009D01*
X171885714Y-133897009D02*
X171809523Y-133935104D01*
X171199999Y-133439866D02*
X170590476Y-133439866D01*
X170895237Y-133135104D02*
X170895237Y-133744628D01*
X108857143Y-125207419D02*
X108857143Y-124207419D01*
X108857143Y-124207419D02*
X109190476Y-124921704D01*
X109190476Y-124921704D02*
X109523809Y-124207419D01*
X109523809Y-124207419D02*
X109523809Y-125207419D01*
X110190476Y-124207419D02*
X110380952Y-124207419D01*
X110380952Y-124207419D02*
X110476190Y-124255038D01*
X110476190Y-124255038D02*
X110571428Y-124350276D01*
X110571428Y-124350276D02*
X110619047Y-124540752D01*
X110619047Y-124540752D02*
X110619047Y-124874085D01*
X110619047Y-124874085D02*
X110571428Y-125064561D01*
X110571428Y-125064561D02*
X110476190Y-125159800D01*
X110476190Y-125159800D02*
X110380952Y-125207419D01*
X110380952Y-125207419D02*
X110190476Y-125207419D01*
X110190476Y-125207419D02*
X110095238Y-125159800D01*
X110095238Y-125159800D02*
X110000000Y-125064561D01*
X110000000Y-125064561D02*
X109952381Y-124874085D01*
X109952381Y-124874085D02*
X109952381Y-124540752D01*
X109952381Y-124540752D02*
X110000000Y-124350276D01*
X110000000Y-124350276D02*
X110095238Y-124255038D01*
X110095238Y-124255038D02*
X110190476Y-124207419D01*
X110904762Y-124207419D02*
X111476190Y-124207419D01*
X111190476Y-125207419D02*
X111190476Y-124207419D01*
X112000000Y-124207419D02*
X112190476Y-124207419D01*
X112190476Y-124207419D02*
X112285714Y-124255038D01*
X112285714Y-124255038D02*
X112380952Y-124350276D01*
X112380952Y-124350276D02*
X112428571Y-124540752D01*
X112428571Y-124540752D02*
X112428571Y-124874085D01*
X112428571Y-124874085D02*
X112380952Y-125064561D01*
X112380952Y-125064561D02*
X112285714Y-125159800D01*
X112285714Y-125159800D02*
X112190476Y-125207419D01*
X112190476Y-125207419D02*
X112000000Y-125207419D01*
X112000000Y-125207419D02*
X111904762Y-125159800D01*
X111904762Y-125159800D02*
X111809524Y-125064561D01*
X111809524Y-125064561D02*
X111761905Y-124874085D01*
X111761905Y-124874085D02*
X111761905Y-124540752D01*
X111761905Y-124540752D02*
X111809524Y-124350276D01*
X111809524Y-124350276D02*
X111904762Y-124255038D01*
X111904762Y-124255038D02*
X112000000Y-124207419D01*
X113428571Y-125207419D02*
X113095238Y-124731228D01*
X112857143Y-125207419D02*
X112857143Y-124207419D01*
X112857143Y-124207419D02*
X113238095Y-124207419D01*
X113238095Y-124207419D02*
X113333333Y-124255038D01*
X113333333Y-124255038D02*
X113380952Y-124302657D01*
X113380952Y-124302657D02*
X113428571Y-124397895D01*
X113428571Y-124397895D02*
X113428571Y-124540752D01*
X113428571Y-124540752D02*
X113380952Y-124635990D01*
X113380952Y-124635990D02*
X113333333Y-124683609D01*
X113333333Y-124683609D02*
X113238095Y-124731228D01*
X113238095Y-124731228D02*
X112857143Y-124731228D01*
X113619048Y-125302657D02*
X114380952Y-125302657D01*
X115190476Y-125207419D02*
X114857143Y-124731228D01*
X114619048Y-125207419D02*
X114619048Y-124207419D01*
X114619048Y-124207419D02*
X115000000Y-124207419D01*
X115000000Y-124207419D02*
X115095238Y-124255038D01*
X115095238Y-124255038D02*
X115142857Y-124302657D01*
X115142857Y-124302657D02*
X115190476Y-124397895D01*
X115190476Y-124397895D02*
X115190476Y-124540752D01*
X115190476Y-124540752D02*
X115142857Y-124635990D01*
X115142857Y-124635990D02*
X115095238Y-124683609D01*
X115095238Y-124683609D02*
X115000000Y-124731228D01*
X115000000Y-124731228D02*
X114619048Y-124731228D01*
X109702381Y-73457419D02*
X109702381Y-72457419D01*
X109702381Y-72457419D02*
X110035714Y-73171704D01*
X110035714Y-73171704D02*
X110369047Y-72457419D01*
X110369047Y-72457419D02*
X110369047Y-73457419D01*
X111035714Y-72457419D02*
X111226190Y-72457419D01*
X111226190Y-72457419D02*
X111321428Y-72505038D01*
X111321428Y-72505038D02*
X111416666Y-72600276D01*
X111416666Y-72600276D02*
X111464285Y-72790752D01*
X111464285Y-72790752D02*
X111464285Y-73124085D01*
X111464285Y-73124085D02*
X111416666Y-73314561D01*
X111416666Y-73314561D02*
X111321428Y-73409800D01*
X111321428Y-73409800D02*
X111226190Y-73457419D01*
X111226190Y-73457419D02*
X111035714Y-73457419D01*
X111035714Y-73457419D02*
X110940476Y-73409800D01*
X110940476Y-73409800D02*
X110845238Y-73314561D01*
X110845238Y-73314561D02*
X110797619Y-73124085D01*
X110797619Y-73124085D02*
X110797619Y-72790752D01*
X110797619Y-72790752D02*
X110845238Y-72600276D01*
X110845238Y-72600276D02*
X110940476Y-72505038D01*
X110940476Y-72505038D02*
X111035714Y-72457419D01*
X111750000Y-72457419D02*
X112321428Y-72457419D01*
X112035714Y-73457419D02*
X112035714Y-72457419D01*
X112845238Y-72457419D02*
X113035714Y-72457419D01*
X113035714Y-72457419D02*
X113130952Y-72505038D01*
X113130952Y-72505038D02*
X113226190Y-72600276D01*
X113226190Y-72600276D02*
X113273809Y-72790752D01*
X113273809Y-72790752D02*
X113273809Y-73124085D01*
X113273809Y-73124085D02*
X113226190Y-73314561D01*
X113226190Y-73314561D02*
X113130952Y-73409800D01*
X113130952Y-73409800D02*
X113035714Y-73457419D01*
X113035714Y-73457419D02*
X112845238Y-73457419D01*
X112845238Y-73457419D02*
X112750000Y-73409800D01*
X112750000Y-73409800D02*
X112654762Y-73314561D01*
X112654762Y-73314561D02*
X112607143Y-73124085D01*
X112607143Y-73124085D02*
X112607143Y-72790752D01*
X112607143Y-72790752D02*
X112654762Y-72600276D01*
X112654762Y-72600276D02*
X112750000Y-72505038D01*
X112750000Y-72505038D02*
X112845238Y-72457419D01*
X114273809Y-73457419D02*
X113940476Y-72981228D01*
X113702381Y-73457419D02*
X113702381Y-72457419D01*
X113702381Y-72457419D02*
X114083333Y-72457419D01*
X114083333Y-72457419D02*
X114178571Y-72505038D01*
X114178571Y-72505038D02*
X114226190Y-72552657D01*
X114226190Y-72552657D02*
X114273809Y-72647895D01*
X114273809Y-72647895D02*
X114273809Y-72790752D01*
X114273809Y-72790752D02*
X114226190Y-72885990D01*
X114226190Y-72885990D02*
X114178571Y-72933609D01*
X114178571Y-72933609D02*
X114083333Y-72981228D01*
X114083333Y-72981228D02*
X113702381Y-72981228D01*
X114464286Y-73552657D02*
X115226190Y-73552657D01*
X115940476Y-73457419D02*
X115464286Y-73457419D01*
X115464286Y-73457419D02*
X115464286Y-72457419D01*
X172976190Y-60707419D02*
X173547618Y-60707419D01*
X173261904Y-61707419D02*
X173261904Y-60707419D01*
X173833333Y-61421704D02*
X174309523Y-61421704D01*
X173738095Y-61707419D02*
X174071428Y-60707419D01*
X174071428Y-60707419D02*
X174404761Y-61707419D01*
X174738095Y-60707419D02*
X174738095Y-61516942D01*
X174738095Y-61516942D02*
X174785714Y-61612180D01*
X174785714Y-61612180D02*
X174833333Y-61659800D01*
X174833333Y-61659800D02*
X174928571Y-61707419D01*
X174928571Y-61707419D02*
X175119047Y-61707419D01*
X175119047Y-61707419D02*
X175214285Y-61659800D01*
X175214285Y-61659800D02*
X175261904Y-61612180D01*
X175261904Y-61612180D02*
X175309523Y-61516942D01*
X175309523Y-61516942D02*
X175309523Y-60707419D01*
X175547619Y-61802657D02*
X176309523Y-61802657D01*
X177071428Y-61707419D02*
X176500000Y-61707419D01*
X176785714Y-61707419D02*
X176785714Y-60707419D01*
X176785714Y-60707419D02*
X176690476Y-60850276D01*
X176690476Y-60850276D02*
X176595238Y-60945514D01*
X176595238Y-60945514D02*
X176500000Y-60993133D01*
X177452381Y-60802657D02*
X177500000Y-60755038D01*
X177500000Y-60755038D02*
X177595238Y-60707419D01*
X177595238Y-60707419D02*
X177833333Y-60707419D01*
X177833333Y-60707419D02*
X177928571Y-60755038D01*
X177928571Y-60755038D02*
X177976190Y-60802657D01*
X177976190Y-60802657D02*
X178023809Y-60897895D01*
X178023809Y-60897895D02*
X178023809Y-60993133D01*
X178023809Y-60993133D02*
X177976190Y-61135990D01*
X177976190Y-61135990D02*
X177404762Y-61707419D01*
X177404762Y-61707419D02*
X178023809Y-61707419D01*
X178642857Y-60707419D02*
X178738095Y-60707419D01*
X178738095Y-60707419D02*
X178833333Y-60755038D01*
X178833333Y-60755038D02*
X178880952Y-60802657D01*
X178880952Y-60802657D02*
X178928571Y-60897895D01*
X178928571Y-60897895D02*
X178976190Y-61088371D01*
X178976190Y-61088371D02*
X178976190Y-61326466D01*
X178976190Y-61326466D02*
X178928571Y-61516942D01*
X178928571Y-61516942D02*
X178880952Y-61612180D01*
X178880952Y-61612180D02*
X178833333Y-61659800D01*
X178833333Y-61659800D02*
X178738095Y-61707419D01*
X178738095Y-61707419D02*
X178642857Y-61707419D01*
X178642857Y-61707419D02*
X178547619Y-61659800D01*
X178547619Y-61659800D02*
X178500000Y-61612180D01*
X178500000Y-61612180D02*
X178452381Y-61516942D01*
X178452381Y-61516942D02*
X178404762Y-61326466D01*
X178404762Y-61326466D02*
X178404762Y-61088371D01*
X178404762Y-61088371D02*
X178452381Y-60897895D01*
X178452381Y-60897895D02*
X178500000Y-60802657D01*
X178500000Y-60802657D02*
X178547619Y-60755038D01*
X178547619Y-60755038D02*
X178642857Y-60707419D01*
X179928571Y-61707419D02*
X179357143Y-61707419D01*
X179642857Y-61707419D02*
X179642857Y-60707419D01*
X179642857Y-60707419D02*
X179547619Y-60850276D01*
X179547619Y-60850276D02*
X179452381Y-60945514D01*
X179452381Y-60945514D02*
X179357143Y-60993133D01*
X133707419Y-79011903D02*
X132707419Y-79011903D01*
X132707419Y-79011903D02*
X133421704Y-78678570D01*
X133421704Y-78678570D02*
X132707419Y-78345237D01*
X132707419Y-78345237D02*
X133707419Y-78345237D01*
X133707419Y-77869046D02*
X132707419Y-77869046D01*
X133707419Y-77392856D02*
X132707419Y-77392856D01*
X132707419Y-77392856D02*
X133707419Y-76821428D01*
X133707419Y-76821428D02*
X132707419Y-76821428D01*
X133707419Y-76345237D02*
X132707419Y-76345237D01*
X132707419Y-75964285D02*
X132707419Y-75345238D01*
X132707419Y-75345238D02*
X133088371Y-75678571D01*
X133088371Y-75678571D02*
X133088371Y-75535714D01*
X133088371Y-75535714D02*
X133135990Y-75440476D01*
X133135990Y-75440476D02*
X133183609Y-75392857D01*
X133183609Y-75392857D02*
X133278847Y-75345238D01*
X133278847Y-75345238D02*
X133516942Y-75345238D01*
X133516942Y-75345238D02*
X133612180Y-75392857D01*
X133612180Y-75392857D02*
X133659800Y-75440476D01*
X133659800Y-75440476D02*
X133707419Y-75535714D01*
X133707419Y-75535714D02*
X133707419Y-75821428D01*
X133707419Y-75821428D02*
X133659800Y-75916666D01*
X133659800Y-75916666D02*
X133612180Y-75964285D01*
X132707419Y-74488095D02*
X132707419Y-74678571D01*
X132707419Y-74678571D02*
X132755038Y-74773809D01*
X132755038Y-74773809D02*
X132802657Y-74821428D01*
X132802657Y-74821428D02*
X132945514Y-74916666D01*
X132945514Y-74916666D02*
X133135990Y-74964285D01*
X133135990Y-74964285D02*
X133516942Y-74964285D01*
X133516942Y-74964285D02*
X133612180Y-74916666D01*
X133612180Y-74916666D02*
X133659800Y-74869047D01*
X133659800Y-74869047D02*
X133707419Y-74773809D01*
X133707419Y-74773809D02*
X133707419Y-74583333D01*
X133707419Y-74583333D02*
X133659800Y-74488095D01*
X133659800Y-74488095D02*
X133612180Y-74440476D01*
X133612180Y-74440476D02*
X133516942Y-74392857D01*
X133516942Y-74392857D02*
X133278847Y-74392857D01*
X133278847Y-74392857D02*
X133183609Y-74440476D01*
X133183609Y-74440476D02*
X133135990Y-74488095D01*
X133135990Y-74488095D02*
X133088371Y-74583333D01*
X133088371Y-74583333D02*
X133088371Y-74773809D01*
X133088371Y-74773809D02*
X133135990Y-74869047D01*
X133135990Y-74869047D02*
X133183609Y-74916666D01*
X133183609Y-74916666D02*
X133278847Y-74964285D01*
X132707419Y-73773809D02*
X132707419Y-73678571D01*
X132707419Y-73678571D02*
X132755038Y-73583333D01*
X132755038Y-73583333D02*
X132802657Y-73535714D01*
X132802657Y-73535714D02*
X132897895Y-73488095D01*
X132897895Y-73488095D02*
X133088371Y-73440476D01*
X133088371Y-73440476D02*
X133326466Y-73440476D01*
X133326466Y-73440476D02*
X133516942Y-73488095D01*
X133516942Y-73488095D02*
X133612180Y-73535714D01*
X133612180Y-73535714D02*
X133659800Y-73583333D01*
X133659800Y-73583333D02*
X133707419Y-73678571D01*
X133707419Y-73678571D02*
X133707419Y-73773809D01*
X133707419Y-73773809D02*
X133659800Y-73869047D01*
X133659800Y-73869047D02*
X133612180Y-73916666D01*
X133612180Y-73916666D02*
X133516942Y-73964285D01*
X133516942Y-73964285D02*
X133326466Y-74011904D01*
X133326466Y-74011904D02*
X133088371Y-74011904D01*
X133088371Y-74011904D02*
X132897895Y-73964285D01*
X132897895Y-73964285D02*
X132802657Y-73916666D01*
X132802657Y-73916666D02*
X132755038Y-73869047D01*
X132755038Y-73869047D02*
X132707419Y-73773809D01*
X187433609Y-105004761D02*
X187481228Y-104861904D01*
X187481228Y-104861904D02*
X187528847Y-104814285D01*
X187528847Y-104814285D02*
X187624085Y-104766666D01*
X187624085Y-104766666D02*
X187766942Y-104766666D01*
X187766942Y-104766666D02*
X187862180Y-104814285D01*
X187862180Y-104814285D02*
X187909800Y-104861904D01*
X187909800Y-104861904D02*
X187957419Y-104957142D01*
X187957419Y-104957142D02*
X187957419Y-105338094D01*
X187957419Y-105338094D02*
X186957419Y-105338094D01*
X186957419Y-105338094D02*
X186957419Y-105004761D01*
X186957419Y-105004761D02*
X187005038Y-104909523D01*
X187005038Y-104909523D02*
X187052657Y-104861904D01*
X187052657Y-104861904D02*
X187147895Y-104814285D01*
X187147895Y-104814285D02*
X187243133Y-104814285D01*
X187243133Y-104814285D02*
X187338371Y-104861904D01*
X187338371Y-104861904D02*
X187385990Y-104909523D01*
X187385990Y-104909523D02*
X187433609Y-105004761D01*
X187433609Y-105004761D02*
X187433609Y-105338094D01*
X187957419Y-104338094D02*
X186957419Y-104338094D01*
X186957419Y-104338094D02*
X187957419Y-103766666D01*
X187957419Y-103766666D02*
X186957419Y-103766666D01*
X186957419Y-103099999D02*
X186957419Y-102909523D01*
X186957419Y-102909523D02*
X187005038Y-102814285D01*
X187005038Y-102814285D02*
X187100276Y-102719047D01*
X187100276Y-102719047D02*
X187290752Y-102671428D01*
X187290752Y-102671428D02*
X187624085Y-102671428D01*
X187624085Y-102671428D02*
X187814561Y-102719047D01*
X187814561Y-102719047D02*
X187909800Y-102814285D01*
X187909800Y-102814285D02*
X187957419Y-102909523D01*
X187957419Y-102909523D02*
X187957419Y-103099999D01*
X187957419Y-103099999D02*
X187909800Y-103195237D01*
X187909800Y-103195237D02*
X187814561Y-103290475D01*
X187814561Y-103290475D02*
X187624085Y-103338094D01*
X187624085Y-103338094D02*
X187290752Y-103338094D01*
X187290752Y-103338094D02*
X187100276Y-103290475D01*
X187100276Y-103290475D02*
X187005038Y-103195237D01*
X187005038Y-103195237D02*
X186957419Y-103099999D01*
X186957419Y-102052380D02*
X186957419Y-101957142D01*
X186957419Y-101957142D02*
X187005038Y-101861904D01*
X187005038Y-101861904D02*
X187052657Y-101814285D01*
X187052657Y-101814285D02*
X187147895Y-101766666D01*
X187147895Y-101766666D02*
X187338371Y-101719047D01*
X187338371Y-101719047D02*
X187576466Y-101719047D01*
X187576466Y-101719047D02*
X187766942Y-101766666D01*
X187766942Y-101766666D02*
X187862180Y-101814285D01*
X187862180Y-101814285D02*
X187909800Y-101861904D01*
X187909800Y-101861904D02*
X187957419Y-101957142D01*
X187957419Y-101957142D02*
X187957419Y-102052380D01*
X187957419Y-102052380D02*
X187909800Y-102147618D01*
X187909800Y-102147618D02*
X187862180Y-102195237D01*
X187862180Y-102195237D02*
X187766942Y-102242856D01*
X187766942Y-102242856D02*
X187576466Y-102290475D01*
X187576466Y-102290475D02*
X187338371Y-102290475D01*
X187338371Y-102290475D02*
X187147895Y-102242856D01*
X187147895Y-102242856D02*
X187052657Y-102195237D01*
X187052657Y-102195237D02*
X187005038Y-102147618D01*
X187005038Y-102147618D02*
X186957419Y-102052380D01*
X187385990Y-101147618D02*
X187338371Y-101242856D01*
X187338371Y-101242856D02*
X187290752Y-101290475D01*
X187290752Y-101290475D02*
X187195514Y-101338094D01*
X187195514Y-101338094D02*
X187147895Y-101338094D01*
X187147895Y-101338094D02*
X187052657Y-101290475D01*
X187052657Y-101290475D02*
X187005038Y-101242856D01*
X187005038Y-101242856D02*
X186957419Y-101147618D01*
X186957419Y-101147618D02*
X186957419Y-100957142D01*
X186957419Y-100957142D02*
X187005038Y-100861904D01*
X187005038Y-100861904D02*
X187052657Y-100814285D01*
X187052657Y-100814285D02*
X187147895Y-100766666D01*
X187147895Y-100766666D02*
X187195514Y-100766666D01*
X187195514Y-100766666D02*
X187290752Y-100814285D01*
X187290752Y-100814285D02*
X187338371Y-100861904D01*
X187338371Y-100861904D02*
X187385990Y-100957142D01*
X187385990Y-100957142D02*
X187385990Y-101147618D01*
X187385990Y-101147618D02*
X187433609Y-101242856D01*
X187433609Y-101242856D02*
X187481228Y-101290475D01*
X187481228Y-101290475D02*
X187576466Y-101338094D01*
X187576466Y-101338094D02*
X187766942Y-101338094D01*
X187766942Y-101338094D02*
X187862180Y-101290475D01*
X187862180Y-101290475D02*
X187909800Y-101242856D01*
X187909800Y-101242856D02*
X187957419Y-101147618D01*
X187957419Y-101147618D02*
X187957419Y-100957142D01*
X187957419Y-100957142D02*
X187909800Y-100861904D01*
X187909800Y-100861904D02*
X187862180Y-100814285D01*
X187862180Y-100814285D02*
X187766942Y-100766666D01*
X187766942Y-100766666D02*
X187576466Y-100766666D01*
X187576466Y-100766666D02*
X187481228Y-100814285D01*
X187481228Y-100814285D02*
X187433609Y-100861904D01*
X187433609Y-100861904D02*
X187385990Y-100957142D01*
X186957419Y-99861904D02*
X186957419Y-100338094D01*
X186957419Y-100338094D02*
X187433609Y-100385713D01*
X187433609Y-100385713D02*
X187385990Y-100338094D01*
X187385990Y-100338094D02*
X187338371Y-100242856D01*
X187338371Y-100242856D02*
X187338371Y-100004761D01*
X187338371Y-100004761D02*
X187385990Y-99909523D01*
X187385990Y-99909523D02*
X187433609Y-99861904D01*
X187433609Y-99861904D02*
X187528847Y-99814285D01*
X187528847Y-99814285D02*
X187766942Y-99814285D01*
X187766942Y-99814285D02*
X187862180Y-99861904D01*
X187862180Y-99861904D02*
X187909800Y-99909523D01*
X187909800Y-99909523D02*
X187957419Y-100004761D01*
X187957419Y-100004761D02*
X187957419Y-100242856D01*
X187957419Y-100242856D02*
X187909800Y-100338094D01*
X187909800Y-100338094D02*
X187862180Y-100385713D01*
X135292580Y-111035714D02*
X136292580Y-111035714D01*
X136292580Y-111035714D02*
X135578295Y-111369047D01*
X135578295Y-111369047D02*
X136292580Y-111702380D01*
X136292580Y-111702380D02*
X135292580Y-111702380D01*
X135292580Y-112178571D02*
X136292580Y-112178571D01*
X136292580Y-112178571D02*
X136292580Y-112559523D01*
X136292580Y-112559523D02*
X136244961Y-112654761D01*
X136244961Y-112654761D02*
X136197342Y-112702380D01*
X136197342Y-112702380D02*
X136102104Y-112749999D01*
X136102104Y-112749999D02*
X135959247Y-112749999D01*
X135959247Y-112749999D02*
X135864009Y-112702380D01*
X135864009Y-112702380D02*
X135816390Y-112654761D01*
X135816390Y-112654761D02*
X135768771Y-112559523D01*
X135768771Y-112559523D02*
X135768771Y-112178571D01*
X135292580Y-113702380D02*
X135292580Y-113130952D01*
X135292580Y-113416666D02*
X136292580Y-113416666D01*
X136292580Y-113416666D02*
X136149723Y-113321428D01*
X136149723Y-113321428D02*
X136054485Y-113226190D01*
X136054485Y-113226190D02*
X136006866Y-113130952D01*
X136292580Y-114607142D02*
X136292580Y-114130952D01*
X136292580Y-114130952D02*
X135816390Y-114083333D01*
X135816390Y-114083333D02*
X135864009Y-114130952D01*
X135864009Y-114130952D02*
X135911628Y-114226190D01*
X135911628Y-114226190D02*
X135911628Y-114464285D01*
X135911628Y-114464285D02*
X135864009Y-114559523D01*
X135864009Y-114559523D02*
X135816390Y-114607142D01*
X135816390Y-114607142D02*
X135721152Y-114654761D01*
X135721152Y-114654761D02*
X135483057Y-114654761D01*
X135483057Y-114654761D02*
X135387819Y-114607142D01*
X135387819Y-114607142D02*
X135340200Y-114559523D01*
X135340200Y-114559523D02*
X135292580Y-114464285D01*
X135292580Y-114464285D02*
X135292580Y-114226190D01*
X135292580Y-114226190D02*
X135340200Y-114130952D01*
X135340200Y-114130952D02*
X135387819Y-114083333D01*
X135864009Y-115226190D02*
X135911628Y-115130952D01*
X135911628Y-115130952D02*
X135959247Y-115083333D01*
X135959247Y-115083333D02*
X136054485Y-115035714D01*
X136054485Y-115035714D02*
X136102104Y-115035714D01*
X136102104Y-115035714D02*
X136197342Y-115083333D01*
X136197342Y-115083333D02*
X136244961Y-115130952D01*
X136244961Y-115130952D02*
X136292580Y-115226190D01*
X136292580Y-115226190D02*
X136292580Y-115416666D01*
X136292580Y-115416666D02*
X136244961Y-115511904D01*
X136244961Y-115511904D02*
X136197342Y-115559523D01*
X136197342Y-115559523D02*
X136102104Y-115607142D01*
X136102104Y-115607142D02*
X136054485Y-115607142D01*
X136054485Y-115607142D02*
X135959247Y-115559523D01*
X135959247Y-115559523D02*
X135911628Y-115511904D01*
X135911628Y-115511904D02*
X135864009Y-115416666D01*
X135864009Y-115416666D02*
X135864009Y-115226190D01*
X135864009Y-115226190D02*
X135816390Y-115130952D01*
X135816390Y-115130952D02*
X135768771Y-115083333D01*
X135768771Y-115083333D02*
X135673533Y-115035714D01*
X135673533Y-115035714D02*
X135483057Y-115035714D01*
X135483057Y-115035714D02*
X135387819Y-115083333D01*
X135387819Y-115083333D02*
X135340200Y-115130952D01*
X135340200Y-115130952D02*
X135292580Y-115226190D01*
X135292580Y-115226190D02*
X135292580Y-115416666D01*
X135292580Y-115416666D02*
X135340200Y-115511904D01*
X135340200Y-115511904D02*
X135387819Y-115559523D01*
X135387819Y-115559523D02*
X135483057Y-115607142D01*
X135483057Y-115607142D02*
X135673533Y-115607142D01*
X135673533Y-115607142D02*
X135768771Y-115559523D01*
X135768771Y-115559523D02*
X135816390Y-115511904D01*
X135816390Y-115511904D02*
X135864009Y-115416666D01*
X135959247Y-116464285D02*
X135292580Y-116464285D01*
X136340200Y-116226190D02*
X135625914Y-115988095D01*
X135625914Y-115988095D02*
X135625914Y-116607142D01*
X135816390Y-116988095D02*
X135816390Y-117321428D01*
X135292580Y-117464285D02*
X135292580Y-116988095D01*
X135292580Y-116988095D02*
X136292580Y-116988095D01*
X136292580Y-116988095D02*
X136292580Y-117464285D01*
X135292580Y-117892857D02*
X136292580Y-117892857D01*
X136292580Y-117892857D02*
X135292580Y-118464285D01*
X135292580Y-118464285D02*
X136292580Y-118464285D01*
X160816390Y-95285714D02*
X160816390Y-95619047D01*
X160292580Y-95761904D02*
X160292580Y-95285714D01*
X160292580Y-95285714D02*
X161292580Y-95285714D01*
X161292580Y-95285714D02*
X161292580Y-95761904D01*
X160340200Y-96142857D02*
X160292580Y-96285714D01*
X160292580Y-96285714D02*
X160292580Y-96523809D01*
X160292580Y-96523809D02*
X160340200Y-96619047D01*
X160340200Y-96619047D02*
X160387819Y-96666666D01*
X160387819Y-96666666D02*
X160483057Y-96714285D01*
X160483057Y-96714285D02*
X160578295Y-96714285D01*
X160578295Y-96714285D02*
X160673533Y-96666666D01*
X160673533Y-96666666D02*
X160721152Y-96619047D01*
X160721152Y-96619047D02*
X160768771Y-96523809D01*
X160768771Y-96523809D02*
X160816390Y-96333333D01*
X160816390Y-96333333D02*
X160864009Y-96238095D01*
X160864009Y-96238095D02*
X160911628Y-96190476D01*
X160911628Y-96190476D02*
X161006866Y-96142857D01*
X161006866Y-96142857D02*
X161102104Y-96142857D01*
X161102104Y-96142857D02*
X161197342Y-96190476D01*
X161197342Y-96190476D02*
X161244961Y-96238095D01*
X161244961Y-96238095D02*
X161292580Y-96333333D01*
X161292580Y-96333333D02*
X161292580Y-96571428D01*
X161292580Y-96571428D02*
X161244961Y-96714285D01*
X160292580Y-97142857D02*
X161292580Y-97142857D01*
X161292580Y-97142857D02*
X161292580Y-97523809D01*
X161292580Y-97523809D02*
X161244961Y-97619047D01*
X161244961Y-97619047D02*
X161197342Y-97666666D01*
X161197342Y-97666666D02*
X161102104Y-97714285D01*
X161102104Y-97714285D02*
X160959247Y-97714285D01*
X160959247Y-97714285D02*
X160864009Y-97666666D01*
X160864009Y-97666666D02*
X160816390Y-97619047D01*
X160816390Y-97619047D02*
X160768771Y-97523809D01*
X160768771Y-97523809D02*
X160768771Y-97142857D01*
X161292580Y-98047619D02*
X161292580Y-98666666D01*
X161292580Y-98666666D02*
X160911628Y-98333333D01*
X160911628Y-98333333D02*
X160911628Y-98476190D01*
X160911628Y-98476190D02*
X160864009Y-98571428D01*
X160864009Y-98571428D02*
X160816390Y-98619047D01*
X160816390Y-98619047D02*
X160721152Y-98666666D01*
X160721152Y-98666666D02*
X160483057Y-98666666D01*
X160483057Y-98666666D02*
X160387819Y-98619047D01*
X160387819Y-98619047D02*
X160340200Y-98571428D01*
X160340200Y-98571428D02*
X160292580Y-98476190D01*
X160292580Y-98476190D02*
X160292580Y-98190476D01*
X160292580Y-98190476D02*
X160340200Y-98095238D01*
X160340200Y-98095238D02*
X160387819Y-98047619D01*
X161197342Y-99047619D02*
X161244961Y-99095238D01*
X161244961Y-99095238D02*
X161292580Y-99190476D01*
X161292580Y-99190476D02*
X161292580Y-99428571D01*
X161292580Y-99428571D02*
X161244961Y-99523809D01*
X161244961Y-99523809D02*
X161197342Y-99571428D01*
X161197342Y-99571428D02*
X161102104Y-99619047D01*
X161102104Y-99619047D02*
X161006866Y-99619047D01*
X161006866Y-99619047D02*
X160864009Y-99571428D01*
X160864009Y-99571428D02*
X160292580Y-99000000D01*
X160292580Y-99000000D02*
X160292580Y-99619047D01*
X160673533Y-100047619D02*
X160673533Y-100809524D01*
X160340200Y-101238095D02*
X160292580Y-101380952D01*
X160292580Y-101380952D02*
X160292580Y-101619047D01*
X160292580Y-101619047D02*
X160340200Y-101714285D01*
X160340200Y-101714285D02*
X160387819Y-101761904D01*
X160387819Y-101761904D02*
X160483057Y-101809523D01*
X160483057Y-101809523D02*
X160578295Y-101809523D01*
X160578295Y-101809523D02*
X160673533Y-101761904D01*
X160673533Y-101761904D02*
X160721152Y-101714285D01*
X160721152Y-101714285D02*
X160768771Y-101619047D01*
X160768771Y-101619047D02*
X160816390Y-101428571D01*
X160816390Y-101428571D02*
X160864009Y-101333333D01*
X160864009Y-101333333D02*
X160911628Y-101285714D01*
X160911628Y-101285714D02*
X161006866Y-101238095D01*
X161006866Y-101238095D02*
X161102104Y-101238095D01*
X161102104Y-101238095D02*
X161197342Y-101285714D01*
X161197342Y-101285714D02*
X161244961Y-101333333D01*
X161244961Y-101333333D02*
X161292580Y-101428571D01*
X161292580Y-101428571D02*
X161292580Y-101666666D01*
X161292580Y-101666666D02*
X161244961Y-101809523D01*
X161292580Y-102142857D02*
X161292580Y-102761904D01*
X161292580Y-102761904D02*
X160911628Y-102428571D01*
X160911628Y-102428571D02*
X160911628Y-102571428D01*
X160911628Y-102571428D02*
X160864009Y-102666666D01*
X160864009Y-102666666D02*
X160816390Y-102714285D01*
X160816390Y-102714285D02*
X160721152Y-102761904D01*
X160721152Y-102761904D02*
X160483057Y-102761904D01*
X160483057Y-102761904D02*
X160387819Y-102714285D01*
X160387819Y-102714285D02*
X160340200Y-102666666D01*
X160340200Y-102666666D02*
X160292580Y-102571428D01*
X160292580Y-102571428D02*
X160292580Y-102285714D01*
X160292580Y-102285714D02*
X160340200Y-102190476D01*
X160340200Y-102190476D02*
X160387819Y-102142857D01*
D11*
G36*
X151026413Y-69372500D02*
G01*
X151026413Y-67830839D01*
X151223700Y-67830839D01*
X151786070Y-68802437D01*
X151951758Y-69120075D01*
X151962291Y-69120075D01*
X151943331Y-68878274D01*
X151934997Y-68632169D01*
X151934997Y-67830839D01*
X152119644Y-67830839D01*
X152119644Y-69372500D01*
X151920342Y-69372500D01*
X151360080Y-68398703D01*
X151194300Y-68083264D01*
X151185873Y-68083264D01*
X151200528Y-68319935D01*
X151208954Y-68562834D01*
X151208954Y-69372500D01*
X151026413Y-69372500D01*
G37*
G36*
X152344134Y-69375430D02*
G01*
X152864646Y-67830839D01*
X153080801Y-67830839D01*
X153603603Y-69375430D01*
X153397798Y-69375430D01*
X153129161Y-68511635D01*
X153049385Y-68251425D01*
X152973823Y-67989108D01*
X152965396Y-67989108D01*
X152890933Y-68251425D01*
X152812256Y-68511635D01*
X152539406Y-69375430D01*
X152344134Y-69375430D01*
G37*
G36*
X152614969Y-68903553D02*
G01*
X152614969Y-68751146D01*
X153324250Y-68751146D01*
X153324250Y-68903553D01*
X152614969Y-68903553D01*
G37*
G36*
X154407258Y-67829901D02*
G01*
X154499639Y-67843938D01*
X154581246Y-67866193D01*
X154657362Y-67900276D01*
X154720210Y-67945497D01*
X154771572Y-68002297D01*
X154808586Y-68069042D01*
X154832371Y-68152787D01*
X154840998Y-68257836D01*
X154832668Y-68358502D01*
X154809172Y-68443022D01*
X154771755Y-68514383D01*
X154720213Y-68576454D01*
X154657392Y-68626922D01*
X154581795Y-68666424D01*
X154499955Y-68693286D01*
X154493754Y-68694417D01*
X154885053Y-69369569D01*
X154664868Y-69369569D01*
X154292296Y-68715975D01*
X154016312Y-68715975D01*
X154016312Y-69369569D01*
X153821040Y-69369569D01*
X153821040Y-68557705D01*
X154016312Y-68557705D01*
X154273500Y-68557705D01*
X154391444Y-68548184D01*
X154481413Y-68522451D01*
X154549555Y-68483242D01*
X154590560Y-68442563D01*
X154620273Y-68392813D01*
X154639018Y-68332095D01*
X154645726Y-68257653D01*
X154638788Y-68183030D01*
X154619777Y-68125088D01*
X154590143Y-68080152D01*
X154549555Y-68045803D01*
X154482484Y-68014100D01*
X154392546Y-67992844D01*
X154273500Y-67984895D01*
X154016312Y-67984895D01*
X154016312Y-68557705D01*
X153821040Y-68557705D01*
X153821040Y-67824977D01*
X154302626Y-67824977D01*
X154407258Y-67829901D01*
G37*
G36*
X154937993Y-69375430D02*
G01*
X155458505Y-67830839D01*
X155674660Y-67830839D01*
X156197462Y-69375430D01*
X155991657Y-69375430D01*
X155723020Y-68511635D01*
X155643244Y-68251425D01*
X155567682Y-67989108D01*
X155559255Y-67989108D01*
X155484792Y-68251425D01*
X155406115Y-68511635D01*
X155133265Y-69375430D01*
X154937993Y-69375430D01*
G37*
G36*
X155208828Y-68903553D02*
G01*
X155208828Y-68751146D01*
X155918109Y-68751146D01*
X155918109Y-68903553D01*
X155208828Y-68903553D01*
G37*
G36*
X156414899Y-69372500D02*
G01*
X156414899Y-67830839D01*
X156612186Y-67830839D01*
X157174555Y-68802437D01*
X157340244Y-69120075D01*
X157350777Y-69120075D01*
X157331817Y-68878274D01*
X157323482Y-68632169D01*
X157323482Y-67830839D01*
X157508130Y-67830839D01*
X157508130Y-69372500D01*
X157308828Y-69372500D01*
X156748565Y-68398703D01*
X156582785Y-68083264D01*
X156574359Y-68083264D01*
X156589014Y-68319935D01*
X156597440Y-68562834D01*
X156597440Y-69372500D01*
X156414899Y-69372500D01*
G37*
G36*
X158538346Y-69401809D02*
G01*
X158405585Y-69390869D01*
X158286713Y-69359160D01*
X158179218Y-69307287D01*
X158106233Y-69255456D01*
X158041344Y-69193287D01*
X157984051Y-69119955D01*
X157934212Y-69034254D01*
X157886192Y-68912102D01*
X157855887Y-68770410D01*
X157845185Y-68605607D01*
X157851353Y-68481788D01*
X157869086Y-68370607D01*
X157897484Y-68270567D01*
X157938081Y-68175076D01*
X157987353Y-68091865D01*
X158045220Y-68019608D01*
X158112611Y-67956165D01*
X158186760Y-67903836D01*
X158268336Y-67862071D01*
X158355029Y-67832039D01*
X158448238Y-67813677D01*
X158549062Y-67807391D01*
X158655261Y-67814714D01*
X158743602Y-67835172D01*
X158817150Y-67867200D01*
X158916753Y-67931382D01*
X158990989Y-67996252D01*
X158887583Y-68122098D01*
X158824324Y-68066330D01*
X158750196Y-68019333D01*
X158696179Y-67996809D01*
X158632172Y-67982485D01*
X158556207Y-67977384D01*
X158455048Y-67986175D01*
X158365592Y-68011563D01*
X158285647Y-68053039D01*
X158215545Y-68109656D01*
X158156281Y-68180792D01*
X158107410Y-68268461D01*
X158073462Y-68363575D01*
X158052038Y-68473070D01*
X158044487Y-68599379D01*
X158051705Y-68728711D01*
X158072117Y-68840320D01*
X158104296Y-68936709D01*
X158151425Y-69025642D01*
X158209677Y-69097749D01*
X158279510Y-69155154D01*
X158359699Y-69196898D01*
X158451864Y-69222760D01*
X158558680Y-69231816D01*
X158639207Y-69225681D01*
X158715117Y-69207544D01*
X158784228Y-69177817D01*
X158835834Y-69140957D01*
X158835834Y-68735209D01*
X158508396Y-68735209D01*
X158508396Y-68575291D01*
X159011689Y-68575291D01*
X159011689Y-69223389D01*
X158958105Y-69270661D01*
X158892693Y-69313409D01*
X158813761Y-69351434D01*
X158730715Y-69378915D01*
X158639333Y-69395925D01*
X158538346Y-69401809D01*
G37*
G36*
X159164371Y-69375430D02*
G01*
X159684883Y-67830839D01*
X159901038Y-67830839D01*
X160423840Y-69375430D01*
X160218035Y-69375430D01*
X159949398Y-68511635D01*
X159869622Y-68251425D01*
X159794060Y-67989108D01*
X159785633Y-67989108D01*
X159711170Y-68251425D01*
X159632493Y-68511635D01*
X159359643Y-69375430D01*
X159164371Y-69375430D01*
G37*
G36*
X159435206Y-68903553D02*
G01*
X159435206Y-68751146D01*
X160144487Y-68751146D01*
X160144487Y-68903553D01*
X159435206Y-68903553D01*
G37*
G36*
X161111689Y-69372500D02*
G01*
X161111689Y-67830839D01*
X161344605Y-67830839D01*
X161638338Y-68655250D01*
X161694941Y-68815076D01*
X161749529Y-68977009D01*
X161757956Y-68977009D01*
X161813551Y-68815076D01*
X161864934Y-68655250D01*
X162158666Y-67830839D01*
X162392498Y-67830839D01*
X162392498Y-69372500D01*
X162211148Y-69372500D01*
X162211148Y-68518596D01*
X162215728Y-68372508D01*
X162227268Y-68212590D01*
X162234229Y-68064304D01*
X162225894Y-68064304D01*
X162102704Y-68415556D01*
X161814559Y-69216795D01*
X161684500Y-69216795D01*
X161392874Y-68415556D01*
X161269042Y-68064304D01*
X161260708Y-68064304D01*
X161274263Y-68212590D01*
X161282598Y-68372508D01*
X161285804Y-68518596D01*
X161285804Y-69372500D01*
X161111689Y-69372500D01*
G37*
G36*
X163423598Y-67840854D02*
G01*
X163547737Y-67868574D01*
X163623200Y-67899633D01*
X163684451Y-67939435D01*
X163733575Y-67987917D01*
X163769750Y-68045800D01*
X163792600Y-68117193D01*
X163800803Y-68205629D01*
X163794136Y-68279466D01*
X163774333Y-68349153D01*
X163741604Y-68412708D01*
X163696938Y-68466389D01*
X163641241Y-68508757D01*
X163574023Y-68538654D01*
X163574023Y-68549187D01*
X163661567Y-68574165D01*
X163736195Y-68613505D01*
X163799978Y-68667431D01*
X163848071Y-68734286D01*
X163878032Y-68816559D01*
X163888730Y-68918574D01*
X163879820Y-69017510D01*
X163854613Y-69100596D01*
X163814175Y-69170908D01*
X163759270Y-69231311D01*
X163691348Y-69281548D01*
X163608461Y-69321850D01*
X163519634Y-69349242D01*
X163419095Y-69366465D01*
X163305112Y-69372500D01*
X162816016Y-69372500D01*
X162816016Y-69214230D01*
X163011288Y-69214230D01*
X163278276Y-69214230D01*
X163407376Y-69204848D01*
X163507545Y-69179395D01*
X163584739Y-69140683D01*
X163632427Y-69099540D01*
X163666445Y-69049063D01*
X163687704Y-68987367D01*
X163695290Y-68911430D01*
X163687904Y-68841120D01*
X163667190Y-68784232D01*
X163633896Y-68737839D01*
X163586846Y-68700221D01*
X163511426Y-68665690D01*
X163410812Y-68642550D01*
X163278276Y-68633909D01*
X163011288Y-68633909D01*
X163011288Y-69214230D01*
X162816016Y-69214230D01*
X162816016Y-68481502D01*
X163011288Y-68481502D01*
X163238434Y-68481502D01*
X163369674Y-68472309D01*
X163460646Y-68448606D01*
X163521816Y-68414549D01*
X163569128Y-68364639D01*
X163597449Y-68304351D01*
X163607362Y-68230359D01*
X163600904Y-68163452D01*
X163583127Y-68111172D01*
X163555223Y-68070291D01*
X163516687Y-68038750D01*
X163453489Y-68010172D01*
X163365874Y-67990649D01*
X163246768Y-67983246D01*
X163011288Y-67983246D01*
X163011288Y-68481502D01*
X162816016Y-68481502D01*
X162816016Y-67830839D01*
X163271681Y-67830839D01*
X163423598Y-67840854D01*
G37*
G36*
X165251640Y-67829901D02*
G01*
X165344022Y-67843938D01*
X165425628Y-67866193D01*
X165501745Y-67900276D01*
X165564593Y-67945497D01*
X165615954Y-68002297D01*
X165652968Y-68069042D01*
X165676753Y-68152787D01*
X165685381Y-68257836D01*
X165677050Y-68358502D01*
X165653555Y-68443022D01*
X165616138Y-68514383D01*
X165564596Y-68576454D01*
X165501774Y-68626922D01*
X165426178Y-68666424D01*
X165344337Y-68693286D01*
X165338136Y-68694417D01*
X165729436Y-69369569D01*
X165509251Y-69369569D01*
X165136679Y-68715975D01*
X164860695Y-68715975D01*
X164860695Y-69369569D01*
X164665422Y-69369569D01*
X164665422Y-68557705D01*
X164860695Y-68557705D01*
X165117882Y-68557705D01*
X165235826Y-68548184D01*
X165325795Y-68522451D01*
X165393938Y-68483242D01*
X165434943Y-68442563D01*
X165464655Y-68392813D01*
X165483401Y-68332095D01*
X165490108Y-68257653D01*
X165483171Y-68183030D01*
X165464159Y-68125088D01*
X165434526Y-68080152D01*
X165393938Y-68045803D01*
X165326867Y-68014100D01*
X165236928Y-67992844D01*
X165117882Y-67984895D01*
X164860695Y-67984895D01*
X164860695Y-68557705D01*
X164665422Y-68557705D01*
X164665422Y-67824977D01*
X165147008Y-67824977D01*
X165251640Y-67829901D01*
G37*
G36*
X166475811Y-68207921D02*
G01*
X166557656Y-68229987D01*
X166627669Y-68265255D01*
X166688970Y-68314144D01*
X166740323Y-68375544D01*
X166782184Y-68451185D01*
X166811117Y-68533336D01*
X166829349Y-68627526D01*
X166835764Y-68735758D01*
X166833566Y-68794560D01*
X166827246Y-68844935D01*
X166062003Y-68844935D01*
X166067861Y-68926010D01*
X166084599Y-68996775D01*
X166111462Y-69058892D01*
X166148631Y-69115437D01*
X166192367Y-69161935D01*
X166243079Y-69199392D01*
X166299744Y-69226757D01*
X166363132Y-69243572D01*
X166434687Y-69249401D01*
X166516317Y-69243061D01*
X166587278Y-69224946D01*
X166654344Y-69196245D01*
X166721001Y-69157902D01*
X166789053Y-69286953D01*
X166711871Y-69330741D01*
X166622998Y-69368378D01*
X166526899Y-69393108D01*
X166414995Y-69401809D01*
X166314668Y-69393619D01*
X166222726Y-69369655D01*
X166137566Y-69330093D01*
X166061126Y-69275829D01*
X165995854Y-69207832D01*
X165941011Y-69124562D01*
X165901832Y-69032697D01*
X165877230Y-68926457D01*
X165868563Y-68803078D01*
X165873500Y-68710113D01*
X166057790Y-68710113D01*
X166665771Y-68710113D01*
X166656305Y-68596571D01*
X166630703Y-68510066D01*
X166591583Y-68444590D01*
X166551279Y-68404713D01*
X166504216Y-68376307D01*
X166449048Y-68358727D01*
X166383762Y-68352541D01*
X166306903Y-68363047D01*
X166234286Y-68394856D01*
X166170839Y-68445344D01*
X166117232Y-68515482D01*
X166079834Y-68600159D01*
X166057790Y-68710113D01*
X165873500Y-68710113D01*
X165873526Y-68709631D01*
X165887780Y-68626085D01*
X165910603Y-68551202D01*
X165960964Y-68447241D01*
X166025183Y-68361426D01*
X166103309Y-68291385D01*
X166190230Y-68241258D01*
X166284395Y-68210299D01*
X166379549Y-68200134D01*
X166475811Y-68207921D01*
G37*
G36*
X167365527Y-69372500D02*
G01*
X166953917Y-68229443D01*
X167153402Y-68229443D01*
X167367634Y-68879923D01*
X167421123Y-69049366D01*
X167472597Y-69216703D01*
X167483130Y-69216703D01*
X167536619Y-69049366D01*
X167588093Y-68879923D01*
X167804431Y-68229443D01*
X167993384Y-68229443D01*
X167590200Y-69372500D01*
X167365527Y-69372500D01*
G37*
G36*
X168226483Y-69401809D02*
G01*
X168174220Y-69391600D01*
X168129397Y-69360684D01*
X168099135Y-69314625D01*
X168088730Y-69256270D01*
X168093568Y-69213025D01*
X168107220Y-69177812D01*
X168129397Y-69148834D01*
X168174142Y-69118707D01*
X168226483Y-69108717D01*
X168278809Y-69118710D01*
X168323478Y-69148834D01*
X168345708Y-69177819D01*
X168359389Y-69213032D01*
X168364236Y-69256270D01*
X168353811Y-69314618D01*
X168323478Y-69360684D01*
X168278731Y-69391598D01*
X168226483Y-69401809D01*
G37*
G36*
X168707061Y-69372500D02*
G01*
X168707061Y-69212856D01*
X169049704Y-69212856D01*
X169049704Y-68108268D01*
X168773648Y-68108268D01*
X168773648Y-67986452D01*
X168873370Y-67964659D01*
X168953899Y-67940290D01*
X169028286Y-67909940D01*
X169093942Y-67875169D01*
X169241495Y-67875169D01*
X169241495Y-69212856D01*
X169551256Y-69212856D01*
X169551256Y-69372500D01*
X168707061Y-69372500D01*
G37*
D12*
X101706819Y-87261904D02*
X101706819Y-86690476D01*
X102706819Y-86976190D02*
X101706819Y-86976190D01*
X102706819Y-86357142D02*
X101706819Y-86357142D01*
X101706819Y-86357142D02*
X101706819Y-85976190D01*
X101706819Y-85976190D02*
X101754438Y-85880952D01*
X101754438Y-85880952D02*
X101802057Y-85833333D01*
X101802057Y-85833333D02*
X101897295Y-85785714D01*
X101897295Y-85785714D02*
X102040152Y-85785714D01*
X102040152Y-85785714D02*
X102135390Y-85833333D01*
X102135390Y-85833333D02*
X102183009Y-85880952D01*
X102183009Y-85880952D02*
X102230628Y-85976190D01*
X102230628Y-85976190D02*
X102230628Y-86357142D01*
X102040152Y-84928571D02*
X102706819Y-84928571D01*
X101659200Y-85166666D02*
X102373485Y-85404761D01*
X102373485Y-85404761D02*
X102373485Y-84785714D01*
X151870833Y-122429580D02*
X151823214Y-122477200D01*
X151823214Y-122477200D02*
X151680357Y-122524819D01*
X151680357Y-122524819D02*
X151585119Y-122524819D01*
X151585119Y-122524819D02*
X151442262Y-122477200D01*
X151442262Y-122477200D02*
X151347024Y-122381961D01*
X151347024Y-122381961D02*
X151299405Y-122286723D01*
X151299405Y-122286723D02*
X151251786Y-122096247D01*
X151251786Y-122096247D02*
X151251786Y-121953390D01*
X151251786Y-121953390D02*
X151299405Y-121762914D01*
X151299405Y-121762914D02*
X151347024Y-121667676D01*
X151347024Y-121667676D02*
X151442262Y-121572438D01*
X151442262Y-121572438D02*
X151585119Y-121524819D01*
X151585119Y-121524819D02*
X151680357Y-121524819D01*
X151680357Y-121524819D02*
X151823214Y-121572438D01*
X151823214Y-121572438D02*
X151870833Y-121620057D01*
X152442262Y-121953390D02*
X152347024Y-121905771D01*
X152347024Y-121905771D02*
X152299405Y-121858152D01*
X152299405Y-121858152D02*
X152251786Y-121762914D01*
X152251786Y-121762914D02*
X152251786Y-121715295D01*
X152251786Y-121715295D02*
X152299405Y-121620057D01*
X152299405Y-121620057D02*
X152347024Y-121572438D01*
X152347024Y-121572438D02*
X152442262Y-121524819D01*
X152442262Y-121524819D02*
X152632738Y-121524819D01*
X152632738Y-121524819D02*
X152727976Y-121572438D01*
X152727976Y-121572438D02*
X152775595Y-121620057D01*
X152775595Y-121620057D02*
X152823214Y-121715295D01*
X152823214Y-121715295D02*
X152823214Y-121762914D01*
X152823214Y-121762914D02*
X152775595Y-121858152D01*
X152775595Y-121858152D02*
X152727976Y-121905771D01*
X152727976Y-121905771D02*
X152632738Y-121953390D01*
X152632738Y-121953390D02*
X152442262Y-121953390D01*
X152442262Y-121953390D02*
X152347024Y-122001009D01*
X152347024Y-122001009D02*
X152299405Y-122048628D01*
X152299405Y-122048628D02*
X152251786Y-122143866D01*
X152251786Y-122143866D02*
X152251786Y-122334342D01*
X152251786Y-122334342D02*
X152299405Y-122429580D01*
X152299405Y-122429580D02*
X152347024Y-122477200D01*
X152347024Y-122477200D02*
X152442262Y-122524819D01*
X152442262Y-122524819D02*
X152632738Y-122524819D01*
X152632738Y-122524819D02*
X152727976Y-122477200D01*
X152727976Y-122477200D02*
X152775595Y-122429580D01*
X152775595Y-122429580D02*
X152823214Y-122334342D01*
X152823214Y-122334342D02*
X152823214Y-122143866D01*
X152823214Y-122143866D02*
X152775595Y-122048628D01*
X152775595Y-122048628D02*
X152727976Y-122001009D01*
X152727976Y-122001009D02*
X152632738Y-121953390D01*
D10*
X100182194Y-99809523D02*
X100896479Y-99809523D01*
X100896479Y-99809523D02*
X101039336Y-99857142D01*
X101039336Y-99857142D02*
X101134575Y-99952380D01*
X101134575Y-99952380D02*
X101182194Y-100095237D01*
X101182194Y-100095237D02*
X101182194Y-100190475D01*
X101182194Y-98809523D02*
X101182194Y-99380951D01*
X101182194Y-99095237D02*
X100182194Y-99095237D01*
X100182194Y-99095237D02*
X100325051Y-99190475D01*
X100325051Y-99190475D02*
X100420289Y-99285713D01*
X100420289Y-99285713D02*
X100467908Y-99380951D01*
X100515527Y-97952380D02*
X101182194Y-97952380D01*
X100134575Y-98190475D02*
X100848860Y-98428570D01*
X100848860Y-98428570D02*
X100848860Y-97809523D01*
D12*
X102954819Y-81333333D02*
X103669104Y-81333333D01*
X103669104Y-81333333D02*
X103811961Y-81380952D01*
X103811961Y-81380952D02*
X103907200Y-81476190D01*
X103907200Y-81476190D02*
X103954819Y-81619047D01*
X103954819Y-81619047D02*
X103954819Y-81714285D01*
X103288152Y-80428571D02*
X103954819Y-80428571D01*
X102907200Y-80666666D02*
X103621485Y-80904761D01*
X103621485Y-80904761D02*
X103621485Y-80285714D01*
X117761905Y-94204819D02*
X117761905Y-93204819D01*
X117761905Y-93204819D02*
X118000000Y-93204819D01*
X118000000Y-93204819D02*
X118142857Y-93252438D01*
X118142857Y-93252438D02*
X118238095Y-93347676D01*
X118238095Y-93347676D02*
X118285714Y-93442914D01*
X118285714Y-93442914D02*
X118333333Y-93633390D01*
X118333333Y-93633390D02*
X118333333Y-93776247D01*
X118333333Y-93776247D02*
X118285714Y-93966723D01*
X118285714Y-93966723D02*
X118238095Y-94061961D01*
X118238095Y-94061961D02*
X118142857Y-94157200D01*
X118142857Y-94157200D02*
X118000000Y-94204819D01*
X118000000Y-94204819D02*
X117761905Y-94204819D01*
X119190476Y-93538152D02*
X119190476Y-94204819D01*
X118952381Y-93157200D02*
X118714286Y-93871485D01*
X118714286Y-93871485D02*
X119333333Y-93871485D01*
X159857142Y-61109580D02*
X159809523Y-61157200D01*
X159809523Y-61157200D02*
X159666666Y-61204819D01*
X159666666Y-61204819D02*
X159571428Y-61204819D01*
X159571428Y-61204819D02*
X159428571Y-61157200D01*
X159428571Y-61157200D02*
X159333333Y-61061961D01*
X159333333Y-61061961D02*
X159285714Y-60966723D01*
X159285714Y-60966723D02*
X159238095Y-60776247D01*
X159238095Y-60776247D02*
X159238095Y-60633390D01*
X159238095Y-60633390D02*
X159285714Y-60442914D01*
X159285714Y-60442914D02*
X159333333Y-60347676D01*
X159333333Y-60347676D02*
X159428571Y-60252438D01*
X159428571Y-60252438D02*
X159571428Y-60204819D01*
X159571428Y-60204819D02*
X159666666Y-60204819D01*
X159666666Y-60204819D02*
X159809523Y-60252438D01*
X159809523Y-60252438D02*
X159857142Y-60300057D01*
X160809523Y-61204819D02*
X160238095Y-61204819D01*
X160523809Y-61204819D02*
X160523809Y-60204819D01*
X160523809Y-60204819D02*
X160428571Y-60347676D01*
X160428571Y-60347676D02*
X160333333Y-60442914D01*
X160333333Y-60442914D02*
X160238095Y-60490533D01*
X161190476Y-60300057D02*
X161238095Y-60252438D01*
X161238095Y-60252438D02*
X161333333Y-60204819D01*
X161333333Y-60204819D02*
X161571428Y-60204819D01*
X161571428Y-60204819D02*
X161666666Y-60252438D01*
X161666666Y-60252438D02*
X161714285Y-60300057D01*
X161714285Y-60300057D02*
X161761904Y-60395295D01*
X161761904Y-60395295D02*
X161761904Y-60490533D01*
X161761904Y-60490533D02*
X161714285Y-60633390D01*
X161714285Y-60633390D02*
X161142857Y-61204819D01*
X161142857Y-61204819D02*
X161761904Y-61204819D01*
X134761905Y-131204819D02*
X134761905Y-130204819D01*
X134761905Y-130204819D02*
X135000000Y-130204819D01*
X135000000Y-130204819D02*
X135142857Y-130252438D01*
X135142857Y-130252438D02*
X135238095Y-130347676D01*
X135238095Y-130347676D02*
X135285714Y-130442914D01*
X135285714Y-130442914D02*
X135333333Y-130633390D01*
X135333333Y-130633390D02*
X135333333Y-130776247D01*
X135333333Y-130776247D02*
X135285714Y-130966723D01*
X135285714Y-130966723D02*
X135238095Y-131061961D01*
X135238095Y-131061961D02*
X135142857Y-131157200D01*
X135142857Y-131157200D02*
X135000000Y-131204819D01*
X135000000Y-131204819D02*
X134761905Y-131204819D01*
X135714286Y-130300057D02*
X135761905Y-130252438D01*
X135761905Y-130252438D02*
X135857143Y-130204819D01*
X135857143Y-130204819D02*
X136095238Y-130204819D01*
X136095238Y-130204819D02*
X136190476Y-130252438D01*
X136190476Y-130252438D02*
X136238095Y-130300057D01*
X136238095Y-130300057D02*
X136285714Y-130395295D01*
X136285714Y-130395295D02*
X136285714Y-130490533D01*
X136285714Y-130490533D02*
X136238095Y-130633390D01*
X136238095Y-130633390D02*
X135666667Y-131204819D01*
X135666667Y-131204819D02*
X136285714Y-131204819D01*
X147016666Y-69684819D02*
X147016666Y-70399104D01*
X147016666Y-70399104D02*
X146969047Y-70541961D01*
X146969047Y-70541961D02*
X146873809Y-70637200D01*
X146873809Y-70637200D02*
X146730952Y-70684819D01*
X146730952Y-70684819D02*
X146635714Y-70684819D01*
X148016666Y-70684819D02*
X147445238Y-70684819D01*
X147730952Y-70684819D02*
X147730952Y-69684819D01*
X147730952Y-69684819D02*
X147635714Y-69827676D01*
X147635714Y-69827676D02*
X147540476Y-69922914D01*
X147540476Y-69922914D02*
X147445238Y-69970533D01*
X102934819Y-132833333D02*
X103649104Y-132833333D01*
X103649104Y-132833333D02*
X103791961Y-132880952D01*
X103791961Y-132880952D02*
X103887200Y-132976190D01*
X103887200Y-132976190D02*
X103934819Y-133119047D01*
X103934819Y-133119047D02*
X103934819Y-133214285D01*
X102934819Y-131928571D02*
X102934819Y-132119047D01*
X102934819Y-132119047D02*
X102982438Y-132214285D01*
X102982438Y-132214285D02*
X103030057Y-132261904D01*
X103030057Y-132261904D02*
X103172914Y-132357142D01*
X103172914Y-132357142D02*
X103363390Y-132404761D01*
X103363390Y-132404761D02*
X103744342Y-132404761D01*
X103744342Y-132404761D02*
X103839580Y-132357142D01*
X103839580Y-132357142D02*
X103887200Y-132309523D01*
X103887200Y-132309523D02*
X103934819Y-132214285D01*
X103934819Y-132214285D02*
X103934819Y-132023809D01*
X103934819Y-132023809D02*
X103887200Y-131928571D01*
X103887200Y-131928571D02*
X103839580Y-131880952D01*
X103839580Y-131880952D02*
X103744342Y-131833333D01*
X103744342Y-131833333D02*
X103506247Y-131833333D01*
X103506247Y-131833333D02*
X103411009Y-131880952D01*
X103411009Y-131880952D02*
X103363390Y-131928571D01*
X103363390Y-131928571D02*
X103315771Y-132023809D01*
X103315771Y-132023809D02*
X103315771Y-132214285D01*
X103315771Y-132214285D02*
X103363390Y-132309523D01*
X103363390Y-132309523D02*
X103411009Y-132357142D01*
X103411009Y-132357142D02*
X103506247Y-132404761D01*
X141474819Y-126379523D02*
X142189104Y-126379523D01*
X142189104Y-126379523D02*
X142331961Y-126427142D01*
X142331961Y-126427142D02*
X142427200Y-126522380D01*
X142427200Y-126522380D02*
X142474819Y-126665237D01*
X142474819Y-126665237D02*
X142474819Y-126760475D01*
X142474819Y-125379523D02*
X142474819Y-125950951D01*
X142474819Y-125665237D02*
X141474819Y-125665237D01*
X141474819Y-125665237D02*
X141617676Y-125760475D01*
X141617676Y-125760475D02*
X141712914Y-125855713D01*
X141712914Y-125855713D02*
X141760533Y-125950951D01*
X142474819Y-124427142D02*
X142474819Y-124998570D01*
X142474819Y-124712856D02*
X141474819Y-124712856D01*
X141474819Y-124712856D02*
X141617676Y-124808094D01*
X141617676Y-124808094D02*
X141712914Y-124903332D01*
X141712914Y-124903332D02*
X141760533Y-124998570D01*
X102934819Y-117593333D02*
X103649104Y-117593333D01*
X103649104Y-117593333D02*
X103791961Y-117640952D01*
X103791961Y-117640952D02*
X103887200Y-117736190D01*
X103887200Y-117736190D02*
X103934819Y-117879047D01*
X103934819Y-117879047D02*
X103934819Y-117974285D01*
X102934819Y-117212380D02*
X102934819Y-116545714D01*
X102934819Y-116545714D02*
X103934819Y-116974285D01*
X165684819Y-58833333D02*
X166399104Y-58833333D01*
X166399104Y-58833333D02*
X166541961Y-58880952D01*
X166541961Y-58880952D02*
X166637200Y-58976190D01*
X166637200Y-58976190D02*
X166684819Y-59119047D01*
X166684819Y-59119047D02*
X166684819Y-59214285D01*
X166113390Y-58214285D02*
X166065771Y-58309523D01*
X166065771Y-58309523D02*
X166018152Y-58357142D01*
X166018152Y-58357142D02*
X165922914Y-58404761D01*
X165922914Y-58404761D02*
X165875295Y-58404761D01*
X165875295Y-58404761D02*
X165780057Y-58357142D01*
X165780057Y-58357142D02*
X165732438Y-58309523D01*
X165732438Y-58309523D02*
X165684819Y-58214285D01*
X165684819Y-58214285D02*
X165684819Y-58023809D01*
X165684819Y-58023809D02*
X165732438Y-57928571D01*
X165732438Y-57928571D02*
X165780057Y-57880952D01*
X165780057Y-57880952D02*
X165875295Y-57833333D01*
X165875295Y-57833333D02*
X165922914Y-57833333D01*
X165922914Y-57833333D02*
X166018152Y-57880952D01*
X166018152Y-57880952D02*
X166065771Y-57928571D01*
X166065771Y-57928571D02*
X166113390Y-58023809D01*
X166113390Y-58023809D02*
X166113390Y-58214285D01*
X166113390Y-58214285D02*
X166161009Y-58309523D01*
X166161009Y-58309523D02*
X166208628Y-58357142D01*
X166208628Y-58357142D02*
X166303866Y-58404761D01*
X166303866Y-58404761D02*
X166494342Y-58404761D01*
X166494342Y-58404761D02*
X166589580Y-58357142D01*
X166589580Y-58357142D02*
X166637200Y-58309523D01*
X166637200Y-58309523D02*
X166684819Y-58214285D01*
X166684819Y-58214285D02*
X166684819Y-58023809D01*
X166684819Y-58023809D02*
X166637200Y-57928571D01*
X166637200Y-57928571D02*
X166589580Y-57880952D01*
X166589580Y-57880952D02*
X166494342Y-57833333D01*
X166494342Y-57833333D02*
X166303866Y-57833333D01*
X166303866Y-57833333D02*
X166208628Y-57880952D01*
X166208628Y-57880952D02*
X166161009Y-57928571D01*
X166161009Y-57928571D02*
X166113390Y-58023809D01*
X150609580Y-134166666D02*
X150657200Y-134214285D01*
X150657200Y-134214285D02*
X150704819Y-134357142D01*
X150704819Y-134357142D02*
X150704819Y-134452380D01*
X150704819Y-134452380D02*
X150657200Y-134595237D01*
X150657200Y-134595237D02*
X150561961Y-134690475D01*
X150561961Y-134690475D02*
X150466723Y-134738094D01*
X150466723Y-134738094D02*
X150276247Y-134785713D01*
X150276247Y-134785713D02*
X150133390Y-134785713D01*
X150133390Y-134785713D02*
X149942914Y-134738094D01*
X149942914Y-134738094D02*
X149847676Y-134690475D01*
X149847676Y-134690475D02*
X149752438Y-134595237D01*
X149752438Y-134595237D02*
X149704819Y-134452380D01*
X149704819Y-134452380D02*
X149704819Y-134357142D01*
X149704819Y-134357142D02*
X149752438Y-134214285D01*
X149752438Y-134214285D02*
X149800057Y-134166666D01*
X149704819Y-133833332D02*
X149704819Y-133166666D01*
X149704819Y-133166666D02*
X150704819Y-133595237D01*
X126333333Y-95609580D02*
X126285714Y-95657200D01*
X126285714Y-95657200D02*
X126142857Y-95704819D01*
X126142857Y-95704819D02*
X126047619Y-95704819D01*
X126047619Y-95704819D02*
X125904762Y-95657200D01*
X125904762Y-95657200D02*
X125809524Y-95561961D01*
X125809524Y-95561961D02*
X125761905Y-95466723D01*
X125761905Y-95466723D02*
X125714286Y-95276247D01*
X125714286Y-95276247D02*
X125714286Y-95133390D01*
X125714286Y-95133390D02*
X125761905Y-94942914D01*
X125761905Y-94942914D02*
X125809524Y-94847676D01*
X125809524Y-94847676D02*
X125904762Y-94752438D01*
X125904762Y-94752438D02*
X126047619Y-94704819D01*
X126047619Y-94704819D02*
X126142857Y-94704819D01*
X126142857Y-94704819D02*
X126285714Y-94752438D01*
X126285714Y-94752438D02*
X126333333Y-94800057D01*
X126714286Y-94800057D02*
X126761905Y-94752438D01*
X126761905Y-94752438D02*
X126857143Y-94704819D01*
X126857143Y-94704819D02*
X127095238Y-94704819D01*
X127095238Y-94704819D02*
X127190476Y-94752438D01*
X127190476Y-94752438D02*
X127238095Y-94800057D01*
X127238095Y-94800057D02*
X127285714Y-94895295D01*
X127285714Y-94895295D02*
X127285714Y-94990533D01*
X127285714Y-94990533D02*
X127238095Y-95133390D01*
X127238095Y-95133390D02*
X126666667Y-95704819D01*
X126666667Y-95704819D02*
X127285714Y-95704819D01*
X139859580Y-98166666D02*
X139907200Y-98214285D01*
X139907200Y-98214285D02*
X139954819Y-98357142D01*
X139954819Y-98357142D02*
X139954819Y-98452380D01*
X139954819Y-98452380D02*
X139907200Y-98595237D01*
X139907200Y-98595237D02*
X139811961Y-98690475D01*
X139811961Y-98690475D02*
X139716723Y-98738094D01*
X139716723Y-98738094D02*
X139526247Y-98785713D01*
X139526247Y-98785713D02*
X139383390Y-98785713D01*
X139383390Y-98785713D02*
X139192914Y-98738094D01*
X139192914Y-98738094D02*
X139097676Y-98690475D01*
X139097676Y-98690475D02*
X139002438Y-98595237D01*
X139002438Y-98595237D02*
X138954819Y-98452380D01*
X138954819Y-98452380D02*
X138954819Y-98357142D01*
X138954819Y-98357142D02*
X139002438Y-98214285D01*
X139002438Y-98214285D02*
X139050057Y-98166666D01*
X139954819Y-97214285D02*
X139954819Y-97785713D01*
X139954819Y-97499999D02*
X138954819Y-97499999D01*
X138954819Y-97499999D02*
X139097676Y-97595237D01*
X139097676Y-97595237D02*
X139192914Y-97690475D01*
X139192914Y-97690475D02*
X139240533Y-97785713D01*
X182109580Y-82036666D02*
X182157200Y-82084285D01*
X182157200Y-82084285D02*
X182204819Y-82227142D01*
X182204819Y-82227142D02*
X182204819Y-82322380D01*
X182204819Y-82322380D02*
X182157200Y-82465237D01*
X182157200Y-82465237D02*
X182061961Y-82560475D01*
X182061961Y-82560475D02*
X181966723Y-82608094D01*
X181966723Y-82608094D02*
X181776247Y-82655713D01*
X181776247Y-82655713D02*
X181633390Y-82655713D01*
X181633390Y-82655713D02*
X181442914Y-82608094D01*
X181442914Y-82608094D02*
X181347676Y-82560475D01*
X181347676Y-82560475D02*
X181252438Y-82465237D01*
X181252438Y-82465237D02*
X181204819Y-82322380D01*
X181204819Y-82322380D02*
X181204819Y-82227142D01*
X181204819Y-82227142D02*
X181252438Y-82084285D01*
X181252438Y-82084285D02*
X181300057Y-82036666D01*
X182204819Y-81560475D02*
X182204819Y-81369999D01*
X182204819Y-81369999D02*
X182157200Y-81274761D01*
X182157200Y-81274761D02*
X182109580Y-81227142D01*
X182109580Y-81227142D02*
X181966723Y-81131904D01*
X181966723Y-81131904D02*
X181776247Y-81084285D01*
X181776247Y-81084285D02*
X181395295Y-81084285D01*
X181395295Y-81084285D02*
X181300057Y-81131904D01*
X181300057Y-81131904D02*
X181252438Y-81179523D01*
X181252438Y-81179523D02*
X181204819Y-81274761D01*
X181204819Y-81274761D02*
X181204819Y-81465237D01*
X181204819Y-81465237D02*
X181252438Y-81560475D01*
X181252438Y-81560475D02*
X181300057Y-81608094D01*
X181300057Y-81608094D02*
X181395295Y-81655713D01*
X181395295Y-81655713D02*
X181633390Y-81655713D01*
X181633390Y-81655713D02*
X181728628Y-81608094D01*
X181728628Y-81608094D02*
X181776247Y-81560475D01*
X181776247Y-81560475D02*
X181823866Y-81465237D01*
X181823866Y-81465237D02*
X181823866Y-81274761D01*
X181823866Y-81274761D02*
X181776247Y-81179523D01*
X181776247Y-81179523D02*
X181728628Y-81131904D01*
X181728628Y-81131904D02*
X181633390Y-81084285D01*
X102954819Y-66093333D02*
X103669104Y-66093333D01*
X103669104Y-66093333D02*
X103811961Y-66140952D01*
X103811961Y-66140952D02*
X103907200Y-66236190D01*
X103907200Y-66236190D02*
X103954819Y-66379047D01*
X103954819Y-66379047D02*
X103954819Y-66474285D01*
X102954819Y-65140952D02*
X102954819Y-65617142D01*
X102954819Y-65617142D02*
X103431009Y-65664761D01*
X103431009Y-65664761D02*
X103383390Y-65617142D01*
X103383390Y-65617142D02*
X103335771Y-65521904D01*
X103335771Y-65521904D02*
X103335771Y-65283809D01*
X103335771Y-65283809D02*
X103383390Y-65188571D01*
X103383390Y-65188571D02*
X103431009Y-65140952D01*
X103431009Y-65140952D02*
X103526247Y-65093333D01*
X103526247Y-65093333D02*
X103764342Y-65093333D01*
X103764342Y-65093333D02*
X103859580Y-65140952D01*
X103859580Y-65140952D02*
X103907200Y-65188571D01*
X103907200Y-65188571D02*
X103954819Y-65283809D01*
X103954819Y-65283809D02*
X103954819Y-65521904D01*
X103954819Y-65521904D02*
X103907200Y-65617142D01*
X103907200Y-65617142D02*
X103859580Y-65664761D01*
X129154819Y-65988094D02*
X128154819Y-65988094D01*
X128154819Y-65988094D02*
X128154819Y-65749999D01*
X128154819Y-65749999D02*
X128202438Y-65607142D01*
X128202438Y-65607142D02*
X128297676Y-65511904D01*
X128297676Y-65511904D02*
X128392914Y-65464285D01*
X128392914Y-65464285D02*
X128583390Y-65416666D01*
X128583390Y-65416666D02*
X128726247Y-65416666D01*
X128726247Y-65416666D02*
X128916723Y-65464285D01*
X128916723Y-65464285D02*
X129011961Y-65511904D01*
X129011961Y-65511904D02*
X129107200Y-65607142D01*
X129107200Y-65607142D02*
X129154819Y-65749999D01*
X129154819Y-65749999D02*
X129154819Y-65988094D01*
X128154819Y-65083332D02*
X128154819Y-64464285D01*
X128154819Y-64464285D02*
X128535771Y-64797618D01*
X128535771Y-64797618D02*
X128535771Y-64654761D01*
X128535771Y-64654761D02*
X128583390Y-64559523D01*
X128583390Y-64559523D02*
X128631009Y-64511904D01*
X128631009Y-64511904D02*
X128726247Y-64464285D01*
X128726247Y-64464285D02*
X128964342Y-64464285D01*
X128964342Y-64464285D02*
X129059580Y-64511904D01*
X129059580Y-64511904D02*
X129107200Y-64559523D01*
X129107200Y-64559523D02*
X129154819Y-64654761D01*
X129154819Y-64654761D02*
X129154819Y-64940475D01*
X129154819Y-64940475D02*
X129107200Y-65035713D01*
X129107200Y-65035713D02*
X129059580Y-65083332D01*
X132109580Y-137666666D02*
X132157200Y-137714285D01*
X132157200Y-137714285D02*
X132204819Y-137857142D01*
X132204819Y-137857142D02*
X132204819Y-137952380D01*
X132204819Y-137952380D02*
X132157200Y-138095237D01*
X132157200Y-138095237D02*
X132061961Y-138190475D01*
X132061961Y-138190475D02*
X131966723Y-138238094D01*
X131966723Y-138238094D02*
X131776247Y-138285713D01*
X131776247Y-138285713D02*
X131633390Y-138285713D01*
X131633390Y-138285713D02*
X131442914Y-138238094D01*
X131442914Y-138238094D02*
X131347676Y-138190475D01*
X131347676Y-138190475D02*
X131252438Y-138095237D01*
X131252438Y-138095237D02*
X131204819Y-137952380D01*
X131204819Y-137952380D02*
X131204819Y-137857142D01*
X131204819Y-137857142D02*
X131252438Y-137714285D01*
X131252438Y-137714285D02*
X131300057Y-137666666D01*
X131204819Y-137333332D02*
X131204819Y-136714285D01*
X131204819Y-136714285D02*
X131585771Y-137047618D01*
X131585771Y-137047618D02*
X131585771Y-136904761D01*
X131585771Y-136904761D02*
X131633390Y-136809523D01*
X131633390Y-136809523D02*
X131681009Y-136761904D01*
X131681009Y-136761904D02*
X131776247Y-136714285D01*
X131776247Y-136714285D02*
X132014342Y-136714285D01*
X132014342Y-136714285D02*
X132109580Y-136761904D01*
X132109580Y-136761904D02*
X132157200Y-136809523D01*
X132157200Y-136809523D02*
X132204819Y-136904761D01*
X132204819Y-136904761D02*
X132204819Y-137190475D01*
X132204819Y-137190475D02*
X132157200Y-137285713D01*
X132157200Y-137285713D02*
X132109580Y-137333332D01*
X102109580Y-111392857D02*
X102157200Y-111440476D01*
X102157200Y-111440476D02*
X102204819Y-111583333D01*
X102204819Y-111583333D02*
X102204819Y-111678571D01*
X102204819Y-111678571D02*
X102157200Y-111821428D01*
X102157200Y-111821428D02*
X102061961Y-111916666D01*
X102061961Y-111916666D02*
X101966723Y-111964285D01*
X101966723Y-111964285D02*
X101776247Y-112011904D01*
X101776247Y-112011904D02*
X101633390Y-112011904D01*
X101633390Y-112011904D02*
X101442914Y-111964285D01*
X101442914Y-111964285D02*
X101347676Y-111916666D01*
X101347676Y-111916666D02*
X101252438Y-111821428D01*
X101252438Y-111821428D02*
X101204819Y-111678571D01*
X101204819Y-111678571D02*
X101204819Y-111583333D01*
X101204819Y-111583333D02*
X101252438Y-111440476D01*
X101252438Y-111440476D02*
X101300057Y-111392857D01*
X102204819Y-110440476D02*
X102204819Y-111011904D01*
X102204819Y-110726190D02*
X101204819Y-110726190D01*
X101204819Y-110726190D02*
X101347676Y-110821428D01*
X101347676Y-110821428D02*
X101442914Y-110916666D01*
X101442914Y-110916666D02*
X101490533Y-111011904D01*
X102204819Y-109488095D02*
X102204819Y-110059523D01*
X102204819Y-109773809D02*
X101204819Y-109773809D01*
X101204819Y-109773809D02*
X101347676Y-109869047D01*
X101347676Y-109869047D02*
X101442914Y-109964285D01*
X101442914Y-109964285D02*
X101490533Y-110059523D01*
D10*
X113166666Y-93183609D02*
X112833333Y-93183609D01*
X112833333Y-93707419D02*
X112833333Y-92707419D01*
X112833333Y-92707419D02*
X113309523Y-92707419D01*
X114214285Y-93707419D02*
X113642857Y-93707419D01*
X113928571Y-93707419D02*
X113928571Y-92707419D01*
X113928571Y-92707419D02*
X113833333Y-92850276D01*
X113833333Y-92850276D02*
X113738095Y-92945514D01*
X113738095Y-92945514D02*
X113642857Y-92993133D01*
D12*
X124357142Y-81359580D02*
X124309523Y-81407200D01*
X124309523Y-81407200D02*
X124166666Y-81454819D01*
X124166666Y-81454819D02*
X124071428Y-81454819D01*
X124071428Y-81454819D02*
X123928571Y-81407200D01*
X123928571Y-81407200D02*
X123833333Y-81311961D01*
X123833333Y-81311961D02*
X123785714Y-81216723D01*
X123785714Y-81216723D02*
X123738095Y-81026247D01*
X123738095Y-81026247D02*
X123738095Y-80883390D01*
X123738095Y-80883390D02*
X123785714Y-80692914D01*
X123785714Y-80692914D02*
X123833333Y-80597676D01*
X123833333Y-80597676D02*
X123928571Y-80502438D01*
X123928571Y-80502438D02*
X124071428Y-80454819D01*
X124071428Y-80454819D02*
X124166666Y-80454819D01*
X124166666Y-80454819D02*
X124309523Y-80502438D01*
X124309523Y-80502438D02*
X124357142Y-80550057D01*
X125309523Y-81454819D02*
X124738095Y-81454819D01*
X125023809Y-81454819D02*
X125023809Y-80454819D01*
X125023809Y-80454819D02*
X124928571Y-80597676D01*
X124928571Y-80597676D02*
X124833333Y-80692914D01*
X124833333Y-80692914D02*
X124738095Y-80740533D01*
X126166666Y-80788152D02*
X126166666Y-81454819D01*
X125928571Y-80407200D02*
X125690476Y-81121485D01*
X125690476Y-81121485D02*
X126309523Y-81121485D01*
X128374819Y-69809523D02*
X129089104Y-69809523D01*
X129089104Y-69809523D02*
X129231961Y-69857142D01*
X129231961Y-69857142D02*
X129327200Y-69952380D01*
X129327200Y-69952380D02*
X129374819Y-70095237D01*
X129374819Y-70095237D02*
X129374819Y-70190475D01*
X129374819Y-68809523D02*
X129374819Y-69380951D01*
X129374819Y-69095237D02*
X128374819Y-69095237D01*
X128374819Y-69095237D02*
X128517676Y-69190475D01*
X128517676Y-69190475D02*
X128612914Y-69285713D01*
X128612914Y-69285713D02*
X128660533Y-69380951D01*
X128374819Y-68476189D02*
X128374819Y-67857142D01*
X128374819Y-67857142D02*
X128755771Y-68190475D01*
X128755771Y-68190475D02*
X128755771Y-68047618D01*
X128755771Y-68047618D02*
X128803390Y-67952380D01*
X128803390Y-67952380D02*
X128851009Y-67904761D01*
X128851009Y-67904761D02*
X128946247Y-67857142D01*
X128946247Y-67857142D02*
X129184342Y-67857142D01*
X129184342Y-67857142D02*
X129279580Y-67904761D01*
X129279580Y-67904761D02*
X129327200Y-67952380D01*
X129327200Y-67952380D02*
X129374819Y-68047618D01*
X129374819Y-68047618D02*
X129374819Y-68333332D01*
X129374819Y-68333332D02*
X129327200Y-68428570D01*
X129327200Y-68428570D02*
X129279580Y-68476189D01*
X135738095Y-55206819D02*
X136309523Y-55206819D01*
X136023809Y-56206819D02*
X136023809Y-55206819D01*
X136642857Y-56206819D02*
X136642857Y-55206819D01*
X136642857Y-55206819D02*
X137023809Y-55206819D01*
X137023809Y-55206819D02*
X137119047Y-55254438D01*
X137119047Y-55254438D02*
X137166666Y-55302057D01*
X137166666Y-55302057D02*
X137214285Y-55397295D01*
X137214285Y-55397295D02*
X137214285Y-55540152D01*
X137214285Y-55540152D02*
X137166666Y-55635390D01*
X137166666Y-55635390D02*
X137119047Y-55683009D01*
X137119047Y-55683009D02*
X137023809Y-55730628D01*
X137023809Y-55730628D02*
X136642857Y-55730628D01*
X137547619Y-55206819D02*
X138166666Y-55206819D01*
X138166666Y-55206819D02*
X137833333Y-55587771D01*
X137833333Y-55587771D02*
X137976190Y-55587771D01*
X137976190Y-55587771D02*
X138071428Y-55635390D01*
X138071428Y-55635390D02*
X138119047Y-55683009D01*
X138119047Y-55683009D02*
X138166666Y-55778247D01*
X138166666Y-55778247D02*
X138166666Y-56016342D01*
X138166666Y-56016342D02*
X138119047Y-56111580D01*
X138119047Y-56111580D02*
X138071428Y-56159200D01*
X138071428Y-56159200D02*
X137976190Y-56206819D01*
X137976190Y-56206819D02*
X137690476Y-56206819D01*
X137690476Y-56206819D02*
X137595238Y-56159200D01*
X137595238Y-56159200D02*
X137547619Y-56111580D01*
D10*
X133452381Y-59457419D02*
X134071428Y-59457419D01*
X134071428Y-59457419D02*
X133738095Y-59838371D01*
X133738095Y-59838371D02*
X133880952Y-59838371D01*
X133880952Y-59838371D02*
X133976190Y-59885990D01*
X133976190Y-59885990D02*
X134023809Y-59933609D01*
X134023809Y-59933609D02*
X134071428Y-60028847D01*
X134071428Y-60028847D02*
X134071428Y-60266942D01*
X134071428Y-60266942D02*
X134023809Y-60362180D01*
X134023809Y-60362180D02*
X133976190Y-60409800D01*
X133976190Y-60409800D02*
X133880952Y-60457419D01*
X133880952Y-60457419D02*
X133595238Y-60457419D01*
X133595238Y-60457419D02*
X133500000Y-60409800D01*
X133500000Y-60409800D02*
X133452381Y-60362180D01*
X134357143Y-59457419D02*
X134690476Y-60457419D01*
X134690476Y-60457419D02*
X135023809Y-59457419D01*
X135261905Y-59457419D02*
X135880952Y-59457419D01*
X135880952Y-59457419D02*
X135547619Y-59838371D01*
X135547619Y-59838371D02*
X135690476Y-59838371D01*
X135690476Y-59838371D02*
X135785714Y-59885990D01*
X135785714Y-59885990D02*
X135833333Y-59933609D01*
X135833333Y-59933609D02*
X135880952Y-60028847D01*
X135880952Y-60028847D02*
X135880952Y-60266942D01*
X135880952Y-60266942D02*
X135833333Y-60362180D01*
X135833333Y-60362180D02*
X135785714Y-60409800D01*
X135785714Y-60409800D02*
X135690476Y-60457419D01*
X135690476Y-60457419D02*
X135404762Y-60457419D01*
X135404762Y-60457419D02*
X135309524Y-60409800D01*
X135309524Y-60409800D02*
X135261905Y-60362180D01*
X136071429Y-60552657D02*
X136833333Y-60552657D01*
X137023810Y-60409800D02*
X137166667Y-60457419D01*
X137166667Y-60457419D02*
X137404762Y-60457419D01*
X137404762Y-60457419D02*
X137500000Y-60409800D01*
X137500000Y-60409800D02*
X137547619Y-60362180D01*
X137547619Y-60362180D02*
X137595238Y-60266942D01*
X137595238Y-60266942D02*
X137595238Y-60171704D01*
X137595238Y-60171704D02*
X137547619Y-60076466D01*
X137547619Y-60076466D02*
X137500000Y-60028847D01*
X137500000Y-60028847D02*
X137404762Y-59981228D01*
X137404762Y-59981228D02*
X137214286Y-59933609D01*
X137214286Y-59933609D02*
X137119048Y-59885990D01*
X137119048Y-59885990D02*
X137071429Y-59838371D01*
X137071429Y-59838371D02*
X137023810Y-59743133D01*
X137023810Y-59743133D02*
X137023810Y-59647895D01*
X137023810Y-59647895D02*
X137071429Y-59552657D01*
X137071429Y-59552657D02*
X137119048Y-59505038D01*
X137119048Y-59505038D02*
X137214286Y-59457419D01*
X137214286Y-59457419D02*
X137452381Y-59457419D01*
X137452381Y-59457419D02*
X137595238Y-59505038D01*
X138023810Y-59933609D02*
X138357143Y-59933609D01*
X138500000Y-60457419D02*
X138023810Y-60457419D01*
X138023810Y-60457419D02*
X138023810Y-59457419D01*
X138023810Y-59457419D02*
X138500000Y-59457419D01*
X138928572Y-60457419D02*
X138928572Y-59457419D01*
X138928572Y-59457419D02*
X139500000Y-60457419D01*
X139500000Y-60457419D02*
X139500000Y-59457419D01*
X139928572Y-60409800D02*
X140071429Y-60457419D01*
X140071429Y-60457419D02*
X140309524Y-60457419D01*
X140309524Y-60457419D02*
X140404762Y-60409800D01*
X140404762Y-60409800D02*
X140452381Y-60362180D01*
X140452381Y-60362180D02*
X140500000Y-60266942D01*
X140500000Y-60266942D02*
X140500000Y-60171704D01*
X140500000Y-60171704D02*
X140452381Y-60076466D01*
X140452381Y-60076466D02*
X140404762Y-60028847D01*
X140404762Y-60028847D02*
X140309524Y-59981228D01*
X140309524Y-59981228D02*
X140119048Y-59933609D01*
X140119048Y-59933609D02*
X140023810Y-59885990D01*
X140023810Y-59885990D02*
X139976191Y-59838371D01*
X139976191Y-59838371D02*
X139928572Y-59743133D01*
X139928572Y-59743133D02*
X139928572Y-59647895D01*
X139928572Y-59647895D02*
X139976191Y-59552657D01*
X139976191Y-59552657D02*
X140023810Y-59505038D01*
X140023810Y-59505038D02*
X140119048Y-59457419D01*
X140119048Y-59457419D02*
X140357143Y-59457419D01*
X140357143Y-59457419D02*
X140500000Y-59505038D01*
D12*
X139083333Y-76109580D02*
X139035714Y-76157200D01*
X139035714Y-76157200D02*
X138892857Y-76204819D01*
X138892857Y-76204819D02*
X138797619Y-76204819D01*
X138797619Y-76204819D02*
X138654762Y-76157200D01*
X138654762Y-76157200D02*
X138559524Y-76061961D01*
X138559524Y-76061961D02*
X138511905Y-75966723D01*
X138511905Y-75966723D02*
X138464286Y-75776247D01*
X138464286Y-75776247D02*
X138464286Y-75633390D01*
X138464286Y-75633390D02*
X138511905Y-75442914D01*
X138511905Y-75442914D02*
X138559524Y-75347676D01*
X138559524Y-75347676D02*
X138654762Y-75252438D01*
X138654762Y-75252438D02*
X138797619Y-75204819D01*
X138797619Y-75204819D02*
X138892857Y-75204819D01*
X138892857Y-75204819D02*
X139035714Y-75252438D01*
X139035714Y-75252438D02*
X139083333Y-75300057D01*
X139940476Y-75204819D02*
X139750000Y-75204819D01*
X139750000Y-75204819D02*
X139654762Y-75252438D01*
X139654762Y-75252438D02*
X139607143Y-75300057D01*
X139607143Y-75300057D02*
X139511905Y-75442914D01*
X139511905Y-75442914D02*
X139464286Y-75633390D01*
X139464286Y-75633390D02*
X139464286Y-76014342D01*
X139464286Y-76014342D02*
X139511905Y-76109580D01*
X139511905Y-76109580D02*
X139559524Y-76157200D01*
X139559524Y-76157200D02*
X139654762Y-76204819D01*
X139654762Y-76204819D02*
X139845238Y-76204819D01*
X139845238Y-76204819D02*
X139940476Y-76157200D01*
X139940476Y-76157200D02*
X139988095Y-76109580D01*
X139988095Y-76109580D02*
X140035714Y-76014342D01*
X140035714Y-76014342D02*
X140035714Y-75776247D01*
X140035714Y-75776247D02*
X139988095Y-75681009D01*
X139988095Y-75681009D02*
X139940476Y-75633390D01*
X139940476Y-75633390D02*
X139845238Y-75585771D01*
X139845238Y-75585771D02*
X139654762Y-75585771D01*
X139654762Y-75585771D02*
X139559524Y-75633390D01*
X139559524Y-75633390D02*
X139511905Y-75681009D01*
X139511905Y-75681009D02*
X139464286Y-75776247D01*
D10*
X100207419Y-139809523D02*
X100921704Y-139809523D01*
X100921704Y-139809523D02*
X101064561Y-139857142D01*
X101064561Y-139857142D02*
X101159800Y-139952380D01*
X101159800Y-139952380D02*
X101207419Y-140095237D01*
X101207419Y-140095237D02*
X101207419Y-140190475D01*
X101207419Y-138809523D02*
X101207419Y-139380951D01*
X101207419Y-139095237D02*
X100207419Y-139095237D01*
X100207419Y-139095237D02*
X100350276Y-139190475D01*
X100350276Y-139190475D02*
X100445514Y-139285713D01*
X100445514Y-139285713D02*
X100493133Y-139380951D01*
X100207419Y-137952380D02*
X100207419Y-138142856D01*
X100207419Y-138142856D02*
X100255038Y-138238094D01*
X100255038Y-138238094D02*
X100302657Y-138285713D01*
X100302657Y-138285713D02*
X100445514Y-138380951D01*
X100445514Y-138380951D02*
X100635990Y-138428570D01*
X100635990Y-138428570D02*
X101016942Y-138428570D01*
X101016942Y-138428570D02*
X101112180Y-138380951D01*
X101112180Y-138380951D02*
X101159800Y-138333332D01*
X101159800Y-138333332D02*
X101207419Y-138238094D01*
X101207419Y-138238094D02*
X101207419Y-138047618D01*
X101207419Y-138047618D02*
X101159800Y-137952380D01*
X101159800Y-137952380D02*
X101112180Y-137904761D01*
X101112180Y-137904761D02*
X101016942Y-137857142D01*
X101016942Y-137857142D02*
X100778847Y-137857142D01*
X100778847Y-137857142D02*
X100683609Y-137904761D01*
X100683609Y-137904761D02*
X100635990Y-137952380D01*
X100635990Y-137952380D02*
X100588371Y-138047618D01*
X100588371Y-138047618D02*
X100588371Y-138238094D01*
X100588371Y-138238094D02*
X100635990Y-138333332D01*
X100635990Y-138333332D02*
X100683609Y-138380951D01*
X100683609Y-138380951D02*
X100778847Y-138428570D01*
D12*
X163357142Y-61109580D02*
X163309523Y-61157200D01*
X163309523Y-61157200D02*
X163166666Y-61204819D01*
X163166666Y-61204819D02*
X163071428Y-61204819D01*
X163071428Y-61204819D02*
X162928571Y-61157200D01*
X162928571Y-61157200D02*
X162833333Y-61061961D01*
X162833333Y-61061961D02*
X162785714Y-60966723D01*
X162785714Y-60966723D02*
X162738095Y-60776247D01*
X162738095Y-60776247D02*
X162738095Y-60633390D01*
X162738095Y-60633390D02*
X162785714Y-60442914D01*
X162785714Y-60442914D02*
X162833333Y-60347676D01*
X162833333Y-60347676D02*
X162928571Y-60252438D01*
X162928571Y-60252438D02*
X163071428Y-60204819D01*
X163071428Y-60204819D02*
X163166666Y-60204819D01*
X163166666Y-60204819D02*
X163309523Y-60252438D01*
X163309523Y-60252438D02*
X163357142Y-60300057D01*
X164309523Y-61204819D02*
X163738095Y-61204819D01*
X164023809Y-61204819D02*
X164023809Y-60204819D01*
X164023809Y-60204819D02*
X163928571Y-60347676D01*
X163928571Y-60347676D02*
X163833333Y-60442914D01*
X163833333Y-60442914D02*
X163738095Y-60490533D01*
X164642857Y-60204819D02*
X165261904Y-60204819D01*
X165261904Y-60204819D02*
X164928571Y-60585771D01*
X164928571Y-60585771D02*
X165071428Y-60585771D01*
X165071428Y-60585771D02*
X165166666Y-60633390D01*
X165166666Y-60633390D02*
X165214285Y-60681009D01*
X165214285Y-60681009D02*
X165261904Y-60776247D01*
X165261904Y-60776247D02*
X165261904Y-61014342D01*
X165261904Y-61014342D02*
X165214285Y-61109580D01*
X165214285Y-61109580D02*
X165166666Y-61157200D01*
X165166666Y-61157200D02*
X165071428Y-61204819D01*
X165071428Y-61204819D02*
X164785714Y-61204819D01*
X164785714Y-61204819D02*
X164690476Y-61157200D01*
X164690476Y-61157200D02*
X164642857Y-61109580D01*
X102454819Y-106238094D02*
X101454819Y-106238094D01*
X101454819Y-106238094D02*
X101454819Y-105999999D01*
X101454819Y-105999999D02*
X101502438Y-105857142D01*
X101502438Y-105857142D02*
X101597676Y-105761904D01*
X101597676Y-105761904D02*
X101692914Y-105714285D01*
X101692914Y-105714285D02*
X101883390Y-105666666D01*
X101883390Y-105666666D02*
X102026247Y-105666666D01*
X102026247Y-105666666D02*
X102216723Y-105714285D01*
X102216723Y-105714285D02*
X102311961Y-105761904D01*
X102311961Y-105761904D02*
X102407200Y-105857142D01*
X102407200Y-105857142D02*
X102454819Y-105999999D01*
X102454819Y-105999999D02*
X102454819Y-106238094D01*
X102454819Y-104714285D02*
X102454819Y-105285713D01*
X102454819Y-104999999D02*
X101454819Y-104999999D01*
X101454819Y-104999999D02*
X101597676Y-105095237D01*
X101597676Y-105095237D02*
X101692914Y-105190475D01*
X101692914Y-105190475D02*
X101740533Y-105285713D01*
X126109580Y-60916666D02*
X126157200Y-60964285D01*
X126157200Y-60964285D02*
X126204819Y-61107142D01*
X126204819Y-61107142D02*
X126204819Y-61202380D01*
X126204819Y-61202380D02*
X126157200Y-61345237D01*
X126157200Y-61345237D02*
X126061961Y-61440475D01*
X126061961Y-61440475D02*
X125966723Y-61488094D01*
X125966723Y-61488094D02*
X125776247Y-61535713D01*
X125776247Y-61535713D02*
X125633390Y-61535713D01*
X125633390Y-61535713D02*
X125442914Y-61488094D01*
X125442914Y-61488094D02*
X125347676Y-61440475D01*
X125347676Y-61440475D02*
X125252438Y-61345237D01*
X125252438Y-61345237D02*
X125204819Y-61202380D01*
X125204819Y-61202380D02*
X125204819Y-61107142D01*
X125204819Y-61107142D02*
X125252438Y-60964285D01*
X125252438Y-60964285D02*
X125300057Y-60916666D01*
X125204819Y-60011904D02*
X125204819Y-60488094D01*
X125204819Y-60488094D02*
X125681009Y-60535713D01*
X125681009Y-60535713D02*
X125633390Y-60488094D01*
X125633390Y-60488094D02*
X125585771Y-60392856D01*
X125585771Y-60392856D02*
X125585771Y-60154761D01*
X125585771Y-60154761D02*
X125633390Y-60059523D01*
X125633390Y-60059523D02*
X125681009Y-60011904D01*
X125681009Y-60011904D02*
X125776247Y-59964285D01*
X125776247Y-59964285D02*
X126014342Y-59964285D01*
X126014342Y-59964285D02*
X126109580Y-60011904D01*
X126109580Y-60011904D02*
X126157200Y-60059523D01*
X126157200Y-60059523D02*
X126204819Y-60154761D01*
X126204819Y-60154761D02*
X126204819Y-60392856D01*
X126204819Y-60392856D02*
X126157200Y-60488094D01*
X126157200Y-60488094D02*
X126109580Y-60535713D01*
X123333333Y-121897080D02*
X123285714Y-121944700D01*
X123285714Y-121944700D02*
X123142857Y-121992319D01*
X123142857Y-121992319D02*
X123047619Y-121992319D01*
X123047619Y-121992319D02*
X122904762Y-121944700D01*
X122904762Y-121944700D02*
X122809524Y-121849461D01*
X122809524Y-121849461D02*
X122761905Y-121754223D01*
X122761905Y-121754223D02*
X122714286Y-121563747D01*
X122714286Y-121563747D02*
X122714286Y-121420890D01*
X122714286Y-121420890D02*
X122761905Y-121230414D01*
X122761905Y-121230414D02*
X122809524Y-121135176D01*
X122809524Y-121135176D02*
X122904762Y-121039938D01*
X122904762Y-121039938D02*
X123047619Y-120992319D01*
X123047619Y-120992319D02*
X123142857Y-120992319D01*
X123142857Y-120992319D02*
X123285714Y-121039938D01*
X123285714Y-121039938D02*
X123333333Y-121087557D01*
X124190476Y-121325652D02*
X124190476Y-121992319D01*
X123952381Y-120944700D02*
X123714286Y-121658985D01*
X123714286Y-121658985D02*
X124333333Y-121658985D01*
X107954819Y-105666666D02*
X107478628Y-105999999D01*
X107954819Y-106238094D02*
X106954819Y-106238094D01*
X106954819Y-106238094D02*
X106954819Y-105857142D01*
X106954819Y-105857142D02*
X107002438Y-105761904D01*
X107002438Y-105761904D02*
X107050057Y-105714285D01*
X107050057Y-105714285D02*
X107145295Y-105666666D01*
X107145295Y-105666666D02*
X107288152Y-105666666D01*
X107288152Y-105666666D02*
X107383390Y-105714285D01*
X107383390Y-105714285D02*
X107431009Y-105761904D01*
X107431009Y-105761904D02*
X107478628Y-105857142D01*
X107478628Y-105857142D02*
X107478628Y-106238094D01*
X107954819Y-104714285D02*
X107954819Y-105285713D01*
X107954819Y-104999999D02*
X106954819Y-104999999D01*
X106954819Y-104999999D02*
X107097676Y-105095237D01*
X107097676Y-105095237D02*
X107192914Y-105190475D01*
X107192914Y-105190475D02*
X107240533Y-105285713D01*
X134654819Y-65416666D02*
X134178628Y-65749999D01*
X134654819Y-65988094D02*
X133654819Y-65988094D01*
X133654819Y-65988094D02*
X133654819Y-65607142D01*
X133654819Y-65607142D02*
X133702438Y-65511904D01*
X133702438Y-65511904D02*
X133750057Y-65464285D01*
X133750057Y-65464285D02*
X133845295Y-65416666D01*
X133845295Y-65416666D02*
X133988152Y-65416666D01*
X133988152Y-65416666D02*
X134083390Y-65464285D01*
X134083390Y-65464285D02*
X134131009Y-65511904D01*
X134131009Y-65511904D02*
X134178628Y-65607142D01*
X134178628Y-65607142D02*
X134178628Y-65988094D01*
X133654819Y-65083332D02*
X133654819Y-64464285D01*
X133654819Y-64464285D02*
X134035771Y-64797618D01*
X134035771Y-64797618D02*
X134035771Y-64654761D01*
X134035771Y-64654761D02*
X134083390Y-64559523D01*
X134083390Y-64559523D02*
X134131009Y-64511904D01*
X134131009Y-64511904D02*
X134226247Y-64464285D01*
X134226247Y-64464285D02*
X134464342Y-64464285D01*
X134464342Y-64464285D02*
X134559580Y-64511904D01*
X134559580Y-64511904D02*
X134607200Y-64559523D01*
X134607200Y-64559523D02*
X134654819Y-64654761D01*
X134654819Y-64654761D02*
X134654819Y-64940475D01*
X134654819Y-64940475D02*
X134607200Y-65035713D01*
X134607200Y-65035713D02*
X134559580Y-65083332D01*
X184166666Y-87604819D02*
X184166666Y-88319104D01*
X184166666Y-88319104D02*
X184119047Y-88461961D01*
X184119047Y-88461961D02*
X184023809Y-88557200D01*
X184023809Y-88557200D02*
X183880952Y-88604819D01*
X183880952Y-88604819D02*
X183785714Y-88604819D01*
X184547619Y-87604819D02*
X185166666Y-87604819D01*
X185166666Y-87604819D02*
X184833333Y-87985771D01*
X184833333Y-87985771D02*
X184976190Y-87985771D01*
X184976190Y-87985771D02*
X185071428Y-88033390D01*
X185071428Y-88033390D02*
X185119047Y-88081009D01*
X185119047Y-88081009D02*
X185166666Y-88176247D01*
X185166666Y-88176247D02*
X185166666Y-88414342D01*
X185166666Y-88414342D02*
X185119047Y-88509580D01*
X185119047Y-88509580D02*
X185071428Y-88557200D01*
X185071428Y-88557200D02*
X184976190Y-88604819D01*
X184976190Y-88604819D02*
X184690476Y-88604819D01*
X184690476Y-88604819D02*
X184595238Y-88557200D01*
X184595238Y-88557200D02*
X184547619Y-88509580D01*
X128374819Y-85049523D02*
X129089104Y-85049523D01*
X129089104Y-85049523D02*
X129231961Y-85097142D01*
X129231961Y-85097142D02*
X129327200Y-85192380D01*
X129327200Y-85192380D02*
X129374819Y-85335237D01*
X129374819Y-85335237D02*
X129374819Y-85430475D01*
X129374819Y-84049523D02*
X129374819Y-84620951D01*
X129374819Y-84335237D02*
X128374819Y-84335237D01*
X128374819Y-84335237D02*
X128517676Y-84430475D01*
X128517676Y-84430475D02*
X128612914Y-84525713D01*
X128612914Y-84525713D02*
X128660533Y-84620951D01*
X128470057Y-83668570D02*
X128422438Y-83620951D01*
X128422438Y-83620951D02*
X128374819Y-83525713D01*
X128374819Y-83525713D02*
X128374819Y-83287618D01*
X128374819Y-83287618D02*
X128422438Y-83192380D01*
X128422438Y-83192380D02*
X128470057Y-83144761D01*
X128470057Y-83144761D02*
X128565295Y-83097142D01*
X128565295Y-83097142D02*
X128660533Y-83097142D01*
X128660533Y-83097142D02*
X128803390Y-83144761D01*
X128803390Y-83144761D02*
X129374819Y-83716189D01*
X129374819Y-83716189D02*
X129374819Y-83097142D01*
X178166666Y-134154819D02*
X178166666Y-134869104D01*
X178166666Y-134869104D02*
X178119047Y-135011961D01*
X178119047Y-135011961D02*
X178023809Y-135107200D01*
X178023809Y-135107200D02*
X177880952Y-135154819D01*
X177880952Y-135154819D02*
X177785714Y-135154819D01*
X178690476Y-135154819D02*
X178880952Y-135154819D01*
X178880952Y-135154819D02*
X178976190Y-135107200D01*
X178976190Y-135107200D02*
X179023809Y-135059580D01*
X179023809Y-135059580D02*
X179119047Y-134916723D01*
X179119047Y-134916723D02*
X179166666Y-134726247D01*
X179166666Y-134726247D02*
X179166666Y-134345295D01*
X179166666Y-134345295D02*
X179119047Y-134250057D01*
X179119047Y-134250057D02*
X179071428Y-134202438D01*
X179071428Y-134202438D02*
X178976190Y-134154819D01*
X178976190Y-134154819D02*
X178785714Y-134154819D01*
X178785714Y-134154819D02*
X178690476Y-134202438D01*
X178690476Y-134202438D02*
X178642857Y-134250057D01*
X178642857Y-134250057D02*
X178595238Y-134345295D01*
X178595238Y-134345295D02*
X178595238Y-134583390D01*
X178595238Y-134583390D02*
X178642857Y-134678628D01*
X178642857Y-134678628D02*
X178690476Y-134726247D01*
X178690476Y-134726247D02*
X178785714Y-134773866D01*
X178785714Y-134773866D02*
X178976190Y-134773866D01*
X178976190Y-134773866D02*
X179071428Y-134726247D01*
X179071428Y-134726247D02*
X179119047Y-134678628D01*
X179119047Y-134678628D02*
X179166666Y-134583390D01*
X101704819Y-92261904D02*
X101704819Y-91690476D01*
X102704819Y-91976190D02*
X101704819Y-91976190D01*
X102704819Y-91357142D02*
X101704819Y-91357142D01*
X101704819Y-91357142D02*
X101704819Y-90976190D01*
X101704819Y-90976190D02*
X101752438Y-90880952D01*
X101752438Y-90880952D02*
X101800057Y-90833333D01*
X101800057Y-90833333D02*
X101895295Y-90785714D01*
X101895295Y-90785714D02*
X102038152Y-90785714D01*
X102038152Y-90785714D02*
X102133390Y-90833333D01*
X102133390Y-90833333D02*
X102181009Y-90880952D01*
X102181009Y-90880952D02*
X102228628Y-90976190D01*
X102228628Y-90976190D02*
X102228628Y-91357142D01*
X102704819Y-89833333D02*
X102704819Y-90404761D01*
X102704819Y-90119047D02*
X101704819Y-90119047D01*
X101704819Y-90119047D02*
X101847676Y-90214285D01*
X101847676Y-90214285D02*
X101942914Y-90309523D01*
X101942914Y-90309523D02*
X101990533Y-90404761D01*
D10*
X100457419Y-59809523D02*
X101171704Y-59809523D01*
X101171704Y-59809523D02*
X101314561Y-59857142D01*
X101314561Y-59857142D02*
X101409800Y-59952380D01*
X101409800Y-59952380D02*
X101457419Y-60095237D01*
X101457419Y-60095237D02*
X101457419Y-60190475D01*
X101457419Y-58809523D02*
X101457419Y-59380951D01*
X101457419Y-59095237D02*
X100457419Y-59095237D01*
X100457419Y-59095237D02*
X100600276Y-59190475D01*
X100600276Y-59190475D02*
X100695514Y-59285713D01*
X100695514Y-59285713D02*
X100743133Y-59380951D01*
X100457419Y-57904761D02*
X100457419Y-58380951D01*
X100457419Y-58380951D02*
X100933609Y-58428570D01*
X100933609Y-58428570D02*
X100885990Y-58380951D01*
X100885990Y-58380951D02*
X100838371Y-58285713D01*
X100838371Y-58285713D02*
X100838371Y-58047618D01*
X100838371Y-58047618D02*
X100885990Y-57952380D01*
X100885990Y-57952380D02*
X100933609Y-57904761D01*
X100933609Y-57904761D02*
X101028847Y-57857142D01*
X101028847Y-57857142D02*
X101266942Y-57857142D01*
X101266942Y-57857142D02*
X101362180Y-57904761D01*
X101362180Y-57904761D02*
X101409800Y-57952380D01*
X101409800Y-57952380D02*
X101457419Y-58047618D01*
X101457419Y-58047618D02*
X101457419Y-58285713D01*
X101457419Y-58285713D02*
X101409800Y-58380951D01*
X101409800Y-58380951D02*
X101362180Y-58428570D01*
D12*
X182109580Y-86222857D02*
X182157200Y-86270476D01*
X182157200Y-86270476D02*
X182204819Y-86413333D01*
X182204819Y-86413333D02*
X182204819Y-86508571D01*
X182204819Y-86508571D02*
X182157200Y-86651428D01*
X182157200Y-86651428D02*
X182061961Y-86746666D01*
X182061961Y-86746666D02*
X181966723Y-86794285D01*
X181966723Y-86794285D02*
X181776247Y-86841904D01*
X181776247Y-86841904D02*
X181633390Y-86841904D01*
X181633390Y-86841904D02*
X181442914Y-86794285D01*
X181442914Y-86794285D02*
X181347676Y-86746666D01*
X181347676Y-86746666D02*
X181252438Y-86651428D01*
X181252438Y-86651428D02*
X181204819Y-86508571D01*
X181204819Y-86508571D02*
X181204819Y-86413333D01*
X181204819Y-86413333D02*
X181252438Y-86270476D01*
X181252438Y-86270476D02*
X181300057Y-86222857D01*
X182204819Y-85270476D02*
X182204819Y-85841904D01*
X182204819Y-85556190D02*
X181204819Y-85556190D01*
X181204819Y-85556190D02*
X181347676Y-85651428D01*
X181347676Y-85651428D02*
X181442914Y-85746666D01*
X181442914Y-85746666D02*
X181490533Y-85841904D01*
X181204819Y-84651428D02*
X181204819Y-84556190D01*
X181204819Y-84556190D02*
X181252438Y-84460952D01*
X181252438Y-84460952D02*
X181300057Y-84413333D01*
X181300057Y-84413333D02*
X181395295Y-84365714D01*
X181395295Y-84365714D02*
X181585771Y-84318095D01*
X181585771Y-84318095D02*
X181823866Y-84318095D01*
X181823866Y-84318095D02*
X182014342Y-84365714D01*
X182014342Y-84365714D02*
X182109580Y-84413333D01*
X182109580Y-84413333D02*
X182157200Y-84460952D01*
X182157200Y-84460952D02*
X182204819Y-84556190D01*
X182204819Y-84556190D02*
X182204819Y-84651428D01*
X182204819Y-84651428D02*
X182157200Y-84746666D01*
X182157200Y-84746666D02*
X182109580Y-84794285D01*
X182109580Y-84794285D02*
X182014342Y-84841904D01*
X182014342Y-84841904D02*
X181823866Y-84889523D01*
X181823866Y-84889523D02*
X181585771Y-84889523D01*
X181585771Y-84889523D02*
X181395295Y-84841904D01*
X181395295Y-84841904D02*
X181300057Y-84794285D01*
X181300057Y-84794285D02*
X181252438Y-84746666D01*
X181252438Y-84746666D02*
X181204819Y-84651428D01*
X141474819Y-106059523D02*
X142189104Y-106059523D01*
X142189104Y-106059523D02*
X142331961Y-106107142D01*
X142331961Y-106107142D02*
X142427200Y-106202380D01*
X142427200Y-106202380D02*
X142474819Y-106345237D01*
X142474819Y-106345237D02*
X142474819Y-106440475D01*
X142474819Y-105059523D02*
X142474819Y-105630951D01*
X142474819Y-105345237D02*
X141474819Y-105345237D01*
X141474819Y-105345237D02*
X141617676Y-105440475D01*
X141617676Y-105440475D02*
X141712914Y-105535713D01*
X141712914Y-105535713D02*
X141760533Y-105630951D01*
X141474819Y-104440475D02*
X141474819Y-104345237D01*
X141474819Y-104345237D02*
X141522438Y-104249999D01*
X141522438Y-104249999D02*
X141570057Y-104202380D01*
X141570057Y-104202380D02*
X141665295Y-104154761D01*
X141665295Y-104154761D02*
X141855771Y-104107142D01*
X141855771Y-104107142D02*
X142093866Y-104107142D01*
X142093866Y-104107142D02*
X142284342Y-104154761D01*
X142284342Y-104154761D02*
X142379580Y-104202380D01*
X142379580Y-104202380D02*
X142427200Y-104249999D01*
X142427200Y-104249999D02*
X142474819Y-104345237D01*
X142474819Y-104345237D02*
X142474819Y-104440475D01*
X142474819Y-104440475D02*
X142427200Y-104535713D01*
X142427200Y-104535713D02*
X142379580Y-104583332D01*
X142379580Y-104583332D02*
X142284342Y-104630951D01*
X142284342Y-104630951D02*
X142093866Y-104678570D01*
X142093866Y-104678570D02*
X141855771Y-104678570D01*
X141855771Y-104678570D02*
X141665295Y-104630951D01*
X141665295Y-104630951D02*
X141570057Y-104583332D01*
X141570057Y-104583332D02*
X141522438Y-104535713D01*
X141522438Y-104535713D02*
X141474819Y-104440475D01*
X138988095Y-142204819D02*
X139559523Y-142204819D01*
X139273809Y-143204819D02*
X139273809Y-142204819D01*
X139892857Y-143204819D02*
X139892857Y-142204819D01*
X139892857Y-142204819D02*
X140273809Y-142204819D01*
X140273809Y-142204819D02*
X140369047Y-142252438D01*
X140369047Y-142252438D02*
X140416666Y-142300057D01*
X140416666Y-142300057D02*
X140464285Y-142395295D01*
X140464285Y-142395295D02*
X140464285Y-142538152D01*
X140464285Y-142538152D02*
X140416666Y-142633390D01*
X140416666Y-142633390D02*
X140369047Y-142681009D01*
X140369047Y-142681009D02*
X140273809Y-142728628D01*
X140273809Y-142728628D02*
X139892857Y-142728628D01*
X140845238Y-142300057D02*
X140892857Y-142252438D01*
X140892857Y-142252438D02*
X140988095Y-142204819D01*
X140988095Y-142204819D02*
X141226190Y-142204819D01*
X141226190Y-142204819D02*
X141321428Y-142252438D01*
X141321428Y-142252438D02*
X141369047Y-142300057D01*
X141369047Y-142300057D02*
X141416666Y-142395295D01*
X141416666Y-142395295D02*
X141416666Y-142490533D01*
X141416666Y-142490533D02*
X141369047Y-142633390D01*
X141369047Y-142633390D02*
X140797619Y-143204819D01*
X140797619Y-143204819D02*
X141416666Y-143204819D01*
X130083333Y-131204819D02*
X129750000Y-130728628D01*
X129511905Y-131204819D02*
X129511905Y-130204819D01*
X129511905Y-130204819D02*
X129892857Y-130204819D01*
X129892857Y-130204819D02*
X129988095Y-130252438D01*
X129988095Y-130252438D02*
X130035714Y-130300057D01*
X130035714Y-130300057D02*
X130083333Y-130395295D01*
X130083333Y-130395295D02*
X130083333Y-130538152D01*
X130083333Y-130538152D02*
X130035714Y-130633390D01*
X130035714Y-130633390D02*
X129988095Y-130681009D01*
X129988095Y-130681009D02*
X129892857Y-130728628D01*
X129892857Y-130728628D02*
X129511905Y-130728628D01*
X130464286Y-130300057D02*
X130511905Y-130252438D01*
X130511905Y-130252438D02*
X130607143Y-130204819D01*
X130607143Y-130204819D02*
X130845238Y-130204819D01*
X130845238Y-130204819D02*
X130940476Y-130252438D01*
X130940476Y-130252438D02*
X130988095Y-130300057D01*
X130988095Y-130300057D02*
X131035714Y-130395295D01*
X131035714Y-130395295D02*
X131035714Y-130490533D01*
X131035714Y-130490533D02*
X130988095Y-130633390D01*
X130988095Y-130633390D02*
X130416667Y-131204819D01*
X130416667Y-131204819D02*
X131035714Y-131204819D01*
X172416666Y-69684819D02*
X172416666Y-70399104D01*
X172416666Y-70399104D02*
X172369047Y-70541961D01*
X172369047Y-70541961D02*
X172273809Y-70637200D01*
X172273809Y-70637200D02*
X172130952Y-70684819D01*
X172130952Y-70684819D02*
X172035714Y-70684819D01*
X172845238Y-69780057D02*
X172892857Y-69732438D01*
X172892857Y-69732438D02*
X172988095Y-69684819D01*
X172988095Y-69684819D02*
X173226190Y-69684819D01*
X173226190Y-69684819D02*
X173321428Y-69732438D01*
X173321428Y-69732438D02*
X173369047Y-69780057D01*
X173369047Y-69780057D02*
X173416666Y-69875295D01*
X173416666Y-69875295D02*
X173416666Y-69970533D01*
X173416666Y-69970533D02*
X173369047Y-70113390D01*
X173369047Y-70113390D02*
X172797619Y-70684819D01*
X172797619Y-70684819D02*
X173416666Y-70684819D01*
D13*
%TO.C,G\u002A\u002A\u002A*%
G36*
X152704051Y-66306434D02*
G01*
X152733596Y-66324502D01*
X152755535Y-66355646D01*
X152772968Y-66410106D01*
X152766576Y-66457823D01*
X152736953Y-66496680D01*
X152711544Y-66513213D01*
X152672239Y-66529517D01*
X152613480Y-66548782D01*
X152540826Y-66569549D01*
X152459836Y-66590361D01*
X152376070Y-66609758D01*
X152295085Y-66626283D01*
X152250640Y-66634131D01*
X152175330Y-66644396D01*
X152086279Y-66653247D01*
X151990406Y-66660301D01*
X151894632Y-66665177D01*
X151805875Y-66667493D01*
X151731057Y-66666865D01*
X151694700Y-66664830D01*
X151529571Y-66647167D01*
X151378580Y-66622923D01*
X151230929Y-66590352D01*
X151226170Y-66589161D01*
X151143278Y-66567006D01*
X151082357Y-66546946D01*
X151040299Y-66527060D01*
X151013995Y-66505427D01*
X151000335Y-66480128D01*
X150996212Y-66449242D01*
X150996200Y-66447101D01*
X151004227Y-66393486D01*
X151029931Y-66356225D01*
X151064685Y-66335601D01*
X151084977Y-66328704D01*
X151106671Y-66326320D01*
X151135301Y-66329044D01*
X151176399Y-66337470D01*
X151235501Y-66352192D01*
X151246976Y-66355165D01*
X151375275Y-66385870D01*
X151492825Y-66407670D01*
X151607786Y-66421442D01*
X151728317Y-66428062D01*
X151862580Y-66428407D01*
X151916950Y-66427132D01*
X152048570Y-66421422D01*
X152162629Y-66411784D01*
X152266818Y-66397003D01*
X152368829Y-66375866D01*
X152476355Y-66347161D01*
X152533774Y-66329844D01*
X152607924Y-66309546D01*
X152663421Y-66301596D01*
X152704051Y-66306434D01*
G37*
G36*
X157842156Y-65571478D02*
G01*
X157989522Y-65592357D01*
X158121045Y-65625677D01*
X158235460Y-65670917D01*
X158331503Y-65727558D01*
X158407911Y-65795081D01*
X158463419Y-65872967D01*
X158496763Y-65960694D01*
X158500452Y-65978232D01*
X158506275Y-66072710D01*
X158488369Y-66160495D01*
X158447744Y-66240645D01*
X158385411Y-66312216D01*
X158302380Y-66374265D01*
X158199664Y-66425849D01*
X158078271Y-66466024D01*
X157949450Y-66492330D01*
X157838288Y-66504804D01*
X157713347Y-66511416D01*
X157585640Y-66511834D01*
X157476290Y-66506551D01*
X157324953Y-66487604D01*
X157190519Y-66456223D01*
X157073973Y-66413189D01*
X156976296Y-66359282D01*
X156898473Y-66295284D01*
X156841487Y-66221973D01*
X156806319Y-66140132D01*
X156793954Y-66050540D01*
X156794357Y-66046399D01*
X157143000Y-66046399D01*
X157146027Y-66086261D01*
X157158838Y-66115186D01*
X157187023Y-66145770D01*
X157187175Y-66145913D01*
X157243645Y-66185536D01*
X157320202Y-66216090D01*
X157418852Y-66238357D01*
X157429203Y-66240031D01*
X157484363Y-66245565D01*
X157556141Y-66248267D01*
X157638104Y-66248355D01*
X157723818Y-66246047D01*
X157806852Y-66241560D01*
X157880771Y-66235114D01*
X157939144Y-66226926D01*
X157961420Y-66221997D01*
X158046622Y-66191368D01*
X158107951Y-66152125D01*
X158145395Y-66104278D01*
X158158946Y-66047835D01*
X158159000Y-66043750D01*
X158147590Y-65987934D01*
X158113069Y-65940260D01*
X158054999Y-65900319D01*
X157972943Y-65867705D01*
X157968500Y-65866348D01*
X157914377Y-65854708D01*
X157841664Y-65845659D01*
X157757059Y-65839462D01*
X157667266Y-65836376D01*
X157578984Y-65836663D01*
X157498915Y-65840583D01*
X157447813Y-65846131D01*
X157342850Y-65866110D01*
X157261413Y-65892349D01*
X157202209Y-65925697D01*
X157163949Y-65967003D01*
X157145340Y-66017116D01*
X157143000Y-66046399D01*
X156794357Y-66046399D01*
X156801694Y-65970943D01*
X156831817Y-65881834D01*
X156884621Y-65802582D01*
X156959158Y-65733730D01*
X157054481Y-65675820D01*
X157169641Y-65629394D01*
X157303690Y-65594992D01*
X157455681Y-65573158D01*
X157504950Y-65569117D01*
X157680211Y-65563558D01*
X157842156Y-65571478D01*
G37*
G36*
X155936500Y-64474941D02*
G01*
X155936500Y-64957900D01*
X156114300Y-64957900D01*
X156292100Y-64957900D01*
X156292100Y-65097600D01*
X156292100Y-65237300D01*
X156114300Y-65237300D01*
X155936500Y-65237300D01*
X155936500Y-65872300D01*
X155936500Y-66507300D01*
X155758638Y-66507300D01*
X155580776Y-66507300D01*
X155584013Y-65253175D01*
X155587250Y-63999050D01*
X155761875Y-63995516D01*
X155936500Y-63991983D01*
X155936500Y-64474941D01*
G37*
G36*
X160835525Y-63995516D02*
G01*
X161010150Y-63999050D01*
X161013475Y-64484825D01*
X161016801Y-64970600D01*
X161194450Y-64970600D01*
X161372100Y-64970600D01*
X161372100Y-65110300D01*
X161372100Y-65250000D01*
X161194300Y-65250000D01*
X161016500Y-65250000D01*
X161016500Y-65878650D01*
X161016500Y-66507300D01*
X160838700Y-66507300D01*
X160660900Y-66507300D01*
X160660900Y-65249641D01*
X160660900Y-63991983D01*
X160835525Y-63995516D01*
G37*
G36*
X151960801Y-63840780D02*
G01*
X152041109Y-63849476D01*
X152057103Y-63852349D01*
X152231560Y-63899134D01*
X152393272Y-63967257D01*
X152540908Y-64055387D01*
X152673138Y-64162194D01*
X152788630Y-64286351D01*
X152886055Y-64426526D01*
X152964082Y-64581391D01*
X153021380Y-64749616D01*
X153041355Y-64835855D01*
X153049677Y-64898121D01*
X153054411Y-64976616D01*
X153055558Y-65062419D01*
X153053117Y-65146615D01*
X153047089Y-65220285D01*
X153041358Y-65257744D01*
X153026143Y-65322853D01*
X153005147Y-65396995D01*
X152981121Y-65471612D01*
X152956814Y-65538143D01*
X152935724Y-65586550D01*
X152863764Y-65707801D01*
X152772666Y-65825980D01*
X152667534Y-65935901D01*
X152553472Y-66032381D01*
X152435583Y-66110235D01*
X152402689Y-66127937D01*
X152278186Y-66181222D01*
X152140844Y-66222236D01*
X151998602Y-66249392D01*
X151859398Y-66261106D01*
X151751850Y-66257963D01*
X151574424Y-66230133D01*
X151408870Y-66179895D01*
X151254610Y-66106983D01*
X151111071Y-66011131D01*
X150992175Y-65906613D01*
X150875324Y-65774669D01*
X150781818Y-65632841D01*
X150711540Y-65480847D01*
X150664374Y-65318407D01*
X150640204Y-65145240D01*
X150637117Y-65059197D01*
X151036948Y-65059197D01*
X151044724Y-65154095D01*
X151077326Y-65295388D01*
X151131621Y-65425043D01*
X151205902Y-65541301D01*
X151298464Y-65642400D01*
X151407599Y-65726582D01*
X151531601Y-65792087D01*
X151668762Y-65837153D01*
X151717016Y-65847312D01*
X151794492Y-65854647D01*
X151885555Y-65852593D01*
X151980530Y-65841960D01*
X152069742Y-65823556D01*
X152097509Y-65815524D01*
X152220833Y-65763600D01*
X152334156Y-65690301D01*
X152434679Y-65598611D01*
X152519599Y-65491515D01*
X152586115Y-65371996D01*
X152630075Y-65248264D01*
X152644219Y-65169012D01*
X152650516Y-65076085D01*
X152648966Y-64979963D01*
X152639570Y-64891128D01*
X152630035Y-64845179D01*
X152584024Y-64716822D01*
X152517725Y-64599811D01*
X152433810Y-64495983D01*
X152334952Y-64407178D01*
X152223825Y-64335236D01*
X152103099Y-64281996D01*
X151975449Y-64249298D01*
X151843546Y-64238980D01*
X151757966Y-64244993D01*
X151627026Y-64269980D01*
X151513027Y-64309358D01*
X151414718Y-64362371D01*
X151302410Y-64449150D01*
X151208108Y-64551380D01*
X151133112Y-64666279D01*
X151078720Y-64791069D01*
X151046232Y-64922968D01*
X151036948Y-65059197D01*
X150637117Y-65059197D01*
X150636672Y-65046800D01*
X150647991Y-64868638D01*
X150682585Y-64700631D01*
X150740438Y-64542819D01*
X150821535Y-64395241D01*
X150925860Y-64257936D01*
X150980488Y-64199401D01*
X151106563Y-64086286D01*
X151239343Y-63995789D01*
X151382947Y-63925651D01*
X151541489Y-63873610D01*
X151598967Y-63859761D01*
X151677009Y-63847250D01*
X151769497Y-63839817D01*
X151867179Y-63837610D01*
X151960801Y-63840780D01*
G37*
G36*
X160337707Y-64307025D02*
G01*
X160334319Y-64340929D01*
X160330295Y-64391582D01*
X160326295Y-64450364D01*
X160324617Y-64478243D01*
X160300016Y-64690250D01*
X160251516Y-64895293D01*
X160180032Y-65091825D01*
X160086479Y-65278298D01*
X159971775Y-65453165D01*
X159836834Y-65614876D01*
X159682573Y-65761885D01*
X159509908Y-65892644D01*
X159473450Y-65916579D01*
X159430006Y-65943690D01*
X159379648Y-65974003D01*
X159327277Y-66004710D01*
X159277792Y-66033005D01*
X159236094Y-66056078D01*
X159207083Y-66071122D01*
X159196103Y-66075500D01*
X159187777Y-66065857D01*
X159167417Y-66039473D01*
X159137910Y-66000159D01*
X159102142Y-65951729D01*
X159094765Y-65941659D01*
X158996849Y-65807819D01*
X159036562Y-65786084D01*
X159219712Y-65678298D01*
X159379331Y-65567784D01*
X159517267Y-65452762D01*
X159635373Y-65331451D01*
X159735497Y-65202071D01*
X159819490Y-65062842D01*
X159848741Y-65004508D01*
X159888632Y-64910188D01*
X159923905Y-64807217D01*
X159951542Y-64705463D01*
X159968523Y-64614794D01*
X159968918Y-64611696D01*
X159978026Y-64538800D01*
X159557463Y-64538800D01*
X159136900Y-64538800D01*
X159136900Y-64399100D01*
X159136900Y-64259400D01*
X159740300Y-64259400D01*
X160343700Y-64259400D01*
X160337707Y-64307025D01*
G37*
G36*
X154377464Y-64916625D02*
G01*
X154380750Y-65599250D01*
X154552200Y-65595518D01*
X154720555Y-65587926D01*
X154902798Y-65572685D01*
X155088928Y-65550777D01*
X155241658Y-65527825D01*
X155302689Y-65518083D01*
X155354077Y-65510714D01*
X155390973Y-65506350D01*
X155408530Y-65505625D01*
X155409246Y-65505913D01*
X155413651Y-65520694D01*
X155419428Y-65553905D01*
X155425847Y-65599279D01*
X155432179Y-65650545D01*
X155437694Y-65701437D01*
X155441663Y-65745685D01*
X155443357Y-65777020D01*
X155442198Y-65789117D01*
X155424512Y-65794179D01*
X155386035Y-65801750D01*
X155331175Y-65811165D01*
X155264343Y-65821756D01*
X155189947Y-65832855D01*
X155112397Y-65843796D01*
X155036101Y-65853911D01*
X154965469Y-65862534D01*
X154933200Y-65866126D01*
X154869196Y-65871797D01*
X154785600Y-65877458D01*
X154688214Y-65882814D01*
X154582844Y-65887570D01*
X154475295Y-65891431D01*
X154390275Y-65893706D01*
X154031500Y-65901636D01*
X154031500Y-65067818D01*
X154031500Y-64234000D01*
X154202839Y-64234000D01*
X154374179Y-64234000D01*
X154377464Y-64916625D01*
G37*
G36*
X158489200Y-64297500D02*
G01*
X158489200Y-64589600D01*
X158661065Y-64589600D01*
X158832931Y-64589600D01*
X158829340Y-64732475D01*
X158825750Y-64875350D01*
X158657475Y-64878893D01*
X158489200Y-64882437D01*
X158489200Y-65193218D01*
X158489200Y-65504000D01*
X158311400Y-65504000D01*
X158133600Y-65504000D01*
X158133600Y-64754700D01*
X158133600Y-64005400D01*
X158311400Y-64005400D01*
X158489200Y-64005400D01*
X158489200Y-64297500D01*
G37*
G36*
X157727200Y-64519439D02*
G01*
X157727200Y-64894038D01*
X157330325Y-64897394D01*
X156933450Y-64900750D01*
X156929780Y-65011875D01*
X156926111Y-65123000D01*
X157037730Y-65122820D01*
X157128845Y-65121198D01*
X157237475Y-65116918D01*
X157355933Y-65110475D01*
X157476530Y-65102362D01*
X157591578Y-65093075D01*
X157693389Y-65083109D01*
X157739900Y-65077651D01*
X157802748Y-65069766D01*
X157858119Y-65062959D01*
X157900207Y-65057935D01*
X157923205Y-65055397D01*
X157923765Y-65055346D01*
X157935403Y-65056742D01*
X157944112Y-65066193D01*
X157951342Y-65088029D01*
X157958543Y-65126577D01*
X157966874Y-65184031D01*
X157973900Y-65243857D01*
X157976986Y-65290433D01*
X157975916Y-65319140D01*
X157973508Y-65325610D01*
X157955337Y-65332399D01*
X157915956Y-65340718D01*
X157859472Y-65350013D01*
X157789987Y-65359730D01*
X157711609Y-65369313D01*
X157628441Y-65378207D01*
X157544588Y-65385858D01*
X157504950Y-65388952D01*
X157441820Y-65392925D01*
X157365015Y-65396720D01*
X157277909Y-65400266D01*
X157183873Y-65403495D01*
X157086279Y-65406337D01*
X156988500Y-65408721D01*
X156893909Y-65410578D01*
X156805877Y-65411839D01*
X156727777Y-65412434D01*
X156662981Y-65412293D01*
X156614862Y-65411347D01*
X156586792Y-65409525D01*
X156581025Y-65408038D01*
X156578625Y-65393301D01*
X156576448Y-65356386D01*
X156574571Y-65300516D01*
X156573074Y-65228912D01*
X156572035Y-65144796D01*
X156571534Y-65051390D01*
X156571500Y-65019283D01*
X156571500Y-64640400D01*
X156977900Y-64640400D01*
X157384300Y-64640400D01*
X157384300Y-64532450D01*
X157384300Y-64424500D01*
X156977470Y-64424500D01*
X156570640Y-64424500D01*
X156574245Y-64287975D01*
X156577850Y-64151450D01*
X157152525Y-64148145D01*
X157727200Y-64144841D01*
X157727200Y-64519439D01*
G37*
%TO.C,TP4*%
D14*
X105450000Y-86000000D02*
G75*
G02*
X103050000Y-86000000I-1200000J0D01*
G01*
X103050000Y-86000000D02*
G75*
G02*
X105450000Y-86000000I1200000J0D01*
G01*
%TO.C,C8*%
X151776248Y-123015000D02*
X152298752Y-123015000D01*
X151776248Y-124485000D02*
X152298752Y-124485000D01*
%TO.C,J14*%
D10*
X101550000Y-93800000D02*
X109550000Y-93800000D01*
X109550000Y-104200000D01*
X101550000Y-104200000D01*
X101550000Y-93800000D01*
X109552000Y-101540000D02*
X109806000Y-101794000D01*
X109806000Y-101286000D01*
X109552000Y-101540000D01*
G36*
X109806000Y-101794000D02*
G01*
X109552000Y-101540000D01*
X109806000Y-101286000D01*
X109806000Y-101794000D01*
G37*
%TO.C,J4*%
D14*
X104970000Y-79660000D02*
X104970000Y-82320000D01*
X117730000Y-79660000D02*
X104970000Y-79660000D01*
X117730000Y-79660000D02*
X117730000Y-82320000D01*
X117730000Y-82320000D02*
X104970000Y-82320000D01*
X120330000Y-80990000D02*
X120330000Y-82320000D01*
X120330000Y-82320000D02*
X119000000Y-82320000D01*
%TO.C,D4*%
X116850000Y-103510000D02*
X116850000Y-96500000D01*
X116850000Y-103510000D02*
X120150000Y-103510000D01*
X120150000Y-103510000D02*
X120150000Y-96500000D01*
%TO.C,C12*%
X160015000Y-58298752D02*
X160015000Y-57776248D01*
X161485000Y-58298752D02*
X161485000Y-57776248D01*
%TO.C,D2*%
X134275000Y-129960000D02*
X137135000Y-129960000D01*
X137135000Y-128040000D02*
X134275000Y-128040000D01*
X137135000Y-129960000D02*
X137135000Y-128040000D01*
%TO.C,J1*%
X146020000Y-74270000D02*
X146020000Y-127670000D01*
X146020000Y-74270000D02*
X148680000Y-74270000D01*
X146020000Y-127670000D02*
X148680000Y-127670000D01*
X147350000Y-71670000D02*
X148680000Y-71670000D01*
X148680000Y-71670000D02*
X148680000Y-73000000D01*
X148680000Y-74270000D02*
X148680000Y-127670000D01*
%TO.C,J6*%
X104920000Y-131170000D02*
X106250000Y-131170000D01*
X104920000Y-132500000D02*
X104920000Y-131170000D01*
X107520000Y-131170000D02*
X120280000Y-131170000D01*
X107520000Y-133830000D02*
X107520000Y-131170000D01*
X107520000Y-133830000D02*
X120280000Y-133830000D01*
X120280000Y-133830000D02*
X120280000Y-131170000D01*
%TO.C,J11*%
X125220000Y-124240000D02*
X125220000Y-126900000D01*
X137980000Y-124240000D02*
X125220000Y-124240000D01*
X137980000Y-124240000D02*
X137980000Y-126900000D01*
X137980000Y-126900000D02*
X125220000Y-126900000D01*
X140580000Y-125570000D02*
X140580000Y-126900000D01*
X140580000Y-126900000D02*
X139250000Y-126900000D01*
%TO.C,J7*%
X104920000Y-115930000D02*
X106250000Y-115930000D01*
X104920000Y-117260000D02*
X104920000Y-115930000D01*
X107520000Y-115930000D02*
X120280000Y-115930000D01*
X107520000Y-118590000D02*
X107520000Y-115930000D01*
X107520000Y-118590000D02*
X120280000Y-118590000D01*
X120280000Y-118590000D02*
X120280000Y-115930000D01*
%TO.C,J8*%
X167670000Y-57170000D02*
X169000000Y-57170000D01*
X167670000Y-58500000D02*
X167670000Y-57170000D01*
X170270000Y-57170000D02*
X185570000Y-57170000D01*
X170270000Y-59830000D02*
X170270000Y-57170000D01*
X170270000Y-59830000D02*
X185570000Y-59830000D01*
X185570000Y-59830000D02*
X185570000Y-57170000D01*
%TO.C,C7*%
X145460000Y-134000000D02*
X143920000Y-134000000D01*
X145460000Y-134040000D02*
X143920000Y-134040000D01*
X145460000Y-134080000D02*
X143921000Y-134080000D01*
X145460000Y-134120000D02*
X143923000Y-134120000D01*
X145460000Y-134160000D02*
X143925000Y-134160000D01*
X145460000Y-134200000D02*
X143928000Y-134200000D01*
X145460000Y-134240000D02*
X143931000Y-134240000D01*
X145460000Y-134280000D02*
X143935000Y-134280000D01*
X145460000Y-134320000D02*
X143940000Y-134320000D01*
X145460000Y-134360000D02*
X143945000Y-134360000D01*
X145460000Y-134400000D02*
X143951000Y-134400000D01*
X145460000Y-134440000D02*
X143957000Y-134440000D01*
X145460000Y-134480000D02*
X143964000Y-134480000D01*
X145460000Y-134520000D02*
X143972000Y-134520000D01*
X145460000Y-134560000D02*
X143981000Y-134560000D01*
X145460000Y-134600000D02*
X143990000Y-134600000D01*
X145460000Y-134640000D02*
X143999000Y-134640000D01*
X145460000Y-134680000D02*
X144010000Y-134680000D01*
X145460000Y-134720000D02*
X144021000Y-134720000D01*
X145460000Y-134760000D02*
X144033000Y-134760000D01*
X145460000Y-134800000D02*
X144045000Y-134800000D01*
X145460000Y-134840000D02*
X144058000Y-134840000D01*
X145460000Y-134880000D02*
X144072000Y-134880000D01*
X145460000Y-134920000D02*
X144087000Y-134920000D01*
X145460000Y-134960000D02*
X144102000Y-134960000D01*
X145460000Y-135000000D02*
X144118000Y-135000000D01*
X145460000Y-135040000D02*
X144135000Y-135040000D01*
X145460000Y-135080000D02*
X144153000Y-135080000D01*
X145460000Y-135120000D02*
X144171000Y-135120000D01*
X145460000Y-135160000D02*
X144191000Y-135160000D01*
X145460000Y-135200000D02*
X144211000Y-135200000D01*
X145460000Y-135240000D02*
X144232000Y-135240000D01*
X145460000Y-135280000D02*
X144254000Y-135280000D01*
X145460000Y-135320000D02*
X144277000Y-135320000D01*
X145460000Y-135360000D02*
X144301000Y-135360000D01*
X145460000Y-135400000D02*
X144325000Y-135400000D01*
X145460000Y-135440000D02*
X144351000Y-135440000D01*
X145460000Y-135480000D02*
X144378000Y-135480000D01*
X145460000Y-135520000D02*
X144406000Y-135520000D01*
X145460000Y-135560000D02*
X144435000Y-135560000D01*
X145460000Y-135600000D02*
X144465000Y-135600000D01*
X145460000Y-135640000D02*
X144497000Y-135640000D01*
X145460000Y-135680000D02*
X144530000Y-135680000D01*
X145460000Y-135720000D02*
X144564000Y-135720000D01*
X145460000Y-135760000D02*
X144599000Y-135760000D01*
X145460000Y-135800000D02*
X144636000Y-135800000D01*
X145460000Y-135840000D02*
X144675000Y-135840000D01*
X145460000Y-135880000D02*
X144715000Y-135880000D01*
X145460000Y-135920000D02*
X144757000Y-135920000D01*
X145460000Y-135960000D02*
X144801000Y-135960000D01*
X145460000Y-136000000D02*
X144848000Y-136000000D01*
X146783000Y-136600000D02*
X146217000Y-136600000D01*
X147017000Y-136560000D02*
X145983000Y-136560000D01*
X147177000Y-136520000D02*
X145823000Y-136520000D01*
X147305000Y-136480000D02*
X145695000Y-136480000D01*
X147414000Y-136440000D02*
X145586000Y-136440000D01*
X147511000Y-136400000D02*
X145489000Y-136400000D01*
X147598000Y-136360000D02*
X145402000Y-136360000D01*
X147677000Y-136320000D02*
X145323000Y-136320000D01*
X147751000Y-136280000D02*
X145249000Y-136280000D01*
X147819000Y-136240000D02*
X145181000Y-136240000D01*
X147883000Y-136200000D02*
X145117000Y-136200000D01*
X147943000Y-136160000D02*
X145057000Y-136160000D01*
X147975000Y-131195225D02*
X147975000Y-131695225D01*
X147999000Y-136120000D02*
X145001000Y-136120000D01*
X148053000Y-136080000D02*
X144947000Y-136080000D01*
X148104000Y-136040000D02*
X144896000Y-136040000D01*
X148152000Y-136000000D02*
X147540000Y-136000000D01*
X148199000Y-135960000D02*
X147540000Y-135960000D01*
X148225000Y-131445225D02*
X147725000Y-131445225D01*
X148243000Y-135920000D02*
X147540000Y-135920000D01*
X148285000Y-135880000D02*
X147540000Y-135880000D01*
X148325000Y-135840000D02*
X147540000Y-135840000D01*
X148364000Y-135800000D02*
X147540000Y-135800000D01*
X148401000Y-135760000D02*
X147540000Y-135760000D01*
X148436000Y-135720000D02*
X147540000Y-135720000D01*
X148470000Y-135680000D02*
X147540000Y-135680000D01*
X148503000Y-135640000D02*
X147540000Y-135640000D01*
X148535000Y-135600000D02*
X147540000Y-135600000D01*
X148565000Y-135560000D02*
X147540000Y-135560000D01*
X148594000Y-135520000D02*
X147540000Y-135520000D01*
X148622000Y-135480000D02*
X147540000Y-135480000D01*
X148649000Y-135440000D02*
X147540000Y-135440000D01*
X148675000Y-135400000D02*
X147540000Y-135400000D01*
X148699000Y-135360000D02*
X147540000Y-135360000D01*
X148723000Y-135320000D02*
X147540000Y-135320000D01*
X148746000Y-135280000D02*
X147540000Y-135280000D01*
X148768000Y-135240000D02*
X147540000Y-135240000D01*
X148789000Y-135200000D02*
X147540000Y-135200000D01*
X148809000Y-135160000D02*
X147540000Y-135160000D01*
X148829000Y-135120000D02*
X147540000Y-135120000D01*
X148847000Y-135080000D02*
X147540000Y-135080000D01*
X148865000Y-135040000D02*
X147540000Y-135040000D01*
X148882000Y-135000000D02*
X147540000Y-135000000D01*
X148898000Y-134960000D02*
X147540000Y-134960000D01*
X148913000Y-134920000D02*
X147540000Y-134920000D01*
X148928000Y-134880000D02*
X147540000Y-134880000D01*
X148942000Y-134840000D02*
X147540000Y-134840000D01*
X148955000Y-134800000D02*
X147540000Y-134800000D01*
X148967000Y-134760000D02*
X147540000Y-134760000D01*
X148979000Y-134720000D02*
X147540000Y-134720000D01*
X148990000Y-134680000D02*
X147540000Y-134680000D01*
X149001000Y-134640000D02*
X147540000Y-134640000D01*
X149010000Y-134600000D02*
X147540000Y-134600000D01*
X149019000Y-134560000D02*
X147540000Y-134560000D01*
X149028000Y-134520000D02*
X147540000Y-134520000D01*
X149036000Y-134480000D02*
X147540000Y-134480000D01*
X149043000Y-134440000D02*
X147540000Y-134440000D01*
X149049000Y-134400000D02*
X147540000Y-134400000D01*
X149055000Y-134360000D02*
X147540000Y-134360000D01*
X149060000Y-134320000D02*
X147540000Y-134320000D01*
X149065000Y-134280000D02*
X147540000Y-134280000D01*
X149069000Y-134240000D02*
X147540000Y-134240000D01*
X149072000Y-134200000D02*
X147540000Y-134200000D01*
X149075000Y-134160000D02*
X147540000Y-134160000D01*
X149077000Y-134120000D02*
X147540000Y-134120000D01*
X149079000Y-134080000D02*
X147540000Y-134080000D01*
X149080000Y-134000000D02*
X147540000Y-134000000D01*
X149080000Y-134040000D02*
X147540000Y-134040000D01*
X149120000Y-134000000D02*
G75*
G02*
X143880000Y-134000000I-2620000J0D01*
G01*
X143880000Y-134000000D02*
G75*
G02*
X149120000Y-134000000I2620000J0D01*
G01*
%TO.C,C2*%
X125765000Y-98026248D02*
X125765000Y-98548752D01*
X127235000Y-98026248D02*
X127235000Y-98548752D01*
%TO.C,C1*%
X133210000Y-98720000D02*
X130233000Y-98720000D01*
X133210000Y-98760000D02*
X130241000Y-98760000D01*
X133210000Y-98800000D02*
X130248000Y-98800000D01*
X133210000Y-98840000D02*
X130257000Y-98840000D01*
X133210000Y-98880000D02*
X130265000Y-98880000D01*
X133210000Y-98920000D02*
X130274000Y-98920000D01*
X133210000Y-98960000D02*
X130283000Y-98960000D01*
X133210000Y-99000000D02*
X130293000Y-99000000D01*
X133210000Y-99040000D02*
X130303000Y-99040000D01*
X133210000Y-99080000D02*
X130314000Y-99080000D01*
X133210000Y-99120000D02*
X130325000Y-99120000D01*
X133210000Y-99160000D02*
X130337000Y-99160000D01*
X133210000Y-99200000D02*
X130349000Y-99200000D01*
X133210000Y-99240000D02*
X130361000Y-99240000D01*
X133210000Y-99280000D02*
X130374000Y-99280000D01*
X133210000Y-99320000D02*
X130387000Y-99320000D01*
X133210000Y-99360000D02*
X130401000Y-99360000D01*
X133210000Y-99400000D02*
X130415000Y-99400000D01*
X133210000Y-99440000D02*
X130430000Y-99440000D01*
X133210000Y-99480000D02*
X130445000Y-99480000D01*
X133210000Y-99520000D02*
X130461000Y-99520000D01*
X133210000Y-99560000D02*
X130477000Y-99560000D01*
X133210000Y-99600000D02*
X130493000Y-99600000D01*
X133210000Y-99640000D02*
X130510000Y-99640000D01*
X133210000Y-99680000D02*
X130528000Y-99680000D01*
X133210000Y-99720000D02*
X130546000Y-99720000D01*
X133210000Y-99760000D02*
X130565000Y-99760000D01*
X133210000Y-99800000D02*
X130584000Y-99800000D01*
X133210000Y-99840000D02*
X130604000Y-99840000D01*
X133210000Y-99880000D02*
X130624000Y-99880000D01*
X133210000Y-99920000D02*
X130645000Y-99920000D01*
X133210000Y-99960000D02*
X130666000Y-99960000D01*
X133210000Y-100000000D02*
X130688000Y-100000000D01*
X133210000Y-100040000D02*
X130711000Y-100040000D01*
X133210000Y-100080000D02*
X130734000Y-100080000D01*
X133210000Y-100120000D02*
X130757000Y-100120000D01*
X133210000Y-100160000D02*
X130782000Y-100160000D01*
X133210000Y-100200000D02*
X130807000Y-100200000D01*
X133210000Y-100240000D02*
X130832000Y-100240000D01*
X133210000Y-100280000D02*
X130858000Y-100280000D01*
X133210000Y-100320000D02*
X130885000Y-100320000D01*
X133210000Y-100360000D02*
X130913000Y-100360000D01*
X133210000Y-100400000D02*
X130941000Y-100400000D01*
X133210000Y-100440000D02*
X130970000Y-100440000D01*
X133210000Y-100480000D02*
X131000000Y-100480000D01*
X133210000Y-100520000D02*
X131031000Y-100520000D01*
X133210000Y-100560000D02*
X131062000Y-100560000D01*
X133210000Y-100600000D02*
X131094000Y-100600000D01*
X133210000Y-100640000D02*
X131127000Y-100640000D01*
X133210000Y-100680000D02*
X131161000Y-100680000D01*
X133210000Y-100720000D02*
X131195000Y-100720000D01*
X133210000Y-100760000D02*
X131231000Y-100760000D01*
X134783000Y-102080000D02*
X133717000Y-102080000D01*
X135018000Y-102040000D02*
X133482000Y-102040000D01*
X135197000Y-102000000D02*
X133303000Y-102000000D01*
X135347000Y-101960000D02*
X133153000Y-101960000D01*
X135478000Y-101920000D02*
X133022000Y-101920000D01*
X135596000Y-101880000D02*
X132904000Y-101880000D01*
X135703000Y-101840000D02*
X132797000Y-101840000D01*
X135802000Y-101800000D02*
X132698000Y-101800000D01*
X135894000Y-101760000D02*
X132606000Y-101760000D01*
X135981000Y-101720000D02*
X132519000Y-101720000D01*
X136063000Y-101680000D02*
X132437000Y-101680000D01*
X136140000Y-101640000D02*
X132360000Y-101640000D01*
X136214000Y-101600000D02*
X132286000Y-101600000D01*
X136284000Y-101560000D02*
X132216000Y-101560000D01*
X136351000Y-101520000D02*
X132149000Y-101520000D01*
X136415000Y-101480000D02*
X132085000Y-101480000D01*
X136477000Y-101440000D02*
X132023000Y-101440000D01*
X136537000Y-101400000D02*
X131963000Y-101400000D01*
X136565000Y-93590302D02*
X136565000Y-94390302D01*
X136594000Y-101360000D02*
X131906000Y-101360000D01*
X136650000Y-101320000D02*
X131850000Y-101320000D01*
X136703000Y-101280000D02*
X131797000Y-101280000D01*
X136755000Y-101240000D02*
X131745000Y-101240000D01*
X136805000Y-101200000D02*
X131695000Y-101200000D01*
X136854000Y-101160000D02*
X131646000Y-101160000D01*
X136901000Y-101120000D02*
X131599000Y-101120000D01*
X136946000Y-101080000D02*
X131554000Y-101080000D01*
X136965000Y-93990302D02*
X136165000Y-93990302D01*
X136991000Y-101040000D02*
X131509000Y-101040000D01*
X137034000Y-101000000D02*
X131466000Y-101000000D01*
X137076000Y-100960000D02*
X131424000Y-100960000D01*
X137117000Y-100920000D02*
X131383000Y-100920000D01*
X137156000Y-100880000D02*
X131344000Y-100880000D01*
X137195000Y-100840000D02*
X131305000Y-100840000D01*
X137232000Y-100800000D02*
X131268000Y-100800000D01*
X137269000Y-100760000D02*
X135290000Y-100760000D01*
X137305000Y-100720000D02*
X135290000Y-100720000D01*
X137339000Y-100680000D02*
X135290000Y-100680000D01*
X137373000Y-100640000D02*
X135290000Y-100640000D01*
X137406000Y-100600000D02*
X135290000Y-100600000D01*
X137438000Y-100560000D02*
X135290000Y-100560000D01*
X137469000Y-100520000D02*
X135290000Y-100520000D01*
X137500000Y-100480000D02*
X135290000Y-100480000D01*
X137530000Y-100440000D02*
X135290000Y-100440000D01*
X137559000Y-100400000D02*
X135290000Y-100400000D01*
X137587000Y-100360000D02*
X135290000Y-100360000D01*
X137615000Y-100320000D02*
X135290000Y-100320000D01*
X137642000Y-100280000D02*
X135290000Y-100280000D01*
X137668000Y-100240000D02*
X135290000Y-100240000D01*
X137693000Y-100200000D02*
X135290000Y-100200000D01*
X137718000Y-100160000D02*
X135290000Y-100160000D01*
X137743000Y-100120000D02*
X135290000Y-100120000D01*
X137766000Y-100080000D02*
X135290000Y-100080000D01*
X137789000Y-100040000D02*
X135290000Y-100040000D01*
X137812000Y-100000000D02*
X135290000Y-100000000D01*
X137834000Y-99960000D02*
X135290000Y-99960000D01*
X137855000Y-99920000D02*
X135290000Y-99920000D01*
X137876000Y-99880000D02*
X135290000Y-99880000D01*
X137896000Y-99840000D02*
X135290000Y-99840000D01*
X137916000Y-99800000D02*
X135290000Y-99800000D01*
X137935000Y-99760000D02*
X135290000Y-99760000D01*
X137954000Y-99720000D02*
X135290000Y-99720000D01*
X137972000Y-99680000D02*
X135290000Y-99680000D01*
X137990000Y-99640000D02*
X135290000Y-99640000D01*
X138007000Y-99600000D02*
X135290000Y-99600000D01*
X138023000Y-99560000D02*
X135290000Y-99560000D01*
X138039000Y-99520000D02*
X135290000Y-99520000D01*
X138055000Y-99480000D02*
X135290000Y-99480000D01*
X138070000Y-99440000D02*
X135290000Y-99440000D01*
X138085000Y-99400000D02*
X135290000Y-99400000D01*
X138099000Y-99360000D02*
X135290000Y-99360000D01*
X138113000Y-99320000D02*
X135290000Y-99320000D01*
X138126000Y-99280000D02*
X135290000Y-99280000D01*
X138139000Y-99240000D02*
X135290000Y-99240000D01*
X138151000Y-99200000D02*
X135290000Y-99200000D01*
X138163000Y-99160000D02*
X135290000Y-99160000D01*
X138175000Y-99120000D02*
X135290000Y-99120000D01*
X138186000Y-99080000D02*
X135290000Y-99080000D01*
X138197000Y-99040000D02*
X135290000Y-99040000D01*
X138207000Y-99000000D02*
X135290000Y-99000000D01*
X138217000Y-98960000D02*
X135290000Y-98960000D01*
X138226000Y-98920000D02*
X135290000Y-98920000D01*
X138235000Y-98880000D02*
X135290000Y-98880000D01*
X138243000Y-98840000D02*
X135290000Y-98840000D01*
X138252000Y-98800000D02*
X135290000Y-98800000D01*
X138259000Y-98760000D02*
X135290000Y-98760000D01*
X138267000Y-98720000D02*
X135290000Y-98720000D01*
X138273000Y-98680000D02*
X130227000Y-98680000D01*
X138280000Y-98640000D02*
X130220000Y-98640000D01*
X138286000Y-98600000D02*
X130214000Y-98600000D01*
X138292000Y-98560000D02*
X130208000Y-98560000D01*
X138297000Y-98520000D02*
X130203000Y-98520000D01*
X138302000Y-98480000D02*
X130198000Y-98480000D01*
X138306000Y-98440000D02*
X130194000Y-98440000D01*
X138311000Y-98400000D02*
X130189000Y-98400000D01*
X138314000Y-98360000D02*
X130186000Y-98360000D01*
X138318000Y-98320000D02*
X130182000Y-98320000D01*
X138320000Y-98280000D02*
X130180000Y-98280000D01*
X138323000Y-98240000D02*
X130177000Y-98240000D01*
X138325000Y-98200000D02*
X130175000Y-98200000D01*
X138327000Y-98160000D02*
X130173000Y-98160000D01*
X138328000Y-98120000D02*
X130172000Y-98120000D01*
X138329000Y-98080000D02*
X130171000Y-98080000D01*
X138330000Y-98000000D02*
X130170000Y-98000000D01*
X138330000Y-98040000D02*
X130170000Y-98040000D01*
X138370000Y-98000000D02*
G75*
G02*
X130130000Y-98000000I-4120000J0D01*
G01*
X130130000Y-98000000D02*
G75*
G02*
X138370000Y-98000000I4120000J0D01*
G01*
%TO.C,C9*%
X184276248Y-81135000D02*
X184798752Y-81135000D01*
X184276248Y-82605000D02*
X184798752Y-82605000D01*
%TO.C,J5*%
X104970000Y-64420000D02*
X104970000Y-67080000D01*
X117730000Y-64420000D02*
X104970000Y-64420000D01*
X117730000Y-64420000D02*
X117730000Y-67080000D01*
X117730000Y-67080000D02*
X104970000Y-67080000D01*
X120330000Y-65750000D02*
X120330000Y-67080000D01*
X120330000Y-67080000D02*
X119000000Y-67080000D01*
%TO.C,D3*%
X129615000Y-64290000D02*
X129615000Y-66210000D01*
X129615000Y-66210000D02*
X132475000Y-66210000D01*
X132475000Y-64290000D02*
X129615000Y-64290000D01*
%TO.C,C3*%
X125710000Y-138220000D02*
X122733000Y-138220000D01*
X125710000Y-138260000D02*
X122741000Y-138260000D01*
X125710000Y-138300000D02*
X122748000Y-138300000D01*
X125710000Y-138340000D02*
X122757000Y-138340000D01*
X125710000Y-138380000D02*
X122765000Y-138380000D01*
X125710000Y-138420000D02*
X122774000Y-138420000D01*
X125710000Y-138460000D02*
X122783000Y-138460000D01*
X125710000Y-138500000D02*
X122793000Y-138500000D01*
X125710000Y-138540000D02*
X122803000Y-138540000D01*
X125710000Y-138580000D02*
X122814000Y-138580000D01*
X125710000Y-138620000D02*
X122825000Y-138620000D01*
X125710000Y-138660000D02*
X122837000Y-138660000D01*
X125710000Y-138700000D02*
X122849000Y-138700000D01*
X125710000Y-138740000D02*
X122861000Y-138740000D01*
X125710000Y-138780000D02*
X122874000Y-138780000D01*
X125710000Y-138820000D02*
X122887000Y-138820000D01*
X125710000Y-138860000D02*
X122901000Y-138860000D01*
X125710000Y-138900000D02*
X122915000Y-138900000D01*
X125710000Y-138940000D02*
X122930000Y-138940000D01*
X125710000Y-138980000D02*
X122945000Y-138980000D01*
X125710000Y-139020000D02*
X122961000Y-139020000D01*
X125710000Y-139060000D02*
X122977000Y-139060000D01*
X125710000Y-139100000D02*
X122993000Y-139100000D01*
X125710000Y-139140000D02*
X123010000Y-139140000D01*
X125710000Y-139180000D02*
X123028000Y-139180000D01*
X125710000Y-139220000D02*
X123046000Y-139220000D01*
X125710000Y-139260000D02*
X123065000Y-139260000D01*
X125710000Y-139300000D02*
X123084000Y-139300000D01*
X125710000Y-139340000D02*
X123104000Y-139340000D01*
X125710000Y-139380000D02*
X123124000Y-139380000D01*
X125710000Y-139420000D02*
X123145000Y-139420000D01*
X125710000Y-139460000D02*
X123166000Y-139460000D01*
X125710000Y-139500000D02*
X123188000Y-139500000D01*
X125710000Y-139540000D02*
X123211000Y-139540000D01*
X125710000Y-139580000D02*
X123234000Y-139580000D01*
X125710000Y-139620000D02*
X123257000Y-139620000D01*
X125710000Y-139660000D02*
X123282000Y-139660000D01*
X125710000Y-139700000D02*
X123307000Y-139700000D01*
X125710000Y-139740000D02*
X123332000Y-139740000D01*
X125710000Y-139780000D02*
X123358000Y-139780000D01*
X125710000Y-139820000D02*
X123385000Y-139820000D01*
X125710000Y-139860000D02*
X123413000Y-139860000D01*
X125710000Y-139900000D02*
X123441000Y-139900000D01*
X125710000Y-139940000D02*
X123470000Y-139940000D01*
X125710000Y-139980000D02*
X123500000Y-139980000D01*
X125710000Y-140020000D02*
X123531000Y-140020000D01*
X125710000Y-140060000D02*
X123562000Y-140060000D01*
X125710000Y-140100000D02*
X123594000Y-140100000D01*
X125710000Y-140140000D02*
X123627000Y-140140000D01*
X125710000Y-140180000D02*
X123661000Y-140180000D01*
X125710000Y-140220000D02*
X123695000Y-140220000D01*
X125710000Y-140260000D02*
X123731000Y-140260000D01*
X127283000Y-141580000D02*
X126217000Y-141580000D01*
X127518000Y-141540000D02*
X125982000Y-141540000D01*
X127697000Y-141500000D02*
X125803000Y-141500000D01*
X127847000Y-141460000D02*
X125653000Y-141460000D01*
X127978000Y-141420000D02*
X125522000Y-141420000D01*
X128096000Y-141380000D02*
X125404000Y-141380000D01*
X128203000Y-141340000D02*
X125297000Y-141340000D01*
X128302000Y-141300000D02*
X125198000Y-141300000D01*
X128394000Y-141260000D02*
X125106000Y-141260000D01*
X128481000Y-141220000D02*
X125019000Y-141220000D01*
X128563000Y-141180000D02*
X124937000Y-141180000D01*
X128640000Y-141140000D02*
X124860000Y-141140000D01*
X128714000Y-141100000D02*
X124786000Y-141100000D01*
X128784000Y-141060000D02*
X124716000Y-141060000D01*
X128851000Y-141020000D02*
X124649000Y-141020000D01*
X128915000Y-140980000D02*
X124585000Y-140980000D01*
X128977000Y-140940000D02*
X124523000Y-140940000D01*
X129037000Y-140900000D02*
X124463000Y-140900000D01*
X129065000Y-133090302D02*
X129065000Y-133890302D01*
X129094000Y-140860000D02*
X124406000Y-140860000D01*
X129150000Y-140820000D02*
X124350000Y-140820000D01*
X129203000Y-140780000D02*
X124297000Y-140780000D01*
X129255000Y-140740000D02*
X124245000Y-140740000D01*
X129305000Y-140700000D02*
X124195000Y-140700000D01*
X129354000Y-140660000D02*
X124146000Y-140660000D01*
X129401000Y-140620000D02*
X124099000Y-140620000D01*
X129446000Y-140580000D02*
X124054000Y-140580000D01*
X129465000Y-133490302D02*
X128665000Y-133490302D01*
X129491000Y-140540000D02*
X124009000Y-140540000D01*
X129534000Y-140500000D02*
X123966000Y-140500000D01*
X129576000Y-140460000D02*
X123924000Y-140460000D01*
X129617000Y-140420000D02*
X123883000Y-140420000D01*
X129656000Y-140380000D02*
X123844000Y-140380000D01*
X129695000Y-140340000D02*
X123805000Y-140340000D01*
X129732000Y-140300000D02*
X123768000Y-140300000D01*
X129769000Y-140260000D02*
X127790000Y-140260000D01*
X129805000Y-140220000D02*
X127790000Y-140220000D01*
X129839000Y-140180000D02*
X127790000Y-140180000D01*
X129873000Y-140140000D02*
X127790000Y-140140000D01*
X129906000Y-140100000D02*
X127790000Y-140100000D01*
X129938000Y-140060000D02*
X127790000Y-140060000D01*
X129969000Y-140020000D02*
X127790000Y-140020000D01*
X130000000Y-139980000D02*
X127790000Y-139980000D01*
X130030000Y-139940000D02*
X127790000Y-139940000D01*
X130059000Y-139900000D02*
X127790000Y-139900000D01*
X130087000Y-139860000D02*
X127790000Y-139860000D01*
X130115000Y-139820000D02*
X127790000Y-139820000D01*
X130142000Y-139780000D02*
X127790000Y-139780000D01*
X130168000Y-139740000D02*
X127790000Y-139740000D01*
X130193000Y-139700000D02*
X127790000Y-139700000D01*
X130218000Y-139660000D02*
X127790000Y-139660000D01*
X130243000Y-139620000D02*
X127790000Y-139620000D01*
X130266000Y-139580000D02*
X127790000Y-139580000D01*
X130289000Y-139540000D02*
X127790000Y-139540000D01*
X130312000Y-139500000D02*
X127790000Y-139500000D01*
X130334000Y-139460000D02*
X127790000Y-139460000D01*
X130355000Y-139420000D02*
X127790000Y-139420000D01*
X130376000Y-139380000D02*
X127790000Y-139380000D01*
X130396000Y-139340000D02*
X127790000Y-139340000D01*
X130416000Y-139300000D02*
X127790000Y-139300000D01*
X130435000Y-139260000D02*
X127790000Y-139260000D01*
X130454000Y-139220000D02*
X127790000Y-139220000D01*
X130472000Y-139180000D02*
X127790000Y-139180000D01*
X130490000Y-139140000D02*
X127790000Y-139140000D01*
X130507000Y-139100000D02*
X127790000Y-139100000D01*
X130523000Y-139060000D02*
X127790000Y-139060000D01*
X130539000Y-139020000D02*
X127790000Y-139020000D01*
X130555000Y-138980000D02*
X127790000Y-138980000D01*
X130570000Y-138940000D02*
X127790000Y-138940000D01*
X130585000Y-138900000D02*
X127790000Y-138900000D01*
X130599000Y-138860000D02*
X127790000Y-138860000D01*
X130613000Y-138820000D02*
X127790000Y-138820000D01*
X130626000Y-138780000D02*
X127790000Y-138780000D01*
X130639000Y-138740000D02*
X127790000Y-138740000D01*
X130651000Y-138700000D02*
X127790000Y-138700000D01*
X130663000Y-138660000D02*
X127790000Y-138660000D01*
X130675000Y-138620000D02*
X127790000Y-138620000D01*
X130686000Y-138580000D02*
X127790000Y-138580000D01*
X130697000Y-138540000D02*
X127790000Y-138540000D01*
X130707000Y-138500000D02*
X127790000Y-138500000D01*
X130717000Y-138460000D02*
X127790000Y-138460000D01*
X130726000Y-138420000D02*
X127790000Y-138420000D01*
X130735000Y-138380000D02*
X127790000Y-138380000D01*
X130743000Y-138340000D02*
X127790000Y-138340000D01*
X130752000Y-138300000D02*
X127790000Y-138300000D01*
X130759000Y-138260000D02*
X127790000Y-138260000D01*
X130767000Y-138220000D02*
X127790000Y-138220000D01*
X130773000Y-138180000D02*
X122727000Y-138180000D01*
X130780000Y-138140000D02*
X122720000Y-138140000D01*
X130786000Y-138100000D02*
X122714000Y-138100000D01*
X130792000Y-138060000D02*
X122708000Y-138060000D01*
X130797000Y-138020000D02*
X122703000Y-138020000D01*
X130802000Y-137980000D02*
X122698000Y-137980000D01*
X130806000Y-137940000D02*
X122694000Y-137940000D01*
X130811000Y-137900000D02*
X122689000Y-137900000D01*
X130814000Y-137860000D02*
X122686000Y-137860000D01*
X130818000Y-137820000D02*
X122682000Y-137820000D01*
X130820000Y-137780000D02*
X122680000Y-137780000D01*
X130823000Y-137740000D02*
X122677000Y-137740000D01*
X130825000Y-137700000D02*
X122675000Y-137700000D01*
X130827000Y-137660000D02*
X122673000Y-137660000D01*
X130828000Y-137620000D02*
X122672000Y-137620000D01*
X130829000Y-137580000D02*
X122671000Y-137580000D01*
X130830000Y-137500000D02*
X122670000Y-137500000D01*
X130830000Y-137540000D02*
X122670000Y-137540000D01*
X130870000Y-137500000D02*
G75*
G02*
X122630000Y-137500000I-4120000J0D01*
G01*
X122630000Y-137500000D02*
G75*
G02*
X130870000Y-137500000I4120000J0D01*
G01*
%TO.C,C11*%
X102900000Y-111033000D02*
X102900000Y-110467000D01*
X102940000Y-111267000D02*
X102940000Y-110233000D01*
X102980000Y-111427000D02*
X102980000Y-110073000D01*
X103020000Y-111555000D02*
X103020000Y-109945000D01*
X103060000Y-111664000D02*
X103060000Y-109836000D01*
X103100000Y-111761000D02*
X103100000Y-109739000D01*
X103140000Y-111848000D02*
X103140000Y-109652000D01*
X103180000Y-111927000D02*
X103180000Y-109573000D01*
X103220000Y-112001000D02*
X103220000Y-109499000D01*
X103260000Y-112069000D02*
X103260000Y-109431000D01*
X103300000Y-112133000D02*
X103300000Y-109367000D01*
X103340000Y-112193000D02*
X103340000Y-109307000D01*
X103380000Y-112249000D02*
X103380000Y-109251000D01*
X103420000Y-112303000D02*
X103420000Y-109197000D01*
X103460000Y-112354000D02*
X103460000Y-109146000D01*
X103500000Y-109710000D02*
X103500000Y-109098000D01*
X103500000Y-112402000D02*
X103500000Y-111790000D01*
X103540000Y-109710000D02*
X103540000Y-109051000D01*
X103540000Y-112449000D02*
X103540000Y-111790000D01*
X103580000Y-109710000D02*
X103580000Y-109007000D01*
X103580000Y-112493000D02*
X103580000Y-111790000D01*
X103620000Y-109710000D02*
X103620000Y-108965000D01*
X103620000Y-112535000D02*
X103620000Y-111790000D01*
X103660000Y-109710000D02*
X103660000Y-108925000D01*
X103660000Y-112575000D02*
X103660000Y-111790000D01*
X103700000Y-109710000D02*
X103700000Y-108886000D01*
X103700000Y-112614000D02*
X103700000Y-111790000D01*
X103740000Y-109710000D02*
X103740000Y-108849000D01*
X103740000Y-112651000D02*
X103740000Y-111790000D01*
X103780000Y-109710000D02*
X103780000Y-108814000D01*
X103780000Y-112686000D02*
X103780000Y-111790000D01*
X103820000Y-109710000D02*
X103820000Y-108780000D01*
X103820000Y-112720000D02*
X103820000Y-111790000D01*
X103860000Y-109710000D02*
X103860000Y-108747000D01*
X103860000Y-112753000D02*
X103860000Y-111790000D01*
X103900000Y-109710000D02*
X103900000Y-108715000D01*
X103900000Y-112785000D02*
X103900000Y-111790000D01*
X103940000Y-109710000D02*
X103940000Y-108685000D01*
X103940000Y-112815000D02*
X103940000Y-111790000D01*
X103980000Y-109710000D02*
X103980000Y-108656000D01*
X103980000Y-112844000D02*
X103980000Y-111790000D01*
X104020000Y-109710000D02*
X104020000Y-108628000D01*
X104020000Y-112872000D02*
X104020000Y-111790000D01*
X104060000Y-109710000D02*
X104060000Y-108601000D01*
X104060000Y-112899000D02*
X104060000Y-111790000D01*
X104100000Y-109710000D02*
X104100000Y-108575000D01*
X104100000Y-112925000D02*
X104100000Y-111790000D01*
X104140000Y-109710000D02*
X104140000Y-108551000D01*
X104140000Y-112949000D02*
X104140000Y-111790000D01*
X104180000Y-109710000D02*
X104180000Y-108527000D01*
X104180000Y-112973000D02*
X104180000Y-111790000D01*
X104220000Y-109710000D02*
X104220000Y-108504000D01*
X104220000Y-112996000D02*
X104220000Y-111790000D01*
X104260000Y-109710000D02*
X104260000Y-108482000D01*
X104260000Y-113018000D02*
X104260000Y-111790000D01*
X104300000Y-109710000D02*
X104300000Y-108461000D01*
X104300000Y-113039000D02*
X104300000Y-111790000D01*
X104340000Y-109710000D02*
X104340000Y-108441000D01*
X104340000Y-113059000D02*
X104340000Y-111790000D01*
X104380000Y-109710000D02*
X104380000Y-108421000D01*
X104380000Y-113079000D02*
X104380000Y-111790000D01*
X104420000Y-109710000D02*
X104420000Y-108403000D01*
X104420000Y-113097000D02*
X104420000Y-111790000D01*
X104460000Y-109710000D02*
X104460000Y-108385000D01*
X104460000Y-113115000D02*
X104460000Y-111790000D01*
X104500000Y-109710000D02*
X104500000Y-108368000D01*
X104500000Y-113132000D02*
X104500000Y-111790000D01*
X104540000Y-109710000D02*
X104540000Y-108352000D01*
X104540000Y-113148000D02*
X104540000Y-111790000D01*
X104580000Y-109710000D02*
X104580000Y-108337000D01*
X104580000Y-113163000D02*
X104580000Y-111790000D01*
X104620000Y-109710000D02*
X104620000Y-108322000D01*
X104620000Y-113178000D02*
X104620000Y-111790000D01*
X104660000Y-109710000D02*
X104660000Y-108308000D01*
X104660000Y-113192000D02*
X104660000Y-111790000D01*
X104700000Y-109710000D02*
X104700000Y-108295000D01*
X104700000Y-113205000D02*
X104700000Y-111790000D01*
X104740000Y-109710000D02*
X104740000Y-108283000D01*
X104740000Y-113217000D02*
X104740000Y-111790000D01*
X104780000Y-109710000D02*
X104780000Y-108271000D01*
X104780000Y-113229000D02*
X104780000Y-111790000D01*
X104820000Y-109710000D02*
X104820000Y-108260000D01*
X104820000Y-113240000D02*
X104820000Y-111790000D01*
X104860000Y-109710000D02*
X104860000Y-108249000D01*
X104860000Y-113251000D02*
X104860000Y-111790000D01*
X104900000Y-109710000D02*
X104900000Y-108240000D01*
X104900000Y-113260000D02*
X104900000Y-111790000D01*
X104940000Y-109710000D02*
X104940000Y-108231000D01*
X104940000Y-113269000D02*
X104940000Y-111790000D01*
X104980000Y-109710000D02*
X104980000Y-108222000D01*
X104980000Y-113278000D02*
X104980000Y-111790000D01*
X105020000Y-109710000D02*
X105020000Y-108214000D01*
X105020000Y-113286000D02*
X105020000Y-111790000D01*
X105060000Y-109710000D02*
X105060000Y-108207000D01*
X105060000Y-113293000D02*
X105060000Y-111790000D01*
X105100000Y-109710000D02*
X105100000Y-108201000D01*
X105100000Y-113299000D02*
X105100000Y-111790000D01*
X105140000Y-109710000D02*
X105140000Y-108195000D01*
X105140000Y-113305000D02*
X105140000Y-111790000D01*
X105180000Y-109710000D02*
X105180000Y-108190000D01*
X105180000Y-113310000D02*
X105180000Y-111790000D01*
X105220000Y-109710000D02*
X105220000Y-108185000D01*
X105220000Y-113315000D02*
X105220000Y-111790000D01*
X105260000Y-109710000D02*
X105260000Y-108181000D01*
X105260000Y-113319000D02*
X105260000Y-111790000D01*
X105300000Y-109710000D02*
X105300000Y-108178000D01*
X105300000Y-113322000D02*
X105300000Y-111790000D01*
X105340000Y-109710000D02*
X105340000Y-108175000D01*
X105340000Y-113325000D02*
X105340000Y-111790000D01*
X105380000Y-109710000D02*
X105380000Y-108173000D01*
X105380000Y-113327000D02*
X105380000Y-111790000D01*
X105420000Y-109710000D02*
X105420000Y-108171000D01*
X105420000Y-113329000D02*
X105420000Y-111790000D01*
X105460000Y-109710000D02*
X105460000Y-108170000D01*
X105460000Y-113330000D02*
X105460000Y-111790000D01*
X105500000Y-109710000D02*
X105500000Y-108170000D01*
X105500000Y-113330000D02*
X105500000Y-111790000D01*
X108054775Y-112475000D02*
X108054775Y-111975000D01*
X108304775Y-112225000D02*
X107804775Y-112225000D01*
X108120000Y-110750000D02*
G75*
G02*
X102880000Y-110750000I-2620000J0D01*
G01*
X102880000Y-110750000D02*
G75*
G02*
X108120000Y-110750000I2620000J0D01*
G01*
%TO.C,F1*%
D10*
X112000000Y-94380000D02*
X115000000Y-94380000D01*
X115000000Y-103580000D01*
X112000000Y-103580000D01*
X112000000Y-94380000D01*
%TO.C,C14*%
D14*
X122420000Y-77210000D02*
X123960000Y-77210000D01*
X122420000Y-77250000D02*
X123960000Y-77250000D01*
X122421000Y-77170000D02*
X123960000Y-77170000D01*
X122423000Y-77130000D02*
X123960000Y-77130000D01*
X122425000Y-77090000D02*
X123960000Y-77090000D01*
X122428000Y-77050000D02*
X123960000Y-77050000D01*
X122431000Y-77010000D02*
X123960000Y-77010000D01*
X122435000Y-76970000D02*
X123960000Y-76970000D01*
X122440000Y-76930000D02*
X123960000Y-76930000D01*
X122445000Y-76890000D02*
X123960000Y-76890000D01*
X122451000Y-76850000D02*
X123960000Y-76850000D01*
X122457000Y-76810000D02*
X123960000Y-76810000D01*
X122464000Y-76770000D02*
X123960000Y-76770000D01*
X122472000Y-76730000D02*
X123960000Y-76730000D01*
X122481000Y-76690000D02*
X123960000Y-76690000D01*
X122490000Y-76650000D02*
X123960000Y-76650000D01*
X122499000Y-76610000D02*
X123960000Y-76610000D01*
X122510000Y-76570000D02*
X123960000Y-76570000D01*
X122521000Y-76530000D02*
X123960000Y-76530000D01*
X122533000Y-76490000D02*
X123960000Y-76490000D01*
X122545000Y-76450000D02*
X123960000Y-76450000D01*
X122558000Y-76410000D02*
X123960000Y-76410000D01*
X122572000Y-76370000D02*
X123960000Y-76370000D01*
X122587000Y-76330000D02*
X123960000Y-76330000D01*
X122602000Y-76290000D02*
X123960000Y-76290000D01*
X122618000Y-76250000D02*
X123960000Y-76250000D01*
X122635000Y-76210000D02*
X123960000Y-76210000D01*
X122653000Y-76170000D02*
X123960000Y-76170000D01*
X122671000Y-76130000D02*
X123960000Y-76130000D01*
X122691000Y-76090000D02*
X123960000Y-76090000D01*
X122711000Y-76050000D02*
X123960000Y-76050000D01*
X122732000Y-76010000D02*
X123960000Y-76010000D01*
X122754000Y-75970000D02*
X123960000Y-75970000D01*
X122777000Y-75930000D02*
X123960000Y-75930000D01*
X122801000Y-75890000D02*
X123960000Y-75890000D01*
X122825000Y-75850000D02*
X123960000Y-75850000D01*
X122851000Y-75810000D02*
X123960000Y-75810000D01*
X122878000Y-75770000D02*
X123960000Y-75770000D01*
X122906000Y-75730000D02*
X123960000Y-75730000D01*
X122935000Y-75690000D02*
X123960000Y-75690000D01*
X122965000Y-75650000D02*
X123960000Y-75650000D01*
X122997000Y-75610000D02*
X123960000Y-75610000D01*
X123030000Y-75570000D02*
X123960000Y-75570000D01*
X123064000Y-75530000D02*
X123960000Y-75530000D01*
X123099000Y-75490000D02*
X123960000Y-75490000D01*
X123136000Y-75450000D02*
X123960000Y-75450000D01*
X123175000Y-75410000D02*
X123960000Y-75410000D01*
X123215000Y-75370000D02*
X123960000Y-75370000D01*
X123257000Y-75330000D02*
X123960000Y-75330000D01*
X123275000Y-79804775D02*
X123775000Y-79804775D01*
X123301000Y-75290000D02*
X123960000Y-75290000D01*
X123348000Y-75250000D02*
X123960000Y-75250000D01*
X123396000Y-75210000D02*
X126604000Y-75210000D01*
X123447000Y-75170000D02*
X126553000Y-75170000D01*
X123501000Y-75130000D02*
X126499000Y-75130000D01*
X123525000Y-80054775D02*
X123525000Y-79554775D01*
X123557000Y-75090000D02*
X126443000Y-75090000D01*
X123617000Y-75050000D02*
X126383000Y-75050000D01*
X123681000Y-75010000D02*
X126319000Y-75010000D01*
X123749000Y-74970000D02*
X126251000Y-74970000D01*
X123823000Y-74930000D02*
X126177000Y-74930000D01*
X123902000Y-74890000D02*
X126098000Y-74890000D01*
X123989000Y-74850000D02*
X126011000Y-74850000D01*
X124086000Y-74810000D02*
X125914000Y-74810000D01*
X124195000Y-74770000D02*
X125805000Y-74770000D01*
X124323000Y-74730000D02*
X125677000Y-74730000D01*
X124483000Y-74690000D02*
X125517000Y-74690000D01*
X124717000Y-74650000D02*
X125283000Y-74650000D01*
X126040000Y-75250000D02*
X126652000Y-75250000D01*
X126040000Y-75290000D02*
X126699000Y-75290000D01*
X126040000Y-75330000D02*
X126743000Y-75330000D01*
X126040000Y-75370000D02*
X126785000Y-75370000D01*
X126040000Y-75410000D02*
X126825000Y-75410000D01*
X126040000Y-75450000D02*
X126864000Y-75450000D01*
X126040000Y-75490000D02*
X126901000Y-75490000D01*
X126040000Y-75530000D02*
X126936000Y-75530000D01*
X126040000Y-75570000D02*
X126970000Y-75570000D01*
X126040000Y-75610000D02*
X127003000Y-75610000D01*
X126040000Y-75650000D02*
X127035000Y-75650000D01*
X126040000Y-75690000D02*
X127065000Y-75690000D01*
X126040000Y-75730000D02*
X127094000Y-75730000D01*
X126040000Y-75770000D02*
X127122000Y-75770000D01*
X126040000Y-75810000D02*
X127149000Y-75810000D01*
X126040000Y-75850000D02*
X127175000Y-75850000D01*
X126040000Y-75890000D02*
X127199000Y-75890000D01*
X126040000Y-75930000D02*
X127223000Y-75930000D01*
X126040000Y-75970000D02*
X127246000Y-75970000D01*
X126040000Y-76010000D02*
X127268000Y-76010000D01*
X126040000Y-76050000D02*
X127289000Y-76050000D01*
X126040000Y-76090000D02*
X127309000Y-76090000D01*
X126040000Y-76130000D02*
X127329000Y-76130000D01*
X126040000Y-76170000D02*
X127347000Y-76170000D01*
X126040000Y-76210000D02*
X127365000Y-76210000D01*
X126040000Y-76250000D02*
X127382000Y-76250000D01*
X126040000Y-76290000D02*
X127398000Y-76290000D01*
X126040000Y-76330000D02*
X127413000Y-76330000D01*
X126040000Y-76370000D02*
X127428000Y-76370000D01*
X126040000Y-76410000D02*
X127442000Y-76410000D01*
X126040000Y-76450000D02*
X127455000Y-76450000D01*
X126040000Y-76490000D02*
X127467000Y-76490000D01*
X126040000Y-76530000D02*
X127479000Y-76530000D01*
X126040000Y-76570000D02*
X127490000Y-76570000D01*
X126040000Y-76610000D02*
X127501000Y-76610000D01*
X126040000Y-76650000D02*
X127510000Y-76650000D01*
X126040000Y-76690000D02*
X127519000Y-76690000D01*
X126040000Y-76730000D02*
X127528000Y-76730000D01*
X126040000Y-76770000D02*
X127536000Y-76770000D01*
X126040000Y-76810000D02*
X127543000Y-76810000D01*
X126040000Y-76850000D02*
X127549000Y-76850000D01*
X126040000Y-76890000D02*
X127555000Y-76890000D01*
X126040000Y-76930000D02*
X127560000Y-76930000D01*
X126040000Y-76970000D02*
X127565000Y-76970000D01*
X126040000Y-77010000D02*
X127569000Y-77010000D01*
X126040000Y-77050000D02*
X127572000Y-77050000D01*
X126040000Y-77090000D02*
X127575000Y-77090000D01*
X126040000Y-77130000D02*
X127577000Y-77130000D01*
X126040000Y-77170000D02*
X127579000Y-77170000D01*
X126040000Y-77210000D02*
X127580000Y-77210000D01*
X126040000Y-77250000D02*
X127580000Y-77250000D01*
X127620000Y-77250000D02*
G75*
G02*
X122380000Y-77250000I-2620000J0D01*
G01*
X122380000Y-77250000D02*
G75*
G02*
X127620000Y-77250000I2620000J0D01*
G01*
%TO.C,J13*%
X130360000Y-67670000D02*
X131690000Y-67670000D01*
X130360000Y-69000000D02*
X130360000Y-67670000D01*
X132960000Y-67670000D02*
X140640000Y-67670000D01*
X132960000Y-70330000D02*
X132960000Y-67670000D01*
X132960000Y-70330000D02*
X140640000Y-70330000D01*
X140640000Y-70330000D02*
X140640000Y-67670000D01*
%TO.C,TP3*%
X138200000Y-57750000D02*
G75*
G02*
X135800000Y-57750000I-1200000J0D01*
G01*
X135800000Y-57750000D02*
G75*
G02*
X138200000Y-57750000I1200000J0D01*
G01*
%TO.C,C6*%
X138515000Y-72776248D02*
X138515000Y-73298752D01*
X139985000Y-72776248D02*
X139985000Y-73298752D01*
%TO.C,J16*%
D10*
X101800000Y-134800000D02*
X122200000Y-134800000D01*
X122200000Y-142800000D01*
X101800000Y-142800000D01*
X101800000Y-134800000D01*
X105000000Y-142802000D02*
X104746000Y-143056000D01*
X105254000Y-143056000D01*
X105000000Y-142802000D01*
G36*
X105254000Y-143056000D02*
G01*
X104746000Y-143056000D01*
X105000000Y-142802000D01*
X105254000Y-143056000D01*
G37*
%TO.C,C13*%
D14*
X163265000Y-58298752D02*
X163265000Y-57776248D01*
X164735000Y-58298752D02*
X164735000Y-57776248D01*
%TO.C,D1*%
X102615000Y-104540000D02*
X102615000Y-106460000D01*
X102615000Y-106460000D02*
X105475000Y-106460000D01*
X105475000Y-104540000D02*
X102615000Y-104540000D01*
%TO.C,C5*%
X126900000Y-61033000D02*
X126900000Y-60467000D01*
X126940000Y-61267000D02*
X126940000Y-60233000D01*
X126980000Y-61427000D02*
X126980000Y-60073000D01*
X127020000Y-61555000D02*
X127020000Y-59945000D01*
X127060000Y-61664000D02*
X127060000Y-59836000D01*
X127100000Y-61761000D02*
X127100000Y-59739000D01*
X127140000Y-61848000D02*
X127140000Y-59652000D01*
X127180000Y-61927000D02*
X127180000Y-59573000D01*
X127220000Y-62001000D02*
X127220000Y-59499000D01*
X127260000Y-62069000D02*
X127260000Y-59431000D01*
X127300000Y-62133000D02*
X127300000Y-59367000D01*
X127340000Y-62193000D02*
X127340000Y-59307000D01*
X127380000Y-62249000D02*
X127380000Y-59251000D01*
X127420000Y-62303000D02*
X127420000Y-59197000D01*
X127460000Y-62354000D02*
X127460000Y-59146000D01*
X127500000Y-59710000D02*
X127500000Y-59098000D01*
X127500000Y-62402000D02*
X127500000Y-61790000D01*
X127540000Y-59710000D02*
X127540000Y-59051000D01*
X127540000Y-62449000D02*
X127540000Y-61790000D01*
X127580000Y-59710000D02*
X127580000Y-59007000D01*
X127580000Y-62493000D02*
X127580000Y-61790000D01*
X127620000Y-59710000D02*
X127620000Y-58965000D01*
X127620000Y-62535000D02*
X127620000Y-61790000D01*
X127660000Y-59710000D02*
X127660000Y-58925000D01*
X127660000Y-62575000D02*
X127660000Y-61790000D01*
X127700000Y-59710000D02*
X127700000Y-58886000D01*
X127700000Y-62614000D02*
X127700000Y-61790000D01*
X127740000Y-59710000D02*
X127740000Y-58849000D01*
X127740000Y-62651000D02*
X127740000Y-61790000D01*
X127780000Y-59710000D02*
X127780000Y-58814000D01*
X127780000Y-62686000D02*
X127780000Y-61790000D01*
X127820000Y-59710000D02*
X127820000Y-58780000D01*
X127820000Y-62720000D02*
X127820000Y-61790000D01*
X127860000Y-59710000D02*
X127860000Y-58747000D01*
X127860000Y-62753000D02*
X127860000Y-61790000D01*
X127900000Y-59710000D02*
X127900000Y-58715000D01*
X127900000Y-62785000D02*
X127900000Y-61790000D01*
X127940000Y-59710000D02*
X127940000Y-58685000D01*
X127940000Y-62815000D02*
X127940000Y-61790000D01*
X127980000Y-59710000D02*
X127980000Y-58656000D01*
X127980000Y-62844000D02*
X127980000Y-61790000D01*
X128020000Y-59710000D02*
X128020000Y-58628000D01*
X128020000Y-62872000D02*
X128020000Y-61790000D01*
X128060000Y-59710000D02*
X128060000Y-58601000D01*
X128060000Y-62899000D02*
X128060000Y-61790000D01*
X128100000Y-59710000D02*
X128100000Y-58575000D01*
X128100000Y-62925000D02*
X128100000Y-61790000D01*
X128140000Y-59710000D02*
X128140000Y-58551000D01*
X128140000Y-62949000D02*
X128140000Y-61790000D01*
X128180000Y-59710000D02*
X128180000Y-58527000D01*
X128180000Y-62973000D02*
X128180000Y-61790000D01*
X128220000Y-59710000D02*
X128220000Y-58504000D01*
X128220000Y-62996000D02*
X128220000Y-61790000D01*
X128260000Y-59710000D02*
X128260000Y-58482000D01*
X128260000Y-63018000D02*
X128260000Y-61790000D01*
X128300000Y-59710000D02*
X128300000Y-58461000D01*
X128300000Y-63039000D02*
X128300000Y-61790000D01*
X128340000Y-59710000D02*
X128340000Y-58441000D01*
X128340000Y-63059000D02*
X128340000Y-61790000D01*
X128380000Y-59710000D02*
X128380000Y-58421000D01*
X128380000Y-63079000D02*
X128380000Y-61790000D01*
X128420000Y-59710000D02*
X128420000Y-58403000D01*
X128420000Y-63097000D02*
X128420000Y-61790000D01*
X128460000Y-59710000D02*
X128460000Y-58385000D01*
X128460000Y-63115000D02*
X128460000Y-61790000D01*
X128500000Y-59710000D02*
X128500000Y-58368000D01*
X128500000Y-63132000D02*
X128500000Y-61790000D01*
X128540000Y-59710000D02*
X128540000Y-58352000D01*
X128540000Y-63148000D02*
X128540000Y-61790000D01*
X128580000Y-59710000D02*
X128580000Y-58337000D01*
X128580000Y-63163000D02*
X128580000Y-61790000D01*
X128620000Y-59710000D02*
X128620000Y-58322000D01*
X128620000Y-63178000D02*
X128620000Y-61790000D01*
X128660000Y-59710000D02*
X128660000Y-58308000D01*
X128660000Y-63192000D02*
X128660000Y-61790000D01*
X128700000Y-59710000D02*
X128700000Y-58295000D01*
X128700000Y-63205000D02*
X128700000Y-61790000D01*
X128740000Y-59710000D02*
X128740000Y-58283000D01*
X128740000Y-63217000D02*
X128740000Y-61790000D01*
X128780000Y-59710000D02*
X128780000Y-58271000D01*
X128780000Y-63229000D02*
X128780000Y-61790000D01*
X128820000Y-59710000D02*
X128820000Y-58260000D01*
X128820000Y-63240000D02*
X128820000Y-61790000D01*
X128860000Y-59710000D02*
X128860000Y-58249000D01*
X128860000Y-63251000D02*
X128860000Y-61790000D01*
X128900000Y-59710000D02*
X128900000Y-58240000D01*
X128900000Y-63260000D02*
X128900000Y-61790000D01*
X128940000Y-59710000D02*
X128940000Y-58231000D01*
X128940000Y-63269000D02*
X128940000Y-61790000D01*
X128980000Y-59710000D02*
X128980000Y-58222000D01*
X128980000Y-63278000D02*
X128980000Y-61790000D01*
X129020000Y-59710000D02*
X129020000Y-58214000D01*
X129020000Y-63286000D02*
X129020000Y-61790000D01*
X129060000Y-59710000D02*
X129060000Y-58207000D01*
X129060000Y-63293000D02*
X129060000Y-61790000D01*
X129100000Y-59710000D02*
X129100000Y-58201000D01*
X129100000Y-63299000D02*
X129100000Y-61790000D01*
X129140000Y-59710000D02*
X129140000Y-58195000D01*
X129140000Y-63305000D02*
X129140000Y-61790000D01*
X129180000Y-59710000D02*
X129180000Y-58190000D01*
X129180000Y-63310000D02*
X129180000Y-61790000D01*
X129220000Y-59710000D02*
X129220000Y-58185000D01*
X129220000Y-63315000D02*
X129220000Y-61790000D01*
X129260000Y-59710000D02*
X129260000Y-58181000D01*
X129260000Y-63319000D02*
X129260000Y-61790000D01*
X129300000Y-59710000D02*
X129300000Y-58178000D01*
X129300000Y-63322000D02*
X129300000Y-61790000D01*
X129340000Y-59710000D02*
X129340000Y-58175000D01*
X129340000Y-63325000D02*
X129340000Y-61790000D01*
X129380000Y-59710000D02*
X129380000Y-58173000D01*
X129380000Y-63327000D02*
X129380000Y-61790000D01*
X129420000Y-59710000D02*
X129420000Y-58171000D01*
X129420000Y-63329000D02*
X129420000Y-61790000D01*
X129460000Y-59710000D02*
X129460000Y-58170000D01*
X129460000Y-63330000D02*
X129460000Y-61790000D01*
X129500000Y-59710000D02*
X129500000Y-58170000D01*
X129500000Y-63330000D02*
X129500000Y-61790000D01*
X132054775Y-62475000D02*
X132054775Y-61975000D01*
X132304775Y-62225000D02*
X131804775Y-62225000D01*
X132120000Y-60750000D02*
G75*
G02*
X126880000Y-60750000I-2620000J0D01*
G01*
X126880000Y-60750000D02*
G75*
G02*
X132120000Y-60750000I2620000J0D01*
G01*
%TO.C,C4*%
X122765000Y-124798752D02*
X122765000Y-124276248D01*
X124235000Y-124798752D02*
X124235000Y-124276248D01*
%TO.C,R1*%
X110227064Y-104765000D02*
X109772936Y-104765000D01*
X110227064Y-106235000D02*
X109772936Y-106235000D01*
%TO.C,R3*%
X136927064Y-64515000D02*
X136472936Y-64515000D01*
X136927064Y-65985000D02*
X136472936Y-65985000D01*
%TO.C,J3*%
X183170000Y-92190000D02*
X183170000Y-115110000D01*
X183170000Y-92190000D02*
X185830000Y-92190000D01*
X183170000Y-115110000D02*
X185830000Y-115110000D01*
X184500000Y-89590000D02*
X185830000Y-89590000D01*
X185830000Y-89590000D02*
X185830000Y-90920000D01*
X185830000Y-92190000D02*
X185830000Y-115110000D01*
%TO.C,J12*%
X130360000Y-82910000D02*
X131690000Y-82910000D01*
X130360000Y-84240000D02*
X130360000Y-82910000D01*
X132960000Y-82910000D02*
X140640000Y-82910000D01*
X132960000Y-85570000D02*
X132960000Y-82910000D01*
X132960000Y-85570000D02*
X140640000Y-85570000D01*
X140640000Y-85570000D02*
X140640000Y-82910000D01*
%TO.C,J9*%
X169400000Y-135500000D02*
X169400000Y-136750000D01*
X169700000Y-138050000D02*
X170450000Y-138050000D01*
X170450000Y-138050000D02*
X170450000Y-141000000D01*
X170450000Y-141000000D02*
X178500000Y-141000000D01*
X170650000Y-135500000D02*
X169400000Y-135500000D01*
X186550000Y-138050000D02*
X186550000Y-141000000D01*
X186550000Y-141000000D02*
X178500000Y-141000000D01*
X187300000Y-138050000D02*
X186550000Y-138050000D01*
X169690000Y-135790000D02*
X187310000Y-135790000D01*
X187310000Y-141760000D01*
X169690000Y-141760000D01*
X169690000Y-135790000D01*
X169700000Y-135800000D02*
X171500000Y-135800000D01*
X171500000Y-136550000D01*
X169700000Y-136550000D01*
X169700000Y-135800000D01*
X173000000Y-135800000D02*
X184000000Y-135800000D01*
X184000000Y-136550000D01*
X173000000Y-136550000D01*
X173000000Y-135800000D01*
X185500000Y-135800000D02*
X187300000Y-135800000D01*
X187300000Y-136550000D01*
X185500000Y-136550000D01*
X185500000Y-135800000D01*
%TO.C,TP1*%
X105450000Y-91000000D02*
G75*
G02*
X103050000Y-91000000I-1200000J0D01*
G01*
X103050000Y-91000000D02*
G75*
G02*
X105450000Y-91000000I1200000J0D01*
G01*
%TO.C,J15*%
D10*
X102050000Y-55200000D02*
X122450000Y-55200000D01*
X122450000Y-63200000D01*
X102050000Y-63200000D01*
X102050000Y-55200000D01*
X119250000Y-55198000D02*
X119504000Y-54944000D01*
X118996000Y-54944000D01*
X119250000Y-55198000D01*
G36*
X119250000Y-55198000D02*
G01*
X118996000Y-54944000D01*
X119504000Y-54944000D01*
X119250000Y-55198000D01*
G37*
%TO.C,C10*%
D14*
X184276248Y-84885000D02*
X184798752Y-84885000D01*
X184276248Y-86355000D02*
X184798752Y-86355000D01*
%TO.C,J10*%
X125220000Y-103920000D02*
X125220000Y-106580000D01*
X137980000Y-103920000D02*
X125220000Y-103920000D01*
X137980000Y-103920000D02*
X137980000Y-106580000D01*
X137980000Y-106580000D02*
X125220000Y-106580000D01*
X140580000Y-105250000D02*
X140580000Y-106580000D01*
X140580000Y-106580000D02*
X139250000Y-106580000D01*
%TO.C,TP2*%
X138450000Y-141500000D02*
G75*
G02*
X136050000Y-141500000I-1200000J0D01*
G01*
X136050000Y-141500000D02*
G75*
G02*
X138450000Y-141500000I1200000J0D01*
G01*
%TO.C,R2*%
X130022936Y-128265000D02*
X130477064Y-128265000D01*
X130022936Y-129735000D02*
X130477064Y-129735000D01*
%TO.C,J2*%
X171420000Y-74270000D02*
X171420000Y-127670000D01*
X171420000Y-74270000D02*
X174080000Y-74270000D01*
X171420000Y-127670000D02*
X174080000Y-127670000D01*
X172750000Y-71670000D02*
X174080000Y-71670000D01*
X174080000Y-71670000D02*
X174080000Y-73000000D01*
X174080000Y-74270000D02*
X174080000Y-127670000D01*
%TD*%
M02*
