M48
; DRILL file KiCad 10.0.3 date 2026-06-10T16:31:05
; FORMAT={-:-/ absolute / metric / decimal}
; #@! TF.CreationDate,2026-06-10T16:31:05+09:00
; #@! TF.GenerationSoftware,Kicad,Pcbnew,10.0.3
; #@! TF.FileFunction,Plated,1,2,PTH
FMAT,2
METRIC
; #@! TA.AperFunction,Plated,PTH,ViaDrill
T1C0.300
; #@! TA.AperFunction,Plated,PTH,ComponentDrill
T2C0.800
; #@! TA.AperFunction,Plated,PTH,ComponentDrill
T3C0.950
; #@! TA.AperFunction,Plated,PTH,ComponentDrill
T4C1.000
; #@! TA.AperFunction,Plated,PTH,ComponentDrill
T5C1.300
%
G90
G05
T1
X102.0Y-105.5
X106.0Y-86.0
X112.497Y-113.702
X112.55Y-114.5
X114.95Y-113.7
X114.95Y-114.5
X123.5Y-122.0
X126.5Y-100.75
X128.75Y-65.25
X133.0Y-90.75
X133.0Y-91.75
X133.0Y-92.75
X133.0Y-93.75
X135.45Y-90.78
X135.45Y-91.75
X135.45Y-92.75
X135.45Y-93.75
X137.5Y-129.5
X139.25Y-75.5
X154.25Y-123.75
X160.75Y-55.5
X164.0Y-55.5
X171.755Y-62.245
X172.75Y-61.25
X173.13Y-63.62
X174.25Y-62.5
X187.0Y-81.5
X187.0Y-85.25
T2
X104.5Y-110.75
X106.5Y-110.75
X125.0Y-76.25
X125.0Y-78.25
X126.75Y-135.75
X126.75Y-139.25
X128.5Y-60.75
X130.5Y-60.75
X134.25Y-96.25
X134.25Y-99.75
X146.5Y-133.0
X146.5Y-135.0
T3
X172.25Y-138.25
X174.75Y-138.25
X177.25Y-138.25
X179.75Y-138.25
X182.25Y-138.25
X184.75Y-138.25
T4
X106.25Y-117.26
X106.25Y-132.5
X106.3Y-65.75
X106.3Y-80.99
X108.79Y-117.26
X108.79Y-132.5
X108.84Y-65.75
X108.84Y-80.99
X111.33Y-117.26
X111.33Y-132.5
X111.38Y-65.75
X111.38Y-80.99
X113.5Y-96.46
X113.5Y-101.54
X113.87Y-117.26
X113.87Y-132.5
X113.92Y-65.75
X113.92Y-80.99
X116.41Y-117.26
X116.41Y-132.5
X116.46Y-65.75
X116.46Y-80.99
X118.95Y-117.26
X118.95Y-132.5
X119.0Y-65.75
X119.0Y-80.99
X126.55Y-105.25
X126.55Y-125.57
X129.09Y-105.25
X129.09Y-125.57
X131.63Y-105.25
X131.63Y-125.57
X131.69Y-69.0
X131.69Y-84.24
X134.17Y-105.25
X134.17Y-125.57
X134.23Y-69.0
X134.23Y-84.24
X136.71Y-105.25
X136.71Y-125.57
X136.77Y-69.0
X136.77Y-84.24
X139.25Y-105.25
X139.25Y-125.57
X139.31Y-69.0
X139.31Y-84.24
X147.35Y-73.0
X147.35Y-75.54
X147.35Y-78.08
X147.35Y-80.62
X147.35Y-83.16
X147.35Y-85.7
X147.35Y-88.24
X147.35Y-90.78
X147.35Y-93.32
X147.35Y-95.86
X147.35Y-98.4
X147.35Y-100.94
X147.35Y-103.48
X147.35Y-106.02
X147.35Y-108.56
X147.35Y-111.1
X147.35Y-113.64
X147.35Y-116.18
X147.35Y-118.72
X147.35Y-121.26
X147.35Y-123.8
X147.35Y-126.34
X169.0Y-58.5
X171.54Y-58.5
X172.75Y-73.0
X172.75Y-75.54
X172.75Y-78.08
X172.75Y-80.62
X172.75Y-83.16
X172.75Y-85.7
X172.75Y-88.24
X172.75Y-90.78
X172.75Y-93.32
X172.75Y-95.86
X172.75Y-98.4
X172.75Y-100.94
X172.75Y-103.48
X172.75Y-106.02
X172.75Y-108.56
X172.75Y-111.1
X172.75Y-113.64
X172.75Y-116.18
X172.75Y-118.72
X172.75Y-121.26
X172.75Y-123.8
X172.75Y-126.34
X174.08Y-58.5
X176.62Y-58.5
X179.16Y-58.5
X181.7Y-58.5
X184.24Y-58.5
X184.5Y-90.92
X184.5Y-93.46
X184.5Y-96.0
X184.5Y-98.54
X184.5Y-101.08
X184.5Y-103.62
X184.5Y-106.16
X184.5Y-108.7
X184.5Y-111.24
X184.5Y-113.78
T5
X104.5Y-139.5
X104.75Y-58.5
X106.25Y-96.5
X106.25Y-101.5
X109.5Y-139.5
X109.75Y-58.5
X114.5Y-139.5
X114.75Y-58.5
X119.5Y-139.5
X119.75Y-58.5
M30
