%TF.GenerationSoftware,KiCad,Pcbnew,10.0.3*%
%TF.CreationDate,2026-06-10T16:31:11+09:00*%
%TF.ProjectId,UWB_ESP32S3_MainBoard_v2,5557425f-4553-4503-9332-53335f4d6169,rev?*%
%TF.SameCoordinates,Original*%
%TF.FileFunction,Soldermask,Bot*%
%TF.FilePolarity,Negative*%
%FSLAX46Y46*%
G04 Gerber Fmt 4.6, Leading zero omitted, Abs format (unit mm)*
G04 Created by KiCad (PCBNEW 10.0.3) date 2026-06-10 16:31:11*
%MOMM*%
%LPD*%
G01*
G04 APERTURE LIST*
G04 Aperture macros list*
%AMRoundRect*
0 Rectangle with rounded corners*
0 $1 Rounding radius*
0 $2 $3 $4 $5 $6 $7 $8 $9 X,Y pos of 4 corners*
0 Add a 4 corners polygon primitive as box body*
4,1,4,$2,$3,$4,$5,$6,$7,$8,$9,$2,$3,0*
0 Add four circle primitives for the rounded corners*
1,1,$1+$1,$2,$3*
1,1,$1+$1,$4,$5*
1,1,$1+$1,$6,$7*
1,1,$1+$1,$8,$9*
0 Add four rect primitives between the rounded corners*
20,1,$1+$1,$2,$3,$4,$5,0*
20,1,$1+$1,$4,$5,$6,$7,0*
20,1,$1+$1,$6,$7,$8,$9,0*
20,1,$1+$1,$8,$9,$2,$3,0*%
G04 Aperture macros list end*
%ADD10C,2.600000*%
%ADD11R,1.700000X1.700000*%
%ADD12C,1.700000*%
%ADD13RoundRect,0.250000X-0.550000X0.550000X-0.550000X-0.550000X0.550000X-0.550000X0.550000X0.550000X0*%
%ADD14C,1.600000*%
%ADD15RoundRect,0.250000X0.550000X0.550000X-0.550000X0.550000X-0.550000X-0.550000X0.550000X-0.550000X0*%
%ADD16C,2.000000*%
%ADD17RoundRect,0.250000X0.550000X-0.550000X0.550000X0.550000X-0.550000X0.550000X-0.550000X-0.550000X0*%
%ADD18RoundRect,0.250000X-0.600000X-0.725000X0.600000X-0.725000X0.600000X0.725000X-0.600000X0.725000X0*%
%ADD19O,1.700000X1.950000*%
G04 APERTURE END LIST*
D10*
%TO.C,J14*%
X106250000Y-101500000D03*
X106250000Y-96500000D03*
%TD*%
D11*
%TO.C,J4*%
X119000000Y-80990000D03*
D12*
X116460000Y-80990000D03*
X113920000Y-80990000D03*
X111380000Y-80990000D03*
X108840000Y-80990000D03*
X106300000Y-80990000D03*
%TD*%
D11*
%TO.C,J1*%
X147350000Y-73000000D03*
D12*
X147350000Y-75540000D03*
X147350000Y-78080000D03*
X147350000Y-80620000D03*
X147350000Y-83160000D03*
X147350000Y-85700000D03*
X147350000Y-88240000D03*
X147350000Y-90780000D03*
X147350000Y-93320000D03*
X147350000Y-95860000D03*
X147350000Y-98400000D03*
X147350000Y-100940000D03*
X147350000Y-103480000D03*
X147350000Y-106020000D03*
X147350000Y-108560000D03*
X147350000Y-111100000D03*
X147350000Y-113640000D03*
X147350000Y-116180000D03*
X147350000Y-118720000D03*
X147350000Y-121260000D03*
X147350000Y-123800000D03*
X147350000Y-126340000D03*
%TD*%
D11*
%TO.C,J6*%
X106250000Y-132500000D03*
D12*
X108790000Y-132500000D03*
X111330000Y-132500000D03*
X113870000Y-132500000D03*
X116410000Y-132500000D03*
X118950000Y-132500000D03*
%TD*%
D11*
%TO.C,J11*%
X139250000Y-125570000D03*
D12*
X136710000Y-125570000D03*
X134170000Y-125570000D03*
X131630000Y-125570000D03*
X129090000Y-125570000D03*
X126550000Y-125570000D03*
%TD*%
D11*
%TO.C,J7*%
X106250000Y-117260000D03*
D12*
X108790000Y-117260000D03*
X111330000Y-117260000D03*
X113870000Y-117260000D03*
X116410000Y-117260000D03*
X118950000Y-117260000D03*
%TD*%
D11*
%TO.C,J8*%
X169000000Y-58500000D03*
D12*
X171540000Y-58500000D03*
X174080000Y-58500000D03*
X176620000Y-58500000D03*
X179160000Y-58500000D03*
X181700000Y-58500000D03*
X184240000Y-58500000D03*
%TD*%
D13*
%TO.C,C7*%
X146500000Y-133000000D03*
D14*
X146500000Y-135000000D03*
%TD*%
D13*
%TO.C,C1*%
X134250000Y-96250000D03*
D14*
X134250000Y-99750000D03*
%TD*%
D11*
%TO.C,J5*%
X119000000Y-65750000D03*
D12*
X116460000Y-65750000D03*
X113920000Y-65750000D03*
X111380000Y-65750000D03*
X108840000Y-65750000D03*
X106300000Y-65750000D03*
%TD*%
D13*
%TO.C,C3*%
X126750000Y-135750000D03*
D14*
X126750000Y-139250000D03*
%TD*%
D15*
%TO.C,C11*%
X106500000Y-110750000D03*
D14*
X104500000Y-110750000D03*
%TD*%
D16*
%TO.C,F1*%
X113500000Y-101540000D03*
X113500000Y-96460000D03*
%TD*%
D17*
%TO.C,C14*%
X125000000Y-78250000D03*
D14*
X125000000Y-76250000D03*
%TD*%
D11*
%TO.C,J13*%
X131690000Y-69000000D03*
D12*
X134230000Y-69000000D03*
X136770000Y-69000000D03*
X139310000Y-69000000D03*
%TD*%
D10*
%TO.C,J16*%
X104500000Y-139500000D03*
X109500000Y-139500000D03*
X114500000Y-139500000D03*
X119500000Y-139500000D03*
%TD*%
D15*
%TO.C,C5*%
X130500000Y-60750000D03*
D14*
X128500000Y-60750000D03*
%TD*%
D11*
%TO.C,J3*%
X184500000Y-90920000D03*
D12*
X184500000Y-93460000D03*
X184500000Y-96000000D03*
X184500000Y-98540000D03*
X184500000Y-101080000D03*
X184500000Y-103620000D03*
X184500000Y-106160000D03*
X184500000Y-108700000D03*
X184500000Y-111240000D03*
X184500000Y-113780000D03*
%TD*%
D11*
%TO.C,J12*%
X131690000Y-84240000D03*
D12*
X134230000Y-84240000D03*
X136770000Y-84240000D03*
X139310000Y-84240000D03*
%TD*%
D18*
%TO.C,J9*%
X172250000Y-138250000D03*
D19*
X174750000Y-138250000D03*
X177250000Y-138250000D03*
X179750000Y-138250000D03*
X182250000Y-138250000D03*
X184750000Y-138250000D03*
%TD*%
D10*
%TO.C,J15*%
X119750000Y-58500000D03*
X114750000Y-58500000D03*
X109750000Y-58500000D03*
X104750000Y-58500000D03*
%TD*%
D11*
%TO.C,J10*%
X139250000Y-105250000D03*
D12*
X136710000Y-105250000D03*
X134170000Y-105250000D03*
X131630000Y-105250000D03*
X129090000Y-105250000D03*
X126550000Y-105250000D03*
%TD*%
D11*
%TO.C,J2*%
X172750000Y-73000000D03*
D12*
X172750000Y-75540000D03*
X172750000Y-78080000D03*
X172750000Y-80620000D03*
X172750000Y-83160000D03*
X172750000Y-85700000D03*
X172750000Y-88240000D03*
X172750000Y-90780000D03*
X172750000Y-93320000D03*
X172750000Y-95860000D03*
X172750000Y-98400000D03*
X172750000Y-100940000D03*
X172750000Y-103480000D03*
X172750000Y-106020000D03*
X172750000Y-108560000D03*
X172750000Y-111100000D03*
X172750000Y-113640000D03*
X172750000Y-116180000D03*
X172750000Y-118720000D03*
X172750000Y-121260000D03*
X172750000Y-123800000D03*
X172750000Y-126340000D03*
%TD*%
M02*
