%TF.GenerationSoftware,KiCad,Pcbnew,10.0.3*%
%TF.CreationDate,2026-06-12T15:57:54+09:00*%
%TF.ProjectId,PDB,5044422e-6b69-4636-9164-5f7063625858,rev?*%
%TF.SameCoordinates,Original*%
%TF.FileFunction,Copper,L2,Bot*%
%TF.FilePolarity,Positive*%
%FSLAX46Y46*%
G04 Gerber Fmt 4.6, Leading zero omitted, Abs format (unit mm)*
G04 Created by KiCad (PCBNEW 10.0.3) date 2026-06-12 15:57:54*
%MOMM*%
%LPD*%
G01*
G04 APERTURE LIST*
%TA.AperFunction,ComponentPad*%
%ADD10C,1.600000*%
%TD*%
%TA.AperFunction,ComponentPad*%
%ADD11C,2.600000*%
%TD*%
%TA.AperFunction,ComponentPad*%
%ADD12C,2.000000*%
%TD*%
%TA.AperFunction,ViaPad*%
%ADD13C,0.600000*%
%TD*%
G04 APERTURE END LIST*
D10*
%TO.P,C1,1*%
%TO.N,/VBAT*%
X63500000Y-73250000D03*
%TO.P,C1,2*%
%TO.N,/GND*%
X63500000Y-76750000D03*
%TD*%
D11*
%TO.P,J1,1,Pin_1_1*%
%TO.N,/GND*%
X51250000Y-70500000D03*
%TO.P,J1,2,Pin_2_2*%
%TO.N,/BATT+*%
X51250000Y-75500000D03*
%TD*%
%TO.P,J4,2,Pin_2_2*%
%TO.N,/GND*%
X81000000Y-79150000D03*
%TO.P,J4,1,Pin_1_1*%
%TO.N,/VBAT*%
X76000000Y-79150000D03*
%TD*%
D12*
%TO.P,F1,1*%
%TO.N,/BATT+*%
X51960000Y-81250000D03*
%TO.P,F1,2*%
%TO.N,/VBAT_F*%
X57040000Y-81250000D03*
%TD*%
D11*
%TO.P,J2,2,Pin_2_2*%
%TO.N,/GND*%
X76000000Y-66750000D03*
%TO.P,J2,1,Pin_1_1*%
%TO.N,/VBAT*%
X81000000Y-66750000D03*
%TD*%
%TO.P,J3,2,Pin_2_2*%
%TO.N,/GND*%
X88750000Y-66750000D03*
%TO.P,J3,1,Pin_1_1*%
%TO.N,/VBAT*%
X93750000Y-66750000D03*
%TD*%
%TO.P,J5,2,Pin_2_2*%
%TO.N,/GND*%
X93750000Y-79150000D03*
%TO.P,J5,1,Pin_1_1*%
%TO.N,/VBAT*%
X88750000Y-79150000D03*
%TD*%
D13*
%TO.N,/GND*%
X52500000Y-64000000D03*
X64500000Y-64000000D03*
%TD*%
%TA.AperFunction,Conductor*%
%TO.N,/GND*%
G36*
X103845788Y-61019454D02*
G01*
X103926570Y-61073430D01*
X103980546Y-61154212D01*
X103999500Y-61249500D01*
X103999500Y-84750500D01*
X103980546Y-84845788D01*
X103926570Y-84926570D01*
X103845788Y-84980546D01*
X103750500Y-84999500D01*
X45249500Y-84999500D01*
X45154212Y-84980546D01*
X45073430Y-84926570D01*
X45019454Y-84845788D01*
X45000500Y-84750500D01*
X45000500Y-81131989D01*
X50159500Y-81131989D01*
X50159500Y-81368011D01*
X50190307Y-81602014D01*
X50251389Y-81829975D01*
X50251393Y-81829989D01*
X50251394Y-81829992D01*
X50341713Y-82048043D01*
X50341718Y-82048054D01*
X50459721Y-82252440D01*
X50459727Y-82252450D01*
X50603408Y-82439699D01*
X50770301Y-82606592D01*
X50957550Y-82750273D01*
X50957559Y-82750278D01*
X51161945Y-82868281D01*
X51161948Y-82868282D01*
X51161951Y-82868284D01*
X51380007Y-82958606D01*
X51607986Y-83019693D01*
X51841989Y-83050500D01*
X52078011Y-83050500D01*
X52312014Y-83019693D01*
X52539993Y-82958606D01*
X52758049Y-82868284D01*
X52962450Y-82750273D01*
X53149699Y-82606592D01*
X53316592Y-82439699D01*
X53460273Y-82252450D01*
X53578284Y-82048049D01*
X53668606Y-81829993D01*
X53729693Y-81602014D01*
X53760500Y-81368011D01*
X53760500Y-81131989D01*
X55239500Y-81131989D01*
X55239500Y-81368011D01*
X55270307Y-81602014D01*
X55331389Y-81829975D01*
X55331393Y-81829989D01*
X55331394Y-81829992D01*
X55421713Y-82048043D01*
X55421718Y-82048054D01*
X55539721Y-82252440D01*
X55539727Y-82252450D01*
X55683408Y-82439699D01*
X55850301Y-82606592D01*
X56037550Y-82750273D01*
X56037559Y-82750278D01*
X56241945Y-82868281D01*
X56241948Y-82868282D01*
X56241951Y-82868284D01*
X56460007Y-82958606D01*
X56687986Y-83019693D01*
X56921989Y-83050500D01*
X57158011Y-83050500D01*
X57392014Y-83019693D01*
X57619993Y-82958606D01*
X57838049Y-82868284D01*
X58042450Y-82750273D01*
X58229699Y-82606592D01*
X58396592Y-82439699D01*
X58540273Y-82252450D01*
X58658284Y-82048049D01*
X58728426Y-81878712D01*
X99149500Y-81878712D01*
X99149500Y-82121287D01*
X99181162Y-82361790D01*
X99181163Y-82361795D01*
X99243940Y-82596082D01*
X99243948Y-82596105D01*
X99336770Y-82820201D01*
X99336778Y-82820217D01*
X99458058Y-83030279D01*
X99458064Y-83030289D01*
X99605729Y-83222731D01*
X99605738Y-83222741D01*
X99777258Y-83394261D01*
X99777268Y-83394270D01*
X99898491Y-83487287D01*
X99969711Y-83541936D01*
X99969720Y-83541941D01*
X100179782Y-83663221D01*
X100179798Y-83663229D01*
X100319858Y-83721242D01*
X100403900Y-83756054D01*
X100403911Y-83756057D01*
X100403917Y-83756059D01*
X100587021Y-83805121D01*
X100638211Y-83818838D01*
X100878712Y-83850500D01*
X101121288Y-83850500D01*
X101361789Y-83818838D01*
X101523275Y-83775567D01*
X101596082Y-83756059D01*
X101596084Y-83756058D01*
X101596100Y-83756054D01*
X101747766Y-83693231D01*
X101820201Y-83663229D01*
X101820206Y-83663226D01*
X101820212Y-83663224D01*
X102030289Y-83541936D01*
X102222738Y-83394265D01*
X102394265Y-83222738D01*
X102541936Y-83030289D01*
X102663224Y-82820212D01*
X102756054Y-82596100D01*
X102818838Y-82361789D01*
X102850500Y-82121288D01*
X102850500Y-81878712D01*
X102818838Y-81638211D01*
X102756054Y-81403900D01*
X102692514Y-81250500D01*
X102663229Y-81179798D01*
X102663221Y-81179782D01*
X102541941Y-80969720D01*
X102541935Y-80969710D01*
X102394270Y-80777268D01*
X102394261Y-80777258D01*
X102222741Y-80605738D01*
X102222731Y-80605729D01*
X102030289Y-80458064D01*
X102030279Y-80458058D01*
X101820217Y-80336778D01*
X101820201Y-80336770D01*
X101596105Y-80243948D01*
X101596103Y-80243947D01*
X101596100Y-80243946D01*
X101596096Y-80243945D01*
X101596082Y-80243940D01*
X101361795Y-80181163D01*
X101361790Y-80181162D01*
X101121288Y-80149500D01*
X100878712Y-80149500D01*
X100638209Y-80181162D01*
X100638204Y-80181163D01*
X100403917Y-80243940D01*
X100403894Y-80243948D01*
X100179798Y-80336770D01*
X100179782Y-80336778D01*
X99969720Y-80458058D01*
X99969710Y-80458064D01*
X99777268Y-80605729D01*
X99777258Y-80605738D01*
X99605738Y-80777258D01*
X99605729Y-80777268D01*
X99458064Y-80969710D01*
X99458058Y-80969720D01*
X99336778Y-81179782D01*
X99336770Y-81179798D01*
X99243948Y-81403894D01*
X99243940Y-81403917D01*
X99181163Y-81638204D01*
X99181162Y-81638209D01*
X99149500Y-81878712D01*
X58728426Y-81878712D01*
X58748606Y-81829993D01*
X58809693Y-81602014D01*
X58840500Y-81368011D01*
X58840500Y-81131989D01*
X58809693Y-80897986D01*
X58748606Y-80670007D01*
X58658284Y-80451951D01*
X58647876Y-80433924D01*
X58540278Y-80247559D01*
X58540272Y-80247549D01*
X58537509Y-80243948D01*
X58396592Y-80060301D01*
X58229699Y-79893408D01*
X58042450Y-79749727D01*
X58042440Y-79749721D01*
X57838054Y-79631718D01*
X57838043Y-79631713D01*
X57675416Y-79564351D01*
X57619993Y-79541394D01*
X57392014Y-79480307D01*
X57392007Y-79480306D01*
X57158011Y-79449500D01*
X56921989Y-79449500D01*
X56687992Y-79480306D01*
X56687990Y-79480306D01*
X56687986Y-79480307D01*
X56515640Y-79526487D01*
X56460010Y-79541393D01*
X56460007Y-79541394D01*
X56241956Y-79631713D01*
X56241945Y-79631718D01*
X56037559Y-79749721D01*
X56037549Y-79749727D01*
X55850301Y-79893408D01*
X55850297Y-79893411D01*
X55683411Y-80060297D01*
X55683408Y-80060301D01*
X55539727Y-80247549D01*
X55539721Y-80247559D01*
X55421718Y-80451945D01*
X55421713Y-80451956D01*
X55358019Y-80605729D01*
X55331394Y-80670007D01*
X55270307Y-80897986D01*
X55239500Y-81131989D01*
X53760500Y-81131989D01*
X53729693Y-80897986D01*
X53668606Y-80670007D01*
X53578284Y-80451951D01*
X53567876Y-80433924D01*
X53460278Y-80247559D01*
X53460272Y-80247549D01*
X53457509Y-80243948D01*
X53316592Y-80060301D01*
X53149699Y-79893408D01*
X52962450Y-79749727D01*
X52962440Y-79749721D01*
X52758054Y-79631718D01*
X52758043Y-79631713D01*
X52595416Y-79564351D01*
X52539993Y-79541394D01*
X52312014Y-79480307D01*
X52312007Y-79480306D01*
X52078011Y-79449500D01*
X51841989Y-79449500D01*
X51607992Y-79480306D01*
X51607990Y-79480306D01*
X51607986Y-79480307D01*
X51435640Y-79526487D01*
X51380010Y-79541393D01*
X51380007Y-79541394D01*
X51161956Y-79631713D01*
X51161945Y-79631718D01*
X50957559Y-79749721D01*
X50957549Y-79749727D01*
X50770301Y-79893408D01*
X50770297Y-79893411D01*
X50603411Y-80060297D01*
X50603408Y-80060301D01*
X50459727Y-80247549D01*
X50459721Y-80247559D01*
X50341718Y-80451945D01*
X50341713Y-80451956D01*
X50278019Y-80605729D01*
X50251394Y-80670007D01*
X50190307Y-80897986D01*
X50159500Y-81131989D01*
X45000500Y-81131989D01*
X45000500Y-79012326D01*
X73899500Y-79012326D01*
X73899500Y-79287673D01*
X73932902Y-79541394D01*
X73935440Y-79560666D01*
X74006705Y-79826632D01*
X74112077Y-80081021D01*
X74112079Y-80081025D01*
X74112081Y-80081029D01*
X74208228Y-80247559D01*
X74249751Y-80319479D01*
X74417372Y-80537928D01*
X74612072Y-80732628D01*
X74830521Y-80900249D01*
X74830530Y-80900254D01*
X74830530Y-80900255D01*
X75068970Y-81037918D01*
X75068979Y-81037923D01*
X75323368Y-81143295D01*
X75589334Y-81214560D01*
X75862326Y-81250500D01*
X76137674Y-81250500D01*
X76410666Y-81214560D01*
X76676632Y-81143295D01*
X76931021Y-81037923D01*
X77169479Y-80900249D01*
X77387928Y-80732628D01*
X77582628Y-80537928D01*
X77750249Y-80319479D01*
X77887923Y-80081021D01*
X77993295Y-79826632D01*
X78064560Y-79560666D01*
X78100500Y-79287674D01*
X78100500Y-79032022D01*
X79200000Y-79032022D01*
X79200000Y-79267977D01*
X79230798Y-79501910D01*
X79291871Y-79729838D01*
X79291871Y-79729839D01*
X79382162Y-79947822D01*
X79382167Y-79947833D01*
X79475252Y-80109060D01*
X80353366Y-79230945D01*
X80374979Y-79339598D01*
X80423978Y-79457890D01*
X80495112Y-79564351D01*
X80585649Y-79654888D01*
X80692110Y-79726022D01*
X80810402Y-79775021D01*
X80919051Y-79796632D01*
X80040938Y-80674746D01*
X80202173Y-80767835D01*
X80202177Y-80767837D01*
X80420160Y-80858128D01*
X80648089Y-80919201D01*
X80882022Y-80950000D01*
X81117978Y-80950000D01*
X81351910Y-80919201D01*
X81579838Y-80858128D01*
X81579839Y-80858128D01*
X81797822Y-80767837D01*
X81797826Y-80767835D01*
X81959060Y-80674746D01*
X81080946Y-79796632D01*
X81189598Y-79775021D01*
X81307890Y-79726022D01*
X81414351Y-79654888D01*
X81504888Y-79564351D01*
X81576022Y-79457890D01*
X81625021Y-79339598D01*
X81646632Y-79230946D01*
X82524746Y-80109060D01*
X82617835Y-79947826D01*
X82617837Y-79947822D01*
X82708128Y-79729839D01*
X82708128Y-79729838D01*
X82769201Y-79501910D01*
X82800000Y-79267977D01*
X82800000Y-79032020D01*
X82797407Y-79012326D01*
X86649500Y-79012326D01*
X86649500Y-79287673D01*
X86682902Y-79541394D01*
X86685440Y-79560666D01*
X86756705Y-79826632D01*
X86862077Y-80081021D01*
X86862079Y-80081025D01*
X86862081Y-80081029D01*
X86958228Y-80247559D01*
X86999751Y-80319479D01*
X87167372Y-80537928D01*
X87362072Y-80732628D01*
X87580521Y-80900249D01*
X87580530Y-80900254D01*
X87580530Y-80900255D01*
X87818970Y-81037918D01*
X87818979Y-81037923D01*
X88073368Y-81143295D01*
X88339334Y-81214560D01*
X88612326Y-81250500D01*
X88887674Y-81250500D01*
X89160666Y-81214560D01*
X89426632Y-81143295D01*
X89681021Y-81037923D01*
X89919479Y-80900249D01*
X90137928Y-80732628D01*
X90332628Y-80537928D01*
X90500249Y-80319479D01*
X90637923Y-80081021D01*
X90743295Y-79826632D01*
X90814560Y-79560666D01*
X90850500Y-79287674D01*
X90850500Y-79032022D01*
X91950000Y-79032022D01*
X91950000Y-79267977D01*
X91980798Y-79501910D01*
X92041871Y-79729838D01*
X92041871Y-79729839D01*
X92132162Y-79947822D01*
X92132167Y-79947833D01*
X92225252Y-80109060D01*
X93103366Y-79230945D01*
X93124979Y-79339598D01*
X93173978Y-79457890D01*
X93245112Y-79564351D01*
X93335649Y-79654888D01*
X93442110Y-79726022D01*
X93560402Y-79775021D01*
X93669051Y-79796632D01*
X92790938Y-80674746D01*
X92952173Y-80767835D01*
X92952177Y-80767837D01*
X93170160Y-80858128D01*
X93398089Y-80919201D01*
X93632022Y-80950000D01*
X93867978Y-80950000D01*
X94101910Y-80919201D01*
X94329838Y-80858128D01*
X94329839Y-80858128D01*
X94547822Y-80767837D01*
X94547826Y-80767835D01*
X94709060Y-80674746D01*
X93830946Y-79796632D01*
X93939598Y-79775021D01*
X94057890Y-79726022D01*
X94164351Y-79654888D01*
X94254888Y-79564351D01*
X94326022Y-79457890D01*
X94375021Y-79339598D01*
X94396632Y-79230946D01*
X95274746Y-80109060D01*
X95367835Y-79947826D01*
X95367837Y-79947822D01*
X95458128Y-79729839D01*
X95458128Y-79729838D01*
X95519201Y-79501910D01*
X95550000Y-79267977D01*
X95550000Y-79032022D01*
X95519201Y-78798089D01*
X95458128Y-78570161D01*
X95458128Y-78570160D01*
X95367837Y-78352177D01*
X95367835Y-78352173D01*
X95274745Y-78190938D01*
X94396632Y-79069051D01*
X94375021Y-78960402D01*
X94326022Y-78842110D01*
X94254888Y-78735649D01*
X94164351Y-78645112D01*
X94057890Y-78573978D01*
X93939598Y-78524979D01*
X93830945Y-78503366D01*
X94709060Y-77625252D01*
X94547833Y-77532167D01*
X94547822Y-77532162D01*
X94329839Y-77441871D01*
X94101910Y-77380798D01*
X93867978Y-77350000D01*
X93632022Y-77350000D01*
X93398089Y-77380798D01*
X93170161Y-77441871D01*
X93170160Y-77441871D01*
X92952178Y-77532162D01*
X92952172Y-77532165D01*
X92790937Y-77625253D01*
X93669052Y-78503367D01*
X93560402Y-78524979D01*
X93442110Y-78573978D01*
X93335649Y-78645112D01*
X93245112Y-78735649D01*
X93173978Y-78842110D01*
X93124979Y-78960402D01*
X93103367Y-79069052D01*
X92225253Y-78190937D01*
X92132165Y-78352172D01*
X92132162Y-78352178D01*
X92041871Y-78570160D01*
X92041871Y-78570161D01*
X91980798Y-78798089D01*
X91950000Y-79032022D01*
X90850500Y-79032022D01*
X90850500Y-79012326D01*
X90814560Y-78739334D01*
X90743295Y-78473368D01*
X90637923Y-78218979D01*
X90621733Y-78190938D01*
X90500254Y-77980530D01*
X90500249Y-77980521D01*
X90332628Y-77762072D01*
X90137928Y-77567372D01*
X89919479Y-77399751D01*
X89919469Y-77399745D01*
X89919469Y-77399744D01*
X89681029Y-77262081D01*
X89681025Y-77262079D01*
X89681021Y-77262077D01*
X89426632Y-77156705D01*
X89426633Y-77156705D01*
X89426630Y-77156704D01*
X89299876Y-77122741D01*
X89160666Y-77085440D01*
X89160661Y-77085439D01*
X89160662Y-77085439D01*
X88887674Y-77049500D01*
X88612326Y-77049500D01*
X88339338Y-77085439D01*
X88073370Y-77156704D01*
X88073369Y-77156704D01*
X87899650Y-77228661D01*
X87818979Y-77262077D01*
X87818977Y-77262077D01*
X87818970Y-77262081D01*
X87580530Y-77399744D01*
X87580530Y-77399745D01*
X87580525Y-77399748D01*
X87580521Y-77399751D01*
X87416684Y-77525466D01*
X87362069Y-77567374D01*
X87167374Y-77762069D01*
X87167372Y-77762072D01*
X86999751Y-77980521D01*
X86999748Y-77980525D01*
X86999745Y-77980530D01*
X86999744Y-77980530D01*
X86862081Y-78218970D01*
X86756704Y-78473369D01*
X86756704Y-78473370D01*
X86685439Y-78739338D01*
X86649500Y-79012326D01*
X82797407Y-79012326D01*
X82769201Y-78798089D01*
X82708128Y-78570161D01*
X82708128Y-78570160D01*
X82617837Y-78352177D01*
X82617835Y-78352173D01*
X82524745Y-78190938D01*
X81646632Y-79069051D01*
X81625021Y-78960402D01*
X81576022Y-78842110D01*
X81504888Y-78735649D01*
X81414351Y-78645112D01*
X81307890Y-78573978D01*
X81189598Y-78524979D01*
X81080945Y-78503366D01*
X81959060Y-77625252D01*
X81797833Y-77532167D01*
X81797822Y-77532162D01*
X81579839Y-77441871D01*
X81351910Y-77380798D01*
X81117978Y-77350000D01*
X80882022Y-77350000D01*
X80648089Y-77380798D01*
X80420161Y-77441871D01*
X80420160Y-77441871D01*
X80202178Y-77532162D01*
X80202172Y-77532165D01*
X80040937Y-77625253D01*
X80919052Y-78503367D01*
X80810402Y-78524979D01*
X80692110Y-78573978D01*
X80585649Y-78645112D01*
X80495112Y-78735649D01*
X80423978Y-78842110D01*
X80374979Y-78960402D01*
X80353367Y-79069052D01*
X79475253Y-78190937D01*
X79382165Y-78352172D01*
X79382162Y-78352178D01*
X79291871Y-78570160D01*
X79291871Y-78570161D01*
X79230798Y-78798089D01*
X79200000Y-79032022D01*
X78100500Y-79032022D01*
X78100500Y-79012326D01*
X78064560Y-78739334D01*
X77993295Y-78473368D01*
X77887923Y-78218979D01*
X77871733Y-78190938D01*
X77750254Y-77980530D01*
X77750249Y-77980521D01*
X77582628Y-77762072D01*
X77387928Y-77567372D01*
X77169479Y-77399751D01*
X77169469Y-77399745D01*
X77169469Y-77399744D01*
X76931029Y-77262081D01*
X76931025Y-77262079D01*
X76931021Y-77262077D01*
X76676632Y-77156705D01*
X76676633Y-77156705D01*
X76676630Y-77156704D01*
X76549876Y-77122741D01*
X76410666Y-77085440D01*
X76410661Y-77085439D01*
X76410662Y-77085439D01*
X76137674Y-77049500D01*
X75862326Y-77049500D01*
X75589338Y-77085439D01*
X75323370Y-77156704D01*
X75323369Y-77156704D01*
X75149650Y-77228661D01*
X75068979Y-77262077D01*
X75068977Y-77262077D01*
X75068970Y-77262081D01*
X74830530Y-77399744D01*
X74830530Y-77399745D01*
X74830525Y-77399748D01*
X74830521Y-77399751D01*
X74666684Y-77525466D01*
X74612069Y-77567374D01*
X74417374Y-77762069D01*
X74417372Y-77762072D01*
X74249751Y-77980521D01*
X74249748Y-77980525D01*
X74249745Y-77980530D01*
X74249744Y-77980530D01*
X74112081Y-78218970D01*
X74006704Y-78473369D01*
X74006704Y-78473370D01*
X73935439Y-78739338D01*
X73899500Y-79012326D01*
X45000500Y-79012326D01*
X45000500Y-77907485D01*
X62908199Y-77907485D01*
X63000977Y-77954758D01*
X63195586Y-78017990D01*
X63397676Y-78049998D01*
X63397692Y-78050000D01*
X63602308Y-78050000D01*
X63602323Y-78049998D01*
X63804413Y-78017990D01*
X63999020Y-77954759D01*
X63999032Y-77954754D01*
X64091799Y-77907486D01*
X63499999Y-77315686D01*
X62908199Y-77907485D01*
X45000500Y-77907485D01*
X45000500Y-75362326D01*
X49149500Y-75362326D01*
X49149500Y-75637673D01*
X49185439Y-75910661D01*
X49256704Y-76176629D01*
X49256704Y-76176630D01*
X49277779Y-76227509D01*
X49362077Y-76431021D01*
X49362079Y-76431025D01*
X49362081Y-76431029D01*
X49409641Y-76513405D01*
X49499751Y-76669479D01*
X49667372Y-76887928D01*
X49862072Y-77082628D01*
X50080521Y-77250249D01*
X50080530Y-77250254D01*
X50080530Y-77250255D01*
X50306638Y-77380798D01*
X50318979Y-77387923D01*
X50573368Y-77493295D01*
X50839334Y-77564560D01*
X51112326Y-77600500D01*
X51387674Y-77600500D01*
X51587002Y-77574258D01*
X51660666Y-77564560D01*
X51926632Y-77493295D01*
X52181021Y-77387923D01*
X52330599Y-77301563D01*
X52419469Y-77250255D01*
X52419469Y-77250254D01*
X52419479Y-77250249D01*
X52637928Y-77082628D01*
X52832628Y-76887928D01*
X53000249Y-76669479D01*
X53012828Y-76647692D01*
X62200000Y-76647692D01*
X62200000Y-76852307D01*
X62200001Y-76852323D01*
X62232009Y-77054413D01*
X62295241Y-77249022D01*
X62342513Y-77341799D01*
X62934313Y-76750000D01*
X62881652Y-76697339D01*
X63100000Y-76697339D01*
X63100000Y-76802661D01*
X63127259Y-76904394D01*
X63179920Y-76995606D01*
X63254394Y-77070080D01*
X63345606Y-77122741D01*
X63447339Y-77150000D01*
X63552661Y-77150000D01*
X63654394Y-77122741D01*
X63745606Y-77070080D01*
X63820080Y-76995606D01*
X63872741Y-76904394D01*
X63900000Y-76802661D01*
X63900000Y-76749999D01*
X64065686Y-76749999D01*
X64657486Y-77341799D01*
X64704754Y-77249032D01*
X64704759Y-77249020D01*
X64767990Y-77054413D01*
X64799998Y-76852323D01*
X64800000Y-76852307D01*
X64800000Y-76647692D01*
X64799998Y-76647676D01*
X64767990Y-76445586D01*
X64704758Y-76250977D01*
X64657485Y-76158199D01*
X64065686Y-76749999D01*
X63900000Y-76749999D01*
X63900000Y-76697339D01*
X63872741Y-76595606D01*
X63820080Y-76504394D01*
X63745606Y-76429920D01*
X63654394Y-76377259D01*
X63552661Y-76350000D01*
X63447339Y-76350000D01*
X63345606Y-76377259D01*
X63254394Y-76429920D01*
X63179920Y-76504394D01*
X63127259Y-76595606D01*
X63100000Y-76697339D01*
X62881652Y-76697339D01*
X62342512Y-76158199D01*
X62295242Y-76250972D01*
X62232009Y-76445586D01*
X62200001Y-76647676D01*
X62200000Y-76647692D01*
X53012828Y-76647692D01*
X53137923Y-76431021D01*
X53243295Y-76176632D01*
X53314560Y-75910666D01*
X53350500Y-75637674D01*
X53350500Y-75592512D01*
X62908199Y-75592512D01*
X63500000Y-76184313D01*
X64091799Y-75592513D01*
X63999022Y-75545241D01*
X63804413Y-75482009D01*
X63602323Y-75450001D01*
X63602308Y-75450000D01*
X63397692Y-75450000D01*
X63397676Y-75450001D01*
X63195586Y-75482009D01*
X63000972Y-75545242D01*
X62908199Y-75592512D01*
X53350500Y-75592512D01*
X53350500Y-75362326D01*
X53314560Y-75089334D01*
X53243295Y-74823368D01*
X53137923Y-74568979D01*
X53000249Y-74330521D01*
X52832628Y-74112072D01*
X52637928Y-73917372D01*
X52419479Y-73749751D01*
X52419469Y-73749745D01*
X52419469Y-73749744D01*
X52181029Y-73612081D01*
X52181025Y-73612079D01*
X52181021Y-73612077D01*
X51926632Y-73506705D01*
X51926633Y-73506705D01*
X51926630Y-73506704D01*
X51811460Y-73475845D01*
X51660666Y-73435440D01*
X51660661Y-73435439D01*
X51660662Y-73435439D01*
X51387674Y-73399500D01*
X51112326Y-73399500D01*
X50839338Y-73435439D01*
X50573370Y-73506704D01*
X50573369Y-73506704D01*
X50399650Y-73578661D01*
X50318979Y-73612077D01*
X50318977Y-73612077D01*
X50318970Y-73612081D01*
X50080530Y-73749744D01*
X50080530Y-73749745D01*
X50080525Y-73749748D01*
X50080521Y-73749751D01*
X49931141Y-73864374D01*
X49862069Y-73917374D01*
X49667374Y-74112069D01*
X49667372Y-74112072D01*
X49499751Y-74330521D01*
X49499748Y-74330525D01*
X49499745Y-74330530D01*
X49499744Y-74330530D01*
X49362081Y-74568970D01*
X49362077Y-74568977D01*
X49362077Y-74568979D01*
X49341411Y-74618870D01*
X49256704Y-74823369D01*
X49256704Y-74823370D01*
X49185439Y-75089338D01*
X49149500Y-75362326D01*
X45000500Y-75362326D01*
X45000500Y-73124028D01*
X61899500Y-73124028D01*
X61899500Y-73375971D01*
X61938909Y-73624782D01*
X61938910Y-73624785D01*
X62016759Y-73864379D01*
X62131130Y-74088845D01*
X62279207Y-74292656D01*
X62457344Y-74470793D01*
X62661155Y-74618870D01*
X62885621Y-74733241D01*
X63125215Y-74811090D01*
X63202735Y-74823368D01*
X63374028Y-74850499D01*
X63374035Y-74850499D01*
X63374038Y-74850500D01*
X63374041Y-74850500D01*
X63625959Y-74850500D01*
X63625962Y-74850500D01*
X63625965Y-74850499D01*
X63625971Y-74850499D01*
X63743513Y-74831881D01*
X63874785Y-74811090D01*
X64114379Y-74733241D01*
X64338845Y-74618870D01*
X64542656Y-74470793D01*
X64720793Y-74292656D01*
X64868870Y-74088845D01*
X64983241Y-73864379D01*
X65061090Y-73624785D01*
X65100500Y-73375962D01*
X65100500Y-73124038D01*
X65100499Y-73124035D01*
X65100499Y-73124028D01*
X65061090Y-72875217D01*
X65061090Y-72875215D01*
X64983241Y-72635621D01*
X64868870Y-72411155D01*
X64720793Y-72207344D01*
X64542656Y-72029207D01*
X64338845Y-71881130D01*
X64114379Y-71766759D01*
X64114376Y-71766758D01*
X64114374Y-71766757D01*
X63874782Y-71688909D01*
X63625971Y-71649500D01*
X63625962Y-71649500D01*
X63374038Y-71649500D01*
X63374028Y-71649500D01*
X63125217Y-71688909D01*
X62885625Y-71766757D01*
X62885621Y-71766758D01*
X62885621Y-71766759D01*
X62661155Y-71881130D01*
X62661153Y-71881131D01*
X62661148Y-71881134D01*
X62457347Y-72029204D01*
X62279204Y-72207347D01*
X62131134Y-72411148D01*
X62016757Y-72635625D01*
X61938909Y-72875217D01*
X61899500Y-73124028D01*
X45000500Y-73124028D01*
X45000500Y-70382022D01*
X49450000Y-70382022D01*
X49450000Y-70617977D01*
X49480798Y-70851910D01*
X49541871Y-71079838D01*
X49541871Y-71079839D01*
X49632162Y-71297822D01*
X49632167Y-71297833D01*
X49725252Y-71459060D01*
X50603366Y-70580945D01*
X50624979Y-70689598D01*
X50673978Y-70807890D01*
X50745112Y-70914351D01*
X50835649Y-71004888D01*
X50942110Y-71076022D01*
X51060402Y-71125021D01*
X51169051Y-71146632D01*
X50290938Y-72024746D01*
X50452173Y-72117835D01*
X50452177Y-72117837D01*
X50670160Y-72208128D01*
X50898089Y-72269201D01*
X51132022Y-72300000D01*
X51367978Y-72300000D01*
X51601910Y-72269201D01*
X51829838Y-72208128D01*
X51829839Y-72208128D01*
X52047822Y-72117837D01*
X52047826Y-72117835D01*
X52209060Y-72024746D01*
X51330946Y-71146632D01*
X51439598Y-71125021D01*
X51557890Y-71076022D01*
X51664351Y-71004888D01*
X51754888Y-70914351D01*
X51826022Y-70807890D01*
X51875021Y-70689598D01*
X51896632Y-70580946D01*
X52774746Y-71459060D01*
X52867835Y-71297826D01*
X52867837Y-71297822D01*
X52958128Y-71079839D01*
X52958128Y-71079838D01*
X53019201Y-70851910D01*
X53050000Y-70617977D01*
X53050000Y-70382022D01*
X53019201Y-70148089D01*
X52958128Y-69920161D01*
X52958128Y-69920160D01*
X52867837Y-69702177D01*
X52867835Y-69702173D01*
X52774745Y-69540938D01*
X51896632Y-70419051D01*
X51875021Y-70310402D01*
X51826022Y-70192110D01*
X51754888Y-70085649D01*
X51664351Y-69995112D01*
X51557890Y-69923978D01*
X51439598Y-69874979D01*
X51330945Y-69853366D01*
X52209060Y-68975252D01*
X52047833Y-68882167D01*
X52047822Y-68882162D01*
X51829839Y-68791871D01*
X51601910Y-68730798D01*
X51367978Y-68700000D01*
X51132022Y-68700000D01*
X50898089Y-68730798D01*
X50670161Y-68791871D01*
X50670160Y-68791871D01*
X50452178Y-68882162D01*
X50452172Y-68882165D01*
X50290937Y-68975253D01*
X51169052Y-69853367D01*
X51060402Y-69874979D01*
X50942110Y-69923978D01*
X50835649Y-69995112D01*
X50745112Y-70085649D01*
X50673978Y-70192110D01*
X50624979Y-70310402D01*
X50603367Y-70419052D01*
X49725253Y-69540937D01*
X49632165Y-69702172D01*
X49632162Y-69702178D01*
X49541871Y-69920160D01*
X49541871Y-69920161D01*
X49480798Y-70148089D01*
X49450000Y-70382022D01*
X45000500Y-70382022D01*
X45000500Y-66632022D01*
X74200000Y-66632022D01*
X74200000Y-66867977D01*
X74230798Y-67101910D01*
X74291871Y-67329838D01*
X74291871Y-67329839D01*
X74382162Y-67547822D01*
X74382167Y-67547833D01*
X74475252Y-67709060D01*
X75353366Y-66830945D01*
X75374979Y-66939598D01*
X75423978Y-67057890D01*
X75495112Y-67164351D01*
X75585649Y-67254888D01*
X75692110Y-67326022D01*
X75810402Y-67375021D01*
X75919051Y-67396632D01*
X75040938Y-68274746D01*
X75202173Y-68367835D01*
X75202177Y-68367837D01*
X75420160Y-68458128D01*
X75648089Y-68519201D01*
X75882022Y-68550000D01*
X76117978Y-68550000D01*
X76351910Y-68519201D01*
X76579838Y-68458128D01*
X76579839Y-68458128D01*
X76797822Y-68367837D01*
X76797826Y-68367835D01*
X76959060Y-68274746D01*
X76080946Y-67396632D01*
X76189598Y-67375021D01*
X76307890Y-67326022D01*
X76414351Y-67254888D01*
X76504888Y-67164351D01*
X76576022Y-67057890D01*
X76625021Y-66939598D01*
X76646632Y-66830946D01*
X77524746Y-67709060D01*
X77617835Y-67547826D01*
X77617837Y-67547822D01*
X77708128Y-67329839D01*
X77708128Y-67329838D01*
X77769201Y-67101910D01*
X77800000Y-66867977D01*
X77800000Y-66632020D01*
X77797407Y-66612326D01*
X78899500Y-66612326D01*
X78899500Y-66887673D01*
X78927704Y-67101910D01*
X78935440Y-67160666D01*
X79006705Y-67426632D01*
X79112077Y-67681021D01*
X79112079Y-67681025D01*
X79112081Y-67681029D01*
X79128265Y-67709060D01*
X79249751Y-67919479D01*
X79417372Y-68137928D01*
X79612072Y-68332628D01*
X79830521Y-68500249D01*
X79830530Y-68500254D01*
X79830530Y-68500255D01*
X80068970Y-68637918D01*
X80068979Y-68637923D01*
X80323368Y-68743295D01*
X80589334Y-68814560D01*
X80862326Y-68850500D01*
X81137674Y-68850500D01*
X81410666Y-68814560D01*
X81676632Y-68743295D01*
X81931021Y-68637923D01*
X82169479Y-68500249D01*
X82387928Y-68332628D01*
X82582628Y-68137928D01*
X82750249Y-67919479D01*
X82887923Y-67681021D01*
X82993295Y-67426632D01*
X83064560Y-67160666D01*
X83100500Y-66887674D01*
X83100500Y-66632022D01*
X86950000Y-66632022D01*
X86950000Y-66867977D01*
X86980798Y-67101910D01*
X87041871Y-67329838D01*
X87041871Y-67329839D01*
X87132162Y-67547822D01*
X87132167Y-67547833D01*
X87225252Y-67709060D01*
X88103366Y-66830945D01*
X88124979Y-66939598D01*
X88173978Y-67057890D01*
X88245112Y-67164351D01*
X88335649Y-67254888D01*
X88442110Y-67326022D01*
X88560402Y-67375021D01*
X88669051Y-67396632D01*
X87790938Y-68274746D01*
X87952173Y-68367835D01*
X87952177Y-68367837D01*
X88170160Y-68458128D01*
X88398089Y-68519201D01*
X88632022Y-68550000D01*
X88867978Y-68550000D01*
X89101910Y-68519201D01*
X89329838Y-68458128D01*
X89329839Y-68458128D01*
X89547822Y-68367837D01*
X89547826Y-68367835D01*
X89709060Y-68274746D01*
X88830946Y-67396632D01*
X88939598Y-67375021D01*
X89057890Y-67326022D01*
X89164351Y-67254888D01*
X89254888Y-67164351D01*
X89326022Y-67057890D01*
X89375021Y-66939598D01*
X89396632Y-66830946D01*
X90274746Y-67709060D01*
X90367835Y-67547826D01*
X90367837Y-67547822D01*
X90458128Y-67329839D01*
X90458128Y-67329838D01*
X90519201Y-67101910D01*
X90550000Y-66867977D01*
X90550000Y-66632020D01*
X90547407Y-66612326D01*
X91649500Y-66612326D01*
X91649500Y-66887673D01*
X91677704Y-67101910D01*
X91685440Y-67160666D01*
X91756705Y-67426632D01*
X91862077Y-67681021D01*
X91862079Y-67681025D01*
X91862081Y-67681029D01*
X91878265Y-67709060D01*
X91999751Y-67919479D01*
X92167372Y-68137928D01*
X92362072Y-68332628D01*
X92580521Y-68500249D01*
X92580530Y-68500254D01*
X92580530Y-68500255D01*
X92818970Y-68637918D01*
X92818979Y-68637923D01*
X93073368Y-68743295D01*
X93339334Y-68814560D01*
X93612326Y-68850500D01*
X93887674Y-68850500D01*
X94160666Y-68814560D01*
X94426632Y-68743295D01*
X94681021Y-68637923D01*
X94919479Y-68500249D01*
X95137928Y-68332628D01*
X95332628Y-68137928D01*
X95500249Y-67919479D01*
X95637923Y-67681021D01*
X95743295Y-67426632D01*
X95814560Y-67160666D01*
X95850500Y-66887674D01*
X95850500Y-66612326D01*
X95814560Y-66339334D01*
X95743295Y-66073368D01*
X95637923Y-65818979D01*
X95637840Y-65818836D01*
X95569086Y-65699750D01*
X95500249Y-65580521D01*
X95332628Y-65362072D01*
X95137928Y-65167372D01*
X94919479Y-64999751D01*
X94919469Y-64999745D01*
X94919469Y-64999744D01*
X94681029Y-64862081D01*
X94681025Y-64862079D01*
X94681021Y-64862077D01*
X94426632Y-64756705D01*
X94426633Y-64756705D01*
X94426630Y-64756704D01*
X94311460Y-64725845D01*
X94160666Y-64685440D01*
X94160661Y-64685439D01*
X94160662Y-64685439D01*
X93887674Y-64649500D01*
X93612326Y-64649500D01*
X93339338Y-64685439D01*
X93073370Y-64756704D01*
X93073369Y-64756704D01*
X92920076Y-64820201D01*
X92818979Y-64862077D01*
X92818977Y-64862077D01*
X92818970Y-64862081D01*
X92580530Y-64999744D01*
X92580530Y-64999745D01*
X92580525Y-64999748D01*
X92580521Y-64999751D01*
X92416684Y-65125466D01*
X92362069Y-65167374D01*
X92167374Y-65362069D01*
X92142666Y-65394270D01*
X91999751Y-65580521D01*
X91999748Y-65580525D01*
X91999745Y-65580530D01*
X91999744Y-65580530D01*
X91862081Y-65818970D01*
X91862077Y-65818977D01*
X91862077Y-65818979D01*
X91828661Y-65899650D01*
X91756704Y-66073369D01*
X91756704Y-66073370D01*
X91685439Y-66339338D01*
X91649500Y-66612326D01*
X90547407Y-66612326D01*
X90519201Y-66398089D01*
X90458128Y-66170161D01*
X90458128Y-66170160D01*
X90367837Y-65952177D01*
X90367835Y-65952173D01*
X90274745Y-65790938D01*
X89396632Y-66669051D01*
X89375021Y-66560402D01*
X89326022Y-66442110D01*
X89254888Y-66335649D01*
X89164351Y-66245112D01*
X89057890Y-66173978D01*
X88939598Y-66124979D01*
X88830945Y-66103366D01*
X89709060Y-65225252D01*
X89547833Y-65132167D01*
X89547822Y-65132162D01*
X89329839Y-65041871D01*
X89101910Y-64980798D01*
X88867978Y-64950000D01*
X88632022Y-64950000D01*
X88398089Y-64980798D01*
X88170161Y-65041871D01*
X88170160Y-65041871D01*
X87952178Y-65132162D01*
X87952172Y-65132165D01*
X87790937Y-65225253D01*
X88669052Y-66103367D01*
X88560402Y-66124979D01*
X88442110Y-66173978D01*
X88335649Y-66245112D01*
X88245112Y-66335649D01*
X88173978Y-66442110D01*
X88124979Y-66560402D01*
X88103367Y-66669052D01*
X87225253Y-65790937D01*
X87132165Y-65952172D01*
X87132162Y-65952178D01*
X87041871Y-66170160D01*
X87041871Y-66170161D01*
X86980798Y-66398089D01*
X86950000Y-66632022D01*
X83100500Y-66632022D01*
X83100500Y-66612326D01*
X83064560Y-66339334D01*
X82993295Y-66073368D01*
X82887923Y-65818979D01*
X82887840Y-65818836D01*
X82819086Y-65699750D01*
X82750249Y-65580521D01*
X82662430Y-65466072D01*
X82582633Y-65362078D01*
X82582624Y-65362068D01*
X82387930Y-65167374D01*
X82387928Y-65167372D01*
X82169479Y-64999751D01*
X82169469Y-64999745D01*
X82169469Y-64999744D01*
X81931029Y-64862081D01*
X81931025Y-64862079D01*
X81931021Y-64862077D01*
X81676632Y-64756705D01*
X81676633Y-64756705D01*
X81676630Y-64756704D01*
X81561460Y-64725845D01*
X81410666Y-64685440D01*
X81410661Y-64685439D01*
X81410662Y-64685439D01*
X81137674Y-64649500D01*
X80862326Y-64649500D01*
X80589338Y-64685439D01*
X80323370Y-64756704D01*
X80323369Y-64756704D01*
X80170076Y-64820201D01*
X80068979Y-64862077D01*
X80068977Y-64862077D01*
X80068970Y-64862081D01*
X79830530Y-64999744D01*
X79830530Y-64999745D01*
X79830525Y-64999748D01*
X79830521Y-64999751D01*
X79666684Y-65125466D01*
X79612069Y-65167374D01*
X79417374Y-65362069D01*
X79392666Y-65394270D01*
X79249751Y-65580521D01*
X79249748Y-65580525D01*
X79249745Y-65580530D01*
X79249744Y-65580530D01*
X79112081Y-65818970D01*
X79112077Y-65818977D01*
X79112077Y-65818979D01*
X79078661Y-65899650D01*
X79006704Y-66073369D01*
X79006704Y-66073370D01*
X78935439Y-66339338D01*
X78899500Y-66612326D01*
X77797407Y-66612326D01*
X77769201Y-66398089D01*
X77708128Y-66170161D01*
X77708128Y-66170160D01*
X77617837Y-65952177D01*
X77617835Y-65952173D01*
X77524745Y-65790938D01*
X76646632Y-66669051D01*
X76625021Y-66560402D01*
X76576022Y-66442110D01*
X76504888Y-66335649D01*
X76414351Y-66245112D01*
X76307890Y-66173978D01*
X76189598Y-66124979D01*
X76080945Y-66103366D01*
X76959060Y-65225252D01*
X76797833Y-65132167D01*
X76797822Y-65132162D01*
X76579839Y-65041871D01*
X76351910Y-64980798D01*
X76117978Y-64950000D01*
X75882022Y-64950000D01*
X75648089Y-64980798D01*
X75420161Y-65041871D01*
X75420160Y-65041871D01*
X75202178Y-65132162D01*
X75202172Y-65132165D01*
X75040937Y-65225253D01*
X75919052Y-66103367D01*
X75810402Y-66124979D01*
X75692110Y-66173978D01*
X75585649Y-66245112D01*
X75495112Y-66335649D01*
X75423978Y-66442110D01*
X75374979Y-66560402D01*
X75353367Y-66669052D01*
X74475253Y-65790937D01*
X74382165Y-65952172D01*
X74382162Y-65952178D01*
X74291871Y-66170160D01*
X74291871Y-66170161D01*
X74230798Y-66398089D01*
X74200000Y-66632022D01*
X45000500Y-66632022D01*
X45000500Y-63878712D01*
X46149500Y-63878712D01*
X46149500Y-64121287D01*
X46181162Y-64361790D01*
X46181163Y-64361795D01*
X46243940Y-64596082D01*
X46243948Y-64596105D01*
X46336770Y-64820201D01*
X46336778Y-64820217D01*
X46458058Y-65030279D01*
X46458064Y-65030289D01*
X46605729Y-65222731D01*
X46605738Y-65222741D01*
X46777258Y-65394261D01*
X46777268Y-65394270D01*
X46870843Y-65466072D01*
X46969711Y-65541936D01*
X46969720Y-65541941D01*
X47179782Y-65663221D01*
X47179798Y-65663229D01*
X47319858Y-65721242D01*
X47403900Y-65756054D01*
X47403911Y-65756057D01*
X47403917Y-65756059D01*
X47587021Y-65805121D01*
X47638211Y-65818838D01*
X47878712Y-65850500D01*
X48121288Y-65850500D01*
X48361789Y-65818838D01*
X48523275Y-65775567D01*
X48596082Y-65756059D01*
X48596084Y-65756058D01*
X48596100Y-65756054D01*
X48747766Y-65693231D01*
X48820201Y-65663229D01*
X48820206Y-65663226D01*
X48820212Y-65663224D01*
X49030289Y-65541936D01*
X49222738Y-65394265D01*
X49394265Y-65222738D01*
X49541936Y-65030289D01*
X49663224Y-64820212D01*
X49756054Y-64596100D01*
X49818838Y-64361789D01*
X49850500Y-64121288D01*
X49850500Y-63878712D01*
X49818838Y-63638211D01*
X49756054Y-63403900D01*
X49721242Y-63319858D01*
X49663229Y-63179798D01*
X49663221Y-63179782D01*
X49541941Y-62969720D01*
X49541935Y-62969710D01*
X49394270Y-62777268D01*
X49394261Y-62777258D01*
X49222741Y-62605738D01*
X49222731Y-62605729D01*
X49030289Y-62458064D01*
X49030279Y-62458058D01*
X48820217Y-62336778D01*
X48820201Y-62336770D01*
X48596105Y-62243948D01*
X48596103Y-62243947D01*
X48596100Y-62243946D01*
X48596096Y-62243945D01*
X48596082Y-62243940D01*
X48361795Y-62181163D01*
X48361790Y-62181162D01*
X48121288Y-62149500D01*
X47878712Y-62149500D01*
X47638209Y-62181162D01*
X47638204Y-62181163D01*
X47403917Y-62243940D01*
X47403894Y-62243948D01*
X47179798Y-62336770D01*
X47179782Y-62336778D01*
X46969720Y-62458058D01*
X46969710Y-62458064D01*
X46777268Y-62605729D01*
X46777258Y-62605738D01*
X46605738Y-62777258D01*
X46605729Y-62777268D01*
X46458064Y-62969710D01*
X46458058Y-62969720D01*
X46336778Y-63179782D01*
X46336770Y-63179798D01*
X46243948Y-63403894D01*
X46243940Y-63403917D01*
X46181163Y-63638204D01*
X46181162Y-63638209D01*
X46149500Y-63878712D01*
X45000500Y-63878712D01*
X45000500Y-61249500D01*
X45019454Y-61154212D01*
X45073430Y-61073430D01*
X45154212Y-61019454D01*
X45249500Y-61000500D01*
X103750500Y-61000500D01*
X103845788Y-61019454D01*
G37*
%TD.AperFunction*%
%TD*%
M02*
